<svg xmlns="http://www.w3.org/2000/svg" xmlns:xlink="http://www.w3.org/1999/xlink" width="500" zoomAndPan="magnify" viewBox="0 0 375 374.999991" height="500" preserveAspectRatio="xMidYMid meet" version="1.0"><defs><clipPath id="id1"><path d="M 80 66 L 282 66 L 282 309.351562 L 80 309.351562 Z M 80 66 " clip-rule="nonzero"/></clipPath><clipPath id="id2"><path d="M 282 214 L 305.511719 214 L 305.511719 238 L 282 238 Z M 282 214 " clip-rule="nonzero"/></clipPath><clipPath id="id3"><path d="M 69.261719 166 L 81 166 L 81 178 L 69.261719 178 Z M 69.261719 166 " clip-rule="nonzero"/></clipPath></defs><path fill="rgb(91.758728%, 6.669617%, 42.749023%)" d="M 109.769531 260.125 C 121.386719 260.125 131.261719 254.25 134.710938 246.128906 L 84.820312 246.128906 C 88.269531 254.25 98.148438 260.125 109.769531 260.125 Z M 101.765625 249.847656 C 98.101562 250.605469 93.875 250.089844 90.152344 249.941406 C 90 249.929688 89.875 249.867188 89.773438 249.757812 C 89.671875 249.648438 89.617188 249.515625 89.617188 249.367188 C 89.617188 249.214844 89.671875 249.085938 89.773438 248.972656 C 89.875 248.863281 90 248.800781 90.152344 248.789062 C 93.871094 248.640625 98.101562 248.128906 101.765625 248.882812 C 102 248.957031 102.121094 249.117188 102.121094 249.363281 C 102.121094 249.609375 102 249.769531 101.765625 249.84375 Z M 130.359375 247.398438 C 130.820312 246.796875 131.964844 247.105469 131.683594 247.957031 C 130.308594 252.164062 125.285156 254.535156 121.507812 256.101562 C 116.496094 258.222656 111.273438 259.09375 105.84375 258.722656 C 105.71875 258.722656 105.613281 258.675781 105.527344 258.589844 C 105.4375 258.503906 105.394531 258.398438 105.394531 258.273438 C 105.394531 258.148438 105.4375 258.042969 105.527344 257.957031 C 105.613281 257.871094 105.71875 257.824219 105.84375 257.824219 C 114.789062 257.277344 124.683594 254.765625 130.359375 247.394531 Z M 89.277344 246.988281 C 93.800781 246.570312 98.347656 246.558594 102.882812 246.519531 C 107.023438 246.484375 111.34375 246.152344 115.441406 246.851562 C 115.699219 246.929688 115.828125 247.101562 115.828125 247.367188 C 115.828125 247.636719 115.699219 247.808594 115.441406 247.886719 C 111.34375 248.570312 107.03125 248.238281 102.882812 248.21875 C 98.347656 248.175781 93.800781 248.167969 89.277344 247.746094 C 89.171875 247.746094 89.082031 247.707031 89.011719 247.628906 C 88.9375 247.554688 88.902344 247.464844 88.902344 247.359375 C 88.90625 247.253906 88.945312 247.164062 89.019531 247.089844 C 89.09375 247.019531 89.183594 246.980469 89.289062 246.984375 Z M 89.277344 246.988281 " fill-opacity="1" fill-rule="nonzero"/><path fill="rgb(91.758728%, 6.669617%, 42.749023%)" d="M 222.316406 291.246094 L 218.242188 290.585938 C 218.765625 291.910156 218.46875 293.285156 216.535156 294.5625 C 213.789062 296.363281 209.984375 297.382812 206.875 298.253906 C 203.640625 299.15625 200.351562 299.78125 197.007812 300.132812 C 190.140625 300.871094 183.371094 299.46875 176.519531 300.246094 C 169.757812 301.003906 162.671875 300.082031 156.167969 298.171875 C 153.324219 297.339844 143.882812 295.371094 145.066406 290.839844 C 145.082031 290.777344 145.109375 290.714844 145.128906 290.652344 L 140.65625 291.398438 C 139.777344 291.542969 138.230469 291.507812 137.460938 292.003906 C 134.402344 293.972656 137.109375 295.597656 138.34375 296.464844 C 142.46875 299.367188 147.34375 301.304688 152.121094 302.820312 C 157.207031 304.425781 162.40625 305.453125 167.722656 305.902344 C 172.796875 306.332031 177.765625 305.605469 182.8125 305.765625 C 187.863281 305.929688 192.75 306.242188 197.8125 305.671875 C 203.179688 305.054688 208.410156 303.851562 213.507812 302.058594 C 217.742188 300.578125 223.777344 298.53125 226.890625 295.046875 C 229.425781 292.1875 224.042969 291.523438 222.316406 291.246094 Z M 165.132812 303.277344 C 160.214844 304.398438 153.867188 302.449219 149.304688 300.71875 C 145.328125 299.214844 141.046875 297.515625 139.292969 293.363281 C 139.0625 292.808594 139.839844 292.308594 140.128906 292.875 C 142.21875 296.972656 147.78125 298.433594 151.863281 299.59375 C 156.207031 300.828125 160.878906 300.789062 165.132812 302.109375 C 165.675781 302.277344 165.734375 303.128906 165.132812 303.277344 Z M 222.089844 293.917969 C 220.925781 297.359375 216.207031 298.699219 213.105469 299.753906 C 208.191406 301.414062 203.238281 302.171875 198.074219 302.554688 C 197.589844 302.589844 197.480469 301.769531 197.960938 301.695312 C 202.234375 301.007812 206.429688 299.996094 210.550781 298.65625 C 212.703125 297.996094 214.910156 297.304688 216.933594 296.289062 C 218.535156 295.480469 219.753906 294.238281 221.242188 293.265625 C 221.464844 293.144531 221.675781 293.160156 221.878906 293.316406 C 222.082031 293.46875 222.152344 293.671875 222.089844 293.917969 Z M 222.089844 293.917969 " fill-opacity="1" fill-rule="nonzero"/><path fill="rgb(91.758728%, 6.669617%, 42.749023%)" d="M 227.398438 246.128906 C 230.847656 254.25 240.722656 260.128906 252.347656 260.128906 C 263.96875 260.128906 273.839844 254.25 277.289062 246.128906 Z M 245.289062 250.058594 C 241.625 250.8125 237.398438 250.300781 233.675781 250.148438 C 233.523438 250.136719 233.398438 250.078125 233.296875 249.96875 C 233.191406 249.855469 233.140625 249.726562 233.140625 249.574219 C 233.140625 249.425781 233.191406 249.292969 233.296875 249.183594 C 233.398438 249.070312 233.523438 249.011719 233.675781 249 C 237.394531 248.851562 241.625 248.335938 245.289062 249.09375 C 245.527344 249.164062 245.648438 249.324219 245.648438 249.574219 C 245.648438 249.824219 245.527344 249.984375 245.289062 250.058594 Z M 232.816406 247.929688 C 232.722656 247.917969 232.640625 247.878906 232.578125 247.808594 C 232.515625 247.738281 232.484375 247.65625 232.484375 247.5625 C 232.484375 247.46875 232.515625 247.382812 232.578125 247.316406 C 232.640625 247.246094 232.722656 247.203125 232.816406 247.195312 C 237.335938 246.777344 241.882812 246.769531 246.417969 246.726562 C 250.558594 246.691406 254.878906 246.359375 258.980469 247.058594 C 259.238281 247.136719 259.367188 247.308594 259.367188 247.578125 C 259.367188 247.84375 259.238281 248.015625 258.980469 248.09375 C 254.878906 248.78125 250.566406 248.449219 246.417969 248.425781 C 241.882812 248.355469 237.332031 248.351562 232.816406 247.929688 Z M 265.035156 256.308594 C 260.019531 258.429688 254.796875 259.304688 249.367188 258.933594 C 249.25 258.921875 249.152344 258.875 249.074219 258.789062 C 248.996094 258.703125 248.957031 258.601562 248.957031 258.484375 C 248.957031 258.367188 248.996094 258.265625 249.074219 258.179688 C 249.152344 258.09375 249.25 258.042969 249.367188 258.035156 C 258.3125 257.496094 268.207031 254.976562 273.882812 247.605469 C 274.34375 247.007812 275.492188 247.316406 275.210938 248.167969 C 273.835938 252.375 268.8125 254.746094 265.035156 256.308594 Z M 265.035156 256.308594 " fill-opacity="1" fill-rule="nonzero"/><path fill="rgb(91.758728%, 6.669617%, 42.749023%)" d="M 163.117188 111.597656 L 163.195312 111.480469 L 164.191406 111.546875 C 164.3125 111.546875 164.4375 111.5625 164.566406 111.5625 L 197.921875 111.5625 L 197.984375 111.652344 C 214.738281 111.390625 230.324219 110.71875 242.964844 109.699219 C 262.34375 108.132812 267.921875 106.332031 269.496094 105.539062 C 267.921875 104.742188 262.34375 102.941406 242.964844 101.378906 C 226.398438 100.050781 204.800781 99.300781 182.125 99.300781 C 159.445312 99.300781 137.835938 100.039062 121.28125 101.378906 C 101.898438 102.941406 96.320312 104.742188 94.746094 105.539062 C 96.320312 106.332031 101.898438 108.132812 121.28125 109.699219 C 133.125 110.65625 147.558594 111.304688 163.117188 111.597656 Z M 244.949219 108.371094 C 240.972656 108.886719 236.847656 108.636719 232.84375 108.632812 C 228.835938 108.628906 224.753906 108.707031 220.738281 108.324219 C 220.613281 108.3125 220.507812 108.261719 220.425781 108.167969 C 220.339844 108.074219 220.296875 107.96875 220.296875 107.839844 C 220.296875 107.714844 220.339844 107.605469 220.425781 107.511719 C 220.507812 107.421875 220.613281 107.367188 220.738281 107.359375 C 224.753906 106.96875 228.816406 107.050781 232.84375 107.046875 C 236.867188 107.042969 240.96875 106.792969 244.949219 107.3125 C 245.085938 107.320312 245.203125 107.375 245.296875 107.476562 C 245.390625 107.578125 245.441406 107.699219 245.441406 107.835938 C 245.441406 107.976562 245.398438 108.09375 245.304688 108.199219 C 245.210938 108.300781 245.097656 108.359375 244.957031 108.371094 Z M 223.140625 101.535156 C 227.582031 101.300781 232.632812 100.796875 237.019531 101.621094 C 237.199219 101.675781 237.289062 101.800781 237.289062 101.988281 C 237.289062 102.175781 237.199219 102.296875 237.019531 102.351562 C 232.636719 103.175781 227.585938 102.683594 223.140625 102.433594 C 223.027344 102.425781 222.925781 102.375 222.847656 102.289062 C 222.769531 102.203125 222.730469 102.101562 222.730469 101.984375 C 222.730469 101.867188 222.769531 101.765625 222.847656 101.679688 C 222.925781 101.59375 223.027344 101.546875 223.140625 101.535156 Z M 215.761719 104.398438 C 222.746094 104.164062 229.726562 104.117188 236.714844 104.117188 C 243.601562 104.117188 250.828125 103.519531 257.667969 104.390625 C 257.824219 104.390625 257.960938 104.449219 258.074219 104.558594 C 258.1875 104.671875 258.242188 104.808594 258.242188 104.96875 C 258.242188 105.128906 258.1875 105.261719 258.074219 105.375 C 257.960938 105.488281 257.824219 105.542969 257.667969 105.542969 C 250.832031 106.417969 243.601562 105.816406 236.714844 105.816406 C 229.726562 105.816406 222.746094 105.769531 215.761719 105.539062 C 215.601562 105.539062 215.46875 105.484375 215.359375 105.371094 C 215.246094 105.261719 215.191406 105.125 215.191406 104.96875 C 215.191406 104.808594 215.246094 104.675781 215.359375 104.566406 C 215.46875 104.453125 215.601562 104.398438 215.761719 104.398438 Z M 146.300781 104.640625 C 156.273438 103.726562 166.546875 104.308594 176.554688 104.292969 L 191.382812 104.25 C 196.148438 104.25 201.058594 103.898438 205.777344 104.578125 C 206.351562 104.664062 206.351562 105.652344 205.777344 105.738281 C 201.0625 106.417969 196.144531 106.070312 191.382812 106.070312 L 176.554688 106.027344 C 166.546875 105.996094 156.273438 106.589844 146.300781 105.695312 C 146.15625 105.691406 146.03125 105.640625 145.929688 105.535156 C 145.828125 105.429688 145.777344 105.304688 145.78125 105.160156 C 145.78125 105.015625 145.835938 104.890625 145.9375 104.789062 C 146.042969 104.6875 146.167969 104.636719 146.3125 104.640625 Z M 128.441406 101.433594 C 132.878906 101.101562 137.535156 100.929688 141.964844 101.390625 C 142.097656 101.402344 142.210938 101.457031 142.300781 101.554688 C 142.390625 101.652344 142.4375 101.769531 142.4375 101.902344 C 142.4375 102.035156 142.390625 102.152344 142.300781 102.25 C 142.210938 102.347656 142.097656 102.402344 141.964844 102.414062 C 137.535156 102.878906 132.875 102.703125 128.441406 102.375 C 128.3125 102.375 128.203125 102.324219 128.113281 102.234375 C 128.023438 102.140625 127.976562 102.027344 127.980469 101.898438 C 127.980469 101.769531 128.027344 101.65625 128.121094 101.566406 C 128.214844 101.476562 128.328125 101.429688 128.457031 101.433594 Z M 106.246094 105.175781 C 106.015625 105.105469 105.902344 104.949219 105.902344 104.710938 C 105.902344 104.472656 106.015625 104.316406 106.246094 104.246094 C 111.617188 103.4375 117.273438 103.882812 122.695312 103.882812 C 128.488281 103.882812 134.421875 103.527344 140.179688 104.214844 C 140.320312 104.214844 140.433594 104.265625 140.53125 104.359375 C 140.628906 104.457031 140.679688 104.574219 140.679688 104.710938 C 140.679688 104.851562 140.628906 104.96875 140.53125 105.0625 C 140.433594 105.160156 140.320312 105.210938 140.179688 105.210938 C 134.417969 105.90625 128.492188 105.542969 122.695312 105.542969 C 117.292969 105.539062 111.621094 105.988281 106.257812 105.183594 Z M 115.050781 107.429688 C 119.617188 107.269531 124.191406 107.261719 128.761719 107.25 C 132.917969 107.25 137.324219 106.796875 141.429688 107.539062 C 141.609375 107.59375 141.699219 107.714844 141.699219 107.902344 C 141.699219 108.089844 141.609375 108.210938 141.429688 108.265625 C 137.332031 109.007812 132.914062 108.570312 128.761719 108.558594 C 124.191406 108.558594 119.617188 108.535156 115.050781 108.378906 C 114.929688 108.367188 114.824219 108.316406 114.742188 108.222656 C 114.660156 108.132812 114.617188 108.023438 114.621094 107.898438 C 114.621094 107.773438 114.664062 107.667969 114.75 107.578125 C 114.832031 107.488281 114.9375 107.4375 115.0625 107.429688 Z M 115.050781 107.429688 " fill-opacity="1" fill-rule="nonzero"/><path fill="rgb(87.059021%, 54.899597%, 44.709778%)" d="M 102.125 287.265625 C 101.671875 287.265625 101.238281 287.351562 100.820312 287.523438 C 100.402344 287.699219 100.03125 287.945312 99.710938 288.265625 C 99.390625 288.585938 99.144531 288.957031 98.972656 289.375 C 98.800781 289.792969 98.710938 290.226562 98.710938 290.679688 C 98.710938 291.132812 98.800781 291.570312 98.972656 291.988281 C 99.144531 292.40625 99.390625 292.773438 99.710938 293.09375 C 100.03125 293.414062 100.402344 293.664062 100.820312 293.835938 C 101.238281 294.007812 101.671875 294.09375 102.125 294.09375 C 102.578125 294.09375 103.011719 294.007812 103.429688 293.835938 C 103.847656 293.664062 104.21875 293.414062 104.539062 293.09375 C 104.859375 292.773438 105.105469 292.40625 105.277344 291.988281 C 105.449219 291.570312 105.539062 291.132812 105.539062 290.679688 C 105.535156 290.226562 105.449219 289.792969 105.277344 289.375 C 105.101562 288.957031 104.855469 288.585938 104.535156 288.265625 C 104.21875 287.945312 103.847656 287.699219 103.429688 287.527344 C 103.011719 287.351562 102.578125 287.265625 102.125 287.265625 Z M 102.125 287.265625 " fill-opacity="1" fill-rule="nonzero"/><path fill="rgb(87.059021%, 54.899597%, 44.709778%)" d="M 181.777344 77.664062 C 182.050781 77.664062 182.316406 77.636719 182.582031 77.585938 C 182.847656 77.535156 183.105469 77.457031 183.355469 77.351562 C 183.609375 77.25 183.84375 77.121094 184.070312 76.972656 C 184.296875 76.820312 184.503906 76.652344 184.695312 76.460938 C 184.886719 76.269531 185.058594 76.0625 185.210938 75.835938 C 185.363281 75.609375 185.488281 75.375 185.59375 75.125 C 185.695312 74.875 185.777344 74.617188 185.828125 74.351562 C 185.882812 74.085938 185.910156 73.816406 185.910156 73.546875 C 185.910156 73.273438 185.886719 73.007812 185.832031 72.742188 C 185.78125 72.476562 185.703125 72.214844 185.601562 71.964844 C 185.496094 71.714844 185.371094 71.476562 185.222656 71.25 C 185.070312 71.027344 184.902344 70.816406 184.710938 70.625 C 184.519531 70.433594 184.3125 70.261719 184.085938 70.109375 C 183.863281 69.957031 183.625 69.832031 183.375 69.726562 C 183.125 69.621094 182.867188 69.542969 182.601562 69.488281 C 182.335938 69.4375 182.070312 69.410156 181.800781 69.40625 C 181.527344 69.40625 181.261719 69.433594 180.996094 69.484375 C 180.730469 69.535156 180.472656 69.613281 180.21875 69.714844 C 179.96875 69.820312 179.730469 69.945312 179.507812 70.09375 C 179.28125 70.246094 179.070312 70.414062 178.878906 70.605469 C 178.6875 70.796875 178.515625 71.003906 178.363281 71.230469 C 178.214844 71.453125 178.085938 71.691406 177.980469 71.941406 C 177.875 72.191406 177.796875 72.449219 177.742188 72.714844 C 177.691406 72.980469 177.664062 73.25 177.660156 73.519531 C 177.660156 73.789062 177.6875 74.058594 177.738281 74.324219 C 177.789062 74.59375 177.867188 74.851562 177.96875 75.101562 C 178.074219 75.351562 178.199219 75.589844 178.351562 75.816406 C 178.5 76.042969 178.671875 76.253906 178.863281 76.445312 C 179.054688 76.636719 179.261719 76.808594 179.488281 76.960938 C 179.710938 77.113281 179.949219 77.242188 180.199219 77.34375 C 180.449219 77.449219 180.707031 77.527344 180.972656 77.582031 C 181.238281 77.636719 181.507812 77.664062 181.777344 77.664062 Z M 182.980469 70.339844 C 183.871094 71.113281 184.707031 72.152344 184.800781 73.378906 C 184.871094 74.308594 184.425781 75.699219 183.371094 75.847656 C 183.085938 75.890625 182.710938 75.65625 182.835938 75.308594 C 183.148438 74.515625 183.808594 74.050781 183.605469 73.089844 C 183.429688 72.25 182.761719 71.566406 182.28125 70.890625 C 181.949219 70.429688 182.628906 70.007812 182.980469 70.324219 Z M 182.980469 70.339844 " fill-opacity="1" fill-rule="nonzero"/><path fill="rgb(87.059021%, 54.899597%, 44.709778%)" d="M 253.035156 283.636719 C 252.582031 283.636719 252.148438 283.726562 251.730469 283.898438 C 251.3125 284.070312 250.941406 284.316406 250.621094 284.636719 C 250.300781 284.957031 250.054688 285.328125 249.882812 285.746094 C 249.710938 286.164062 249.621094 286.601562 249.621094 287.054688 C 249.621094 287.507812 249.710938 287.941406 249.882812 288.359375 C 250.054688 288.777344 250.300781 289.148438 250.621094 289.46875 C 250.941406 289.789062 251.3125 290.035156 251.730469 290.207031 C 252.148438 290.382812 252.582031 290.46875 253.035156 290.46875 C 253.488281 290.46875 253.921875 290.382812 254.339844 290.207031 C 254.757812 290.035156 255.128906 289.789062 255.449219 289.46875 C 255.769531 289.148438 256.015625 288.777344 256.1875 288.359375 C 256.359375 287.941406 256.449219 287.507812 256.449219 287.054688 C 256.445312 286.601562 256.359375 286.164062 256.1875 285.746094 C 256.011719 285.328125 255.765625 284.960938 255.445312 284.640625 C 255.125 284.320312 254.757812 284.074219 254.339844 283.898438 C 253.921875 283.726562 253.488281 283.640625 253.035156 283.636719 Z M 253.035156 283.636719 " fill-opacity="1" fill-rule="nonzero"/><path fill="rgb(87.059021%, 54.899597%, 44.709778%)" d="M 74.867188 168.382812 C 74.414062 168.382812 73.976562 168.46875 73.558594 168.640625 C 73.136719 168.8125 72.765625 169.058594 72.445312 169.378906 C 72.125 169.699219 71.878906 170.066406 71.703125 170.484375 C 71.527344 170.90625 71.441406 171.339844 71.441406 171.792969 C 71.4375 172.25 71.523438 172.683594 71.699219 173.105469 C 71.871094 173.523438 72.117188 173.894531 72.4375 174.214844 C 72.757812 174.535156 73.125 174.785156 73.542969 174.957031 C 73.964844 175.132812 74.398438 175.21875 74.851562 175.21875 C 75.304688 175.21875 75.742188 175.132812 76.160156 174.960938 C 76.578125 174.789062 76.949219 174.539062 77.269531 174.21875 C 77.589844 173.898438 77.835938 173.53125 78.011719 173.109375 C 78.183594 172.691406 78.269531 172.253906 78.269531 171.800781 C 78.269531 171.347656 78.183594 170.914062 78.011719 170.496094 C 77.839844 170.078125 77.59375 169.707031 77.273438 169.386719 C 76.953125 169.066406 76.585938 168.820312 76.167969 168.648438 C 75.75 168.472656 75.316406 168.382812 74.867188 168.382812 Z M 74.867188 168.382812 " fill-opacity="1" fill-rule="nonzero"/><path fill="rgb(87.059021%, 54.899597%, 44.709778%)" d="M 184.308594 86.617188 L 184.308594 80.152344 C 182.742188 80.761719 181.160156 80.800781 179.566406 80.269531 L 179.566406 86.394531 L 180.085938 86.394531 C 180.5625 86.394531 181.035156 86.394531 181.496094 86.421875 C 181.367188 84.910156 181.542969 83.308594 181.582031 81.863281 C 181.59375 81.710938 181.652344 81.585938 181.765625 81.480469 C 181.878906 81.375 182.007812 81.324219 182.160156 81.324219 C 182.3125 81.324219 182.445312 81.375 182.558594 81.480469 C 182.671875 81.585938 182.730469 81.710938 182.742188 81.863281 C 182.777344 83.328125 182.957031 84.957031 182.820312 86.484375 C 183.324219 86.511719 183.820312 86.554688 184.308594 86.617188 Z M 184.308594 86.617188 " fill-opacity="1" fill-rule="nonzero"/><path fill="rgb(87.059021%, 54.899597%, 44.709778%)" d="M 217.160156 70.984375 C 216.707031 70.984375 216.273438 71.070312 215.855469 71.246094 C 215.433594 71.417969 215.066406 71.664062 214.746094 71.984375 C 214.425781 72.304688 214.175781 72.675781 214.003906 73.09375 C 213.828125 73.511719 213.742188 73.949219 213.742188 74.402344 C 213.742188 74.855469 213.828125 75.292969 214.003906 75.710938 C 214.175781 76.132812 214.421875 76.5 214.742188 76.820312 C 215.0625 77.140625 215.433594 77.390625 215.851562 77.5625 C 216.269531 77.734375 216.707031 77.824219 217.160156 77.824219 C 217.613281 77.824219 218.046875 77.734375 218.46875 77.5625 C 218.886719 77.386719 219.253906 77.140625 219.574219 76.820312 C 219.894531 76.5 220.140625 76.128906 220.316406 75.710938 C 220.488281 75.289062 220.574219 74.855469 220.574219 74.402344 C 220.574219 73.949219 220.488281 73.511719 220.3125 73.09375 C 220.140625 72.675781 219.894531 72.308594 219.574219 71.988281 C 219.253906 71.667969 218.886719 71.421875 218.46875 71.246094 C 218.050781 71.074219 217.613281 70.988281 217.160156 70.984375 Z M 217.160156 70.984375 " fill-opacity="1" fill-rule="nonzero"/><path fill="rgb(87.059021%, 54.899597%, 44.709778%)" d="M 164.808594 114.609375 C 164.734375 114.824219 164.695312 115.046875 164.695312 115.273438 C 164.695312 118.222656 171.199219 121.507812 180.53125 121.507812 C 189.863281 121.507812 196.363281 118.222656 196.363281 115.273438 C 196.359375 115.066406 196.328125 114.863281 196.261719 114.667969 C 191.625 114.730469 186.914062 114.761719 182.125 114.761719 C 176.242188 114.753906 170.453125 114.703125 164.808594 114.609375 Z M 189.230469 118.921875 C 187.753906 119.378906 186.167969 119.203125 184.636719 119.183594 C 182.898438 119.164062 181.160156 119.109375 179.417969 119.054688 C 179.273438 119.042969 179.152344 118.984375 179.054688 118.875 C 178.957031 118.769531 178.90625 118.644531 178.90625 118.5 C 178.90625 118.355469 178.957031 118.230469 179.054688 118.125 C 179.152344 118.019531 179.273438 117.960938 179.417969 117.949219 C 181.160156 117.890625 182.898438 117.835938 184.636719 117.816406 C 186.164062 117.800781 187.761719 117.628906 189.230469 118.078125 C 189.4375 118.140625 189.539062 118.28125 189.539062 118.5 C 189.539062 118.714844 189.4375 118.855469 189.230469 118.921875 Z M 193.839844 115.847656 C 194.078125 115.917969 194.195312 116.078125 194.195312 116.328125 C 194.195312 116.578125 194.078125 116.738281 193.839844 116.8125 C 190.832031 117.519531 187.480469 117.097656 184.398438 117.085938 C 180.910156 117.085938 177.421875 117.046875 173.933594 116.964844 C 173.757812 116.964844 173.609375 116.902344 173.488281 116.777344 C 173.363281 116.65625 173.300781 116.503906 173.300781 116.332031 C 173.300781 116.15625 173.363281 116.007812 173.488281 115.882812 C 173.609375 115.757812 173.757812 115.699219 173.933594 115.699219 C 177.421875 115.609375 180.910156 115.582031 184.398438 115.570312 C 187.46875 115.5625 190.84375 115.148438 193.839844 115.847656 Z M 193.839844 115.847656 " fill-opacity="1" fill-rule="nonzero"/><path fill="rgb(87.059021%, 54.899597%, 44.709778%)" d="M 195.789062 96.324219 C 195.878906 96.09375 195.921875 95.851562 195.921875 95.605469 C 195.921875 92.652344 189.417969 89.367188 180.085938 89.367188 C 170.753906 89.367188 164.253906 92.652344 164.253906 95.605469 C 164.253906 95.851562 164.300781 96.09375 164.386719 96.324219 Z M 192.609375 94.40625 C 188.964844 95.234375 184.464844 94.753906 180.757812 94.386719 C 180.648438 94.386719 180.554688 94.347656 180.476562 94.269531 C 180.398438 94.191406 180.359375 94.097656 180.359375 93.988281 C 180.359375 93.875 180.398438 93.78125 180.476562 93.703125 C 180.554688 93.625 180.648438 93.585938 180.757812 93.585938 C 184.460938 93.21875 188.953125 92.742188 192.609375 93.566406 C 192.816406 93.628906 192.917969 93.769531 192.917969 93.988281 C 192.917969 94.203125 192.816406 94.34375 192.609375 94.40625 Z M 176.546875 91.589844 C 180.339844 91.257812 184.375 91.027344 188.144531 91.488281 C 188.269531 91.488281 188.375 91.535156 188.464844 91.621094 C 188.554688 91.710938 188.597656 91.820312 188.597656 91.945312 C 188.597656 92.070312 188.554688 92.175781 188.464844 92.265625 C 188.375 92.355469 188.269531 92.398438 188.144531 92.398438 C 184.359375 92.863281 180.324219 92.632812 176.546875 92.300781 C 176.449219 92.300781 176.367188 92.265625 176.296875 92.195312 C 176.226562 92.125 176.195312 92.042969 176.195312 91.945312 C 176.195312 91.847656 176.226562 91.761719 176.296875 91.691406 C 176.367188 91.625 176.449219 91.589844 176.546875 91.589844 Z M 176.546875 91.589844 " fill-opacity="1" fill-rule="nonzero"/><path fill="rgb(87.059021%, 54.899597%, 44.709778%)" d="M 214.484375 290.339844 C 214.355469 290.140625 214.210938 289.953125 214.050781 289.773438 C 213.847656 289.664062 213.695312 289.503906 213.589844 289.296875 C 212.542969 288.304688 211.078125 287.308594 210.195312 286.507812 C 209.128906 285.527344 208.070312 284.539062 207.019531 283.542969 C 198.363281 275.253906 190.175781 265.542969 187.199219 253.664062 C 185.5 246.886719 185.707031 239.738281 185.542969 232.816406 C 185.367188 225.535156 185.214844 218.246094 185.082031 210.953125 C 184.527344 182.078125 184.207031 153.199219 184.121094 124.316406 C 182.960938 124.417969 181.765625 124.46875 180.53125 124.46875 C 180.152344 124.46875 179.777344 124.46875 179.40625 124.453125 C 179.304688 157.050781 178.90625 189.640625 178.222656 222.226562 C 177.9375 235.316406 179.152344 249.382812 173.496094 261.554688 C 170.984375 266.960938 167.453125 271.835938 163.535156 276.3125 C 161.3125 278.847656 158.945312 281.253906 156.507812 283.585938 C 155.320312 284.714844 154.121094 285.835938 152.90625 286.9375 C 152 287.765625 150.773438 288.59375 149.8125 289.535156 C 149.761719 289.597656 149.703125 289.65625 149.636719 289.710938 C 149.425781 289.917969 149.226562 290.140625 149.039062 290.371094 C 147.5 292.398438 150.160156 292.851562 151.914062 293.546875 C 153.402344 294.140625 154.914062 294.664062 156.449219 295.125 C 159.742188 296.132812 163.101562 296.820312 166.523438 297.191406 C 173.039062 297.875 179.425781 296.496094 185.929688 297.121094 C 193.144531 297.828125 200.222656 297.136719 207.167969 295.046875 C 209.207031 294.449219 211.203125 293.722656 213.15625 292.875 C 213.527344 292.710938 214.871094 292.273438 215.035156 291.96875 C 215.660156 290.789062 214.894531 290.976562 214.484375 290.339844 Z M 184.164062 238.03125 C 184.421875 241.542969 185.160156 245.289062 184.871094 248.796875 C 184.867188 248.910156 184.824219 249.011719 184.746094 249.097656 C 184.671875 249.183594 184.574219 249.230469 184.460938 249.246094 C 184.347656 249.261719 184.242188 249.242188 184.144531 249.179688 C 184.046875 249.117188 183.980469 249.03125 183.945312 248.921875 C 183.023438 245.65625 183.089844 241.960938 182.871094 238.597656 C 182.628906 234.820312 182.5 231.03125 182.398438 227.242188 C 182.382812 226.542969 183.449219 226.550781 183.480469 227.242188 C 183.660156 230.847656 183.898438 234.4375 184.164062 238.03125 Z M 182.300781 129.671875 C 182.308594 129.5625 182.355469 129.46875 182.4375 129.394531 C 182.519531 129.320312 182.613281 129.28125 182.726562 129.28125 C 182.835938 129.28125 182.933594 129.320312 183.015625 129.394531 C 183.09375 129.46875 183.140625 129.5625 183.152344 129.671875 C 183.234375 133.679688 183.480469 137.738281 183.128906 141.734375 C 183.128906 141.847656 183.089844 141.941406 183.011719 142.019531 C 182.933594 142.097656 182.835938 142.136719 182.726562 142.136719 C 182.617188 142.136719 182.523438 142.097656 182.441406 142.019531 C 182.363281 141.941406 182.324219 141.847656 182.324219 141.734375 C 181.96875 137.738281 182.230469 133.679688 182.300781 129.671875 Z M 181.902344 171.421875 C 181.902344 171.261719 181.957031 171.128906 182.070312 171.015625 C 182.179688 170.90625 182.3125 170.851562 182.472656 170.851562 C 182.628906 170.851562 182.761719 170.90625 182.875 171.015625 C 182.984375 171.128906 183.042969 171.261719 183.042969 171.421875 C 183.25 179.6875 183.210938 187.953125 183.195312 196.21875 C 183.175781 204.484375 183.417969 212.8125 182.863281 221.019531 C 182.851562 221.121094 182.808594 221.207031 182.734375 221.277344 C 182.660156 221.347656 182.570312 221.378906 182.464844 221.378906 C 182.363281 221.378906 182.273438 221.347656 182.199219 221.277344 C 182.121094 221.207031 182.082031 221.121094 182.070312 221.019531 C 181.515625 212.8125 181.761719 204.441406 181.738281 196.21875 C 181.714844 187.996094 181.699219 179.6875 181.910156 171.421875 Z M 181.199219 273.875 C 180.535156 272.976562 180.246094 271.792969 179.914062 270.726562 C 179.539062 269.535156 179.171875 268.34375 178.800781 267.152344 C 178.558594 266.382812 179.714844 266.09375 179.988281 266.820312 L 181.316406 270.339844 C 181.707031 271.394531 182.191406 272.464844 182.199219 273.605469 C 182.203125 274.175781 181.507812 274.261719 181.210938 273.871094 Z M 179.980469 261.019531 C 179.945312 260.855469 179.96875 260.703125 180.054688 260.5625 C 180.140625 260.417969 180.261719 260.324219 180.421875 260.28125 C 180.582031 260.238281 180.734375 260.253906 180.882812 260.332031 C 181.027344 260.410156 181.128906 260.527344 181.179688 260.6875 C 182.265625 264.511719 184.242188 268.839844 184.375 272.835938 C 184.371094 273.085938 184.25 273.242188 184.007812 273.304688 C 183.769531 273.371094 183.585938 273.296875 183.457031 273.085938 C 181.378906 269.691406 180.816406 264.847656 179.980469 261.019531 Z M 185.511719 295.582031 C 184.910156 295.140625 184.675781 294.460938 184.355469 293.800781 C 184.027344 293.082031 183.695312 292.351562 183.382812 291.621094 C 183.070312 290.894531 184.046875 290.296875 184.457031 290.992188 C 184.867188 291.6875 185.261719 292.351562 185.640625 293.046875 C 185.972656 293.675781 186.445312 294.3125 186.445312 295.039062 C 186.4375 295.476562 185.890625 295.871094 185.5 295.582031 Z M 189.429688 295.972656 C 187.933594 295.230469 187.179688 293.160156 186.445312 291.746094 C 185.492188 289.929688 184.621094 288.097656 183.394531 286.441406 C 182.976562 285.878906 183.910156 285.171875 184.351562 285.699219 C 185.550781 287.167969 186.613281 288.730469 187.527344 290.390625 C 188.378906 291.886719 189.925781 293.675781 190.222656 295.367188 C 190.292969 295.605469 190.230469 295.800781 190.03125 295.949219 C 189.832031 296.097656 189.625 296.105469 189.414062 295.972656 Z M 196.417969 295.519531 C 195.425781 295.265625 194.675781 294.246094 194.070312 293.457031 C 193.332031 292.476562 192.652344 291.453125 192.03125 290.390625 C 191.703125 289.832031 192.519531 289.398438 192.886719 289.890625 C 193.601562 290.84375 194.375 291.742188 195.207031 292.589844 C 195.871094 293.28125 196.761719 293.976562 197.042969 294.910156 C 197.09375 295.101562 197.050781 295.269531 196.90625 295.40625 C 196.761719 295.542969 196.59375 295.582031 196.40625 295.519531 Z M 201.171875 294.121094 C 199.207031 293.753906 197.316406 291.46875 195.992188 290.105469 C 194.382812 288.398438 192.957031 286.550781 191.714844 284.558594 C 191.417969 284.09375 192.121094 283.546875 192.480469 283.96875 C 193.957031 285.699219 195.535156 287.332031 197.207031 288.871094 C 198.640625 290.195312 200.976562 291.445312 201.890625 293.179688 C 202.011719 293.429688 201.988281 293.664062 201.816406 293.878906 C 201.648438 294.097656 201.425781 294.179688 201.15625 294.121094 Z M 205.695312 293.457031 C 202.152344 291.527344 199.109375 287.773438 196.535156 284.71875 C 193.777344 281.535156 191.542969 278.019531 189.835938 274.164062 C 189.613281 273.664062 190.328125 273.21875 190.589844 273.722656 C 192.578125 277.585938 195.375 281.15625 198.414062 284.246094 C 201.0625 286.945312 204.5625 289.320312 206.695312 292.464844 C 207.105469 293.109375 206.28125 293.804688 205.683594 293.476562 Z M 209.929688 292.4375 C 206.714844 289.972656 204 286.738281 201.183594 283.832031 C 198.761719 281.332031 196.332031 278.859375 194.226562 276.074219 C 189.882812 270.304688 186.945312 263.886719 185.414062 256.824219 C 185.382812 256.703125 185.398438 256.59375 185.460938 256.484375 C 185.523438 256.378906 185.613281 256.308594 185.734375 256.277344 C 185.851562 256.242188 185.964844 256.257812 186.074219 256.316406 C 186.179688 256.375 186.253906 256.464844 186.289062 256.582031 C 188.230469 263.6875 191.5 270.121094 196.09375 275.875 C 200.582031 281.449219 206.605469 285.773438 210.835938 291.527344 C 211.207031 292.066406 210.4375 292.847656 209.917969 292.453125 Z M 209.929688 292.4375 " fill-opacity="1" fill-rule="nonzero"/><path fill="rgb(87.059021%, 54.899597%, 44.709778%)" d="M 286.066406 174.417969 C 285.613281 174.417969 285.179688 174.503906 284.761719 174.675781 C 284.34375 174.851562 283.972656 175.097656 283.652344 175.417969 C 283.332031 175.738281 283.085938 176.105469 282.914062 176.527344 C 282.738281 176.945312 282.652344 177.378906 282.652344 177.832031 C 282.652344 178.285156 282.738281 178.722656 282.914062 179.140625 C 283.085938 179.558594 283.332031 179.925781 283.652344 180.246094 C 283.972656 180.566406 284.34375 180.8125 284.761719 180.988281 C 285.179688 181.160156 285.613281 181.246094 286.066406 181.246094 C 286.519531 181.246094 286.953125 181.160156 287.371094 180.988281 C 287.789062 180.8125 288.160156 180.566406 288.480469 180.246094 C 288.796875 179.925781 289.046875 179.558594 289.21875 179.140625 C 289.390625 178.722656 289.476562 178.285156 289.476562 177.832031 C 289.476562 177.378906 289.390625 176.945312 289.21875 176.527344 C 289.042969 176.109375 288.796875 175.738281 288.476562 175.417969 C 288.15625 175.097656 287.789062 174.851562 287.371094 174.679688 C 286.953125 174.503906 286.519531 174.417969 286.066406 174.417969 Z M 286.066406 174.417969 " fill-opacity="1" fill-rule="nonzero"/><path fill="rgb(87.059021%, 54.899597%, 44.709778%)" d="M 83.875 243.148438 L 135.660156 243.148438 C 135.832031 242.332031 135.941406 241.511719 135.988281 240.679688 L 83.535156 240.679688 C 83.582031 241.511719 83.699219 242.335938 83.875 243.148438 Z M 83.875 243.148438 " fill-opacity="1" fill-rule="nonzero"/><path fill="rgb(87.059021%, 54.899597%, 44.709778%)" d="M 226.453125 243.148438 L 278.238281 243.148438 C 278.410156 242.332031 278.523438 241.511719 278.570312 240.679688 L 226.113281 240.679688 C 226.160156 241.511719 226.277344 242.335938 226.453125 243.148438 Z M 226.453125 243.148438 " fill-opacity="1" fill-rule="nonzero"/><g clip-path="url(#id1)"><path fill="rgb(0%, 0%, 0%)" d="M 281.507812 237.699219 L 279.234375 237.699219 C 279.304688 237.453125 279.3125 237.207031 279.253906 236.960938 L 251.941406 112.761719 L 251.941406 111.859375 C 257.167969 111.292969 261.457031 110.675781 264.738281 110.003906 C 270.644531 108.796875 272.945312 107.542969 272.945312 105.539062 C 272.945312 103.53125 270.628906 102.277344 264.738281 101.070312 C 260.179688 100.140625 253.679688 99.304688 245.421875 98.59375 C 232.5 97.472656 216.367188 96.746094 198.820312 96.460938 C 198.871094 96.175781 198.894531 95.890625 198.898438 95.605469 C 198.898438 91.625 194.230469 88.371094 187.285156 87.039062 L 187.285156 78.285156 C 187.285156 78.199219 187.273438 78.113281 187.257812 78.03125 C 187.546875 77.679688 187.800781 77.308594 188.019531 76.90625 C 188.234375 76.507812 188.414062 76.09375 188.550781 75.660156 C 188.6875 75.226562 188.785156 74.785156 188.835938 74.335938 C 188.890625 73.882812 188.898438 73.433594 188.867188 72.980469 C 188.832031 72.527344 188.757812 72.082031 188.636719 71.640625 C 188.519531 71.203125 188.359375 70.78125 188.160156 70.371094 C 187.960938 69.964844 187.722656 69.578125 187.449219 69.21875 C 187.175781 68.855469 186.871094 68.523438 186.535156 68.21875 C 186.195312 67.914062 185.832031 67.644531 185.445312 67.410156 C 185.054688 67.175781 184.648438 66.980469 184.222656 66.824219 C 183.796875 66.667969 183.359375 66.554688 182.910156 66.480469 C 182.464844 66.410156 182.011719 66.378906 181.558594 66.394531 C 181.105469 66.410156 180.65625 66.464844 180.214844 66.566406 C 179.773438 66.664062 179.34375 66.808594 178.925781 66.988281 C 178.511719 67.171875 178.117188 67.390625 177.742188 67.648438 C 177.371094 67.90625 177.023438 68.199219 176.707031 68.523438 C 176.386719 68.847656 176.105469 69.199219 175.851562 69.578125 C 175.601562 69.957031 175.390625 70.355469 175.214844 70.773438 C 175.042969 71.195312 174.910156 71.625 174.820312 72.070312 C 174.726562 72.515625 174.679688 72.964844 174.671875 73.421875 C 174.667969 73.875 174.707031 74.324219 174.785156 74.773438 C 174.867188 75.21875 174.992188 75.652344 175.15625 76.078125 C 175.320312 76.5 175.523438 76.90625 175.761719 77.289062 C 176.003906 77.671875 176.28125 78.03125 176.589844 78.363281 L 176.589844 86.542969 C 167.644531 87.300781 161.277344 90.945312 161.277344 95.609375 C 161.28125 95.921875 161.3125 96.234375 161.375 96.539062 C 145.398438 96.871094 130.730469 97.570312 118.824219 98.597656 C 110.5625 99.3125 104.0625 100.148438 99.507812 101.078125 C 93.601562 102.285156 91.296875 103.539062 91.296875 105.542969 C 91.296875 107.550781 93.617188 108.804688 99.507812 110.011719 C 102.332031 110.589844 105.902344 111.128906 110.171875 111.625 L 110.171875 112.769531 C 101.0625 154.167969 91.957031 195.566406 82.855469 236.96875 C 82.800781 237.214844 82.804688 237.460938 82.875 237.707031 L 80.589844 237.707031 L 80.535156 239.3125 C 80.535156 239.46875 80.535156 239.644531 80.535156 239.792969 C 80.535156 252.652344 93.648438 263.113281 109.769531 263.113281 C 123.496094 263.113281 135.039062 255.519531 138.164062 245.324219 C 138.230469 245.179688 138.273438 245.027344 138.292969 244.871094 C 138.761719 243.214844 138.996094 241.523438 139 239.796875 C 139 239.640625 139 239.46875 139 239.328125 L 138.945312 237.714844 L 136.277344 237.714844 C 128.683594 196.101562 121.09375 154.492188 113.503906 112.882812 C 113.484375 112.769531 113.453125 112.660156 113.410156 112.550781 L 113.390625 112.28125 L 113.417969 111.984375 C 115.132812 112.160156 116.9375 112.328125 118.839844 112.496094 C 130.84375 113.53125 145.65625 114.238281 161.789062 114.558594 C 161.753906 114.796875 161.734375 115.035156 161.730469 115.273438 C 161.730469 119.832031 167.824219 123.417969 176.445312 124.285156 C 176.347656 154.964844 175.992188 185.644531 175.378906 216.316406 C 175.222656 223.992188 175.050781 231.667969 174.863281 239.339844 C 174.667969 246.898438 173.871094 254.078125 170.511719 260.949219 C 167.441406 267.226562 163.027344 272.722656 158.199219 277.730469 C 155.957031 280.050781 153.617188 282.265625 151.238281 284.441406 C 150.332031 285.277344 149.03125 286.179688 147.847656 287.179688 L 139.875 288.503906 C 138.105469 288.800781 136.097656 288.960938 134.632812 290.105469 C 131.757812 292.339844 133.019531 296.023438 135.460938 298.011719 C 143.230469 304.332031 154.582031 307.25 164.285156 308.511719 C 169.585938 309.203125 174.824219 309.199219 180.160156 308.84375 C 185.492188 308.488281 190.761719 309.304688 196.121094 308.828125 C 206.417969 307.910156 217.0625 305.074219 225.871094 299.515625 C 228.484375 297.859375 232.632812 294.488281 229.921875 291.136719 C 228.808594 289.757812 227.003906 289.121094 225.332031 288.753906 C 222.070312 288.042969 218.707031 287.648438 215.414062 287.097656 C 214.453125 286.242188 213.453125 285.457031 212.726562 284.796875 C 207.523438 280.042969 202.421875 275.089844 198.234375 269.402344 C 194.179688 263.890625 190.945312 257.683594 189.621094 250.914062 C 188.148438 243.289062 188.5625 235.234375 188.390625 227.507812 C 187.617188 192.992188 187.183594 158.472656 187.085938 123.949219 C 194.375 122.699219 199.34375 119.382812 199.34375 115.269531 C 199.34375 115.046875 199.324219 114.828125 199.292969 114.605469 C 216.660156 114.316406 232.632812 113.589844 245.425781 112.480469 C 246.5625 112.382812 247.660156 112.28125 248.738281 112.179688 L 248.738281 112.269531 C 248.738281 112.359375 248.738281 112.449219 248.714844 112.539062 C 248.671875 112.644531 248.640625 112.753906 248.621094 112.867188 C 241.027344 154.480469 233.4375 196.089844 225.84375 237.699219 L 223.195312 237.699219 L 223.140625 239.304688 C 223.140625 239.464844 223.140625 239.636719 223.140625 239.785156 C 223.140625 241.511719 223.375 243.203125 223.84375 244.863281 C 223.863281 245.023438 223.910156 245.175781 223.976562 245.324219 C 227.101562 255.519531 238.644531 263.109375 252.371094 263.109375 C 268.492188 263.109375 281.605469 252.648438 281.605469 239.785156 C 281.605469 239.625 281.605469 239.453125 281.605469 239.304688 Z M 276.371094 237.699219 L 265.023438 237.699219 C 261.492188 204.460938 257.964844 171.222656 254.441406 137.980469 C 261.75 171.222656 269.066406 204.460938 276.386719 237.699219 Z M 262.050781 237.699219 L 251.941406 237.699219 L 251.941406 142.457031 Z M 181.777344 69.390625 C 182.050781 69.390625 182.320312 69.417969 182.585938 69.46875 C 182.851562 69.523438 183.109375 69.597656 183.359375 69.703125 C 183.609375 69.804688 183.847656 69.933594 184.074219 70.082031 C 184.296875 70.234375 184.507812 70.40625 184.699219 70.597656 C 184.890625 70.789062 185.0625 70.996094 185.210938 71.222656 C 185.363281 71.445312 185.492188 71.683594 185.59375 71.933594 C 185.699219 72.183594 185.777344 72.441406 185.832031 72.710938 C 185.882812 72.976562 185.910156 73.242188 185.910156 73.515625 C 185.910156 73.785156 185.882812 74.054688 185.832031 74.320312 C 185.78125 74.585938 185.703125 74.84375 185.597656 75.09375 C 185.496094 75.347656 185.367188 75.582031 185.21875 75.808594 C 185.066406 76.035156 184.894531 76.242188 184.703125 76.4375 C 184.511719 76.628906 184.304688 76.800781 184.078125 76.949219 C 183.855469 77.101562 183.617188 77.226562 183.367188 77.332031 C 183.117188 77.4375 182.859375 77.515625 182.59375 77.566406 C 182.328125 77.621094 182.058594 77.648438 181.789062 77.648438 C 181.515625 77.648438 181.25 77.621094 180.984375 77.566406 C 180.71875 77.515625 180.460938 77.4375 180.207031 77.332031 C 179.957031 77.230469 179.722656 77.101562 179.496094 76.953125 C 179.269531 76.800781 179.0625 76.628906 178.871094 76.4375 C 178.679688 76.246094 178.507812 76.039062 178.355469 75.8125 C 178.207031 75.585938 178.078125 75.351562 177.976562 75.097656 C 177.871094 74.847656 177.792969 74.589844 177.742188 74.324219 C 177.6875 74.058594 177.660156 73.789062 177.660156 73.519531 C 177.660156 73.25 177.6875 72.980469 177.742188 72.714844 C 177.792969 72.449219 177.871094 72.191406 177.976562 71.941406 C 178.078125 71.691406 178.207031 71.453125 178.355469 71.230469 C 178.507812 71.003906 178.679688 70.796875 178.867188 70.605469 C 179.058594 70.414062 179.269531 70.242188 179.492188 70.089844 C 179.71875 69.941406 179.953125 69.8125 180.203125 69.707031 C 180.453125 69.605469 180.710938 69.527344 180.976562 69.472656 C 181.242188 69.417969 181.507812 69.390625 181.777344 69.390625 Z M 182.742188 81.859375 C 182.730469 81.707031 182.671875 81.578125 182.558594 81.472656 C 182.445312 81.371094 182.3125 81.316406 182.160156 81.316406 C 182.007812 81.316406 181.878906 81.371094 181.765625 81.472656 C 181.652344 81.578125 181.59375 81.707031 181.582031 81.859375 C 181.542969 83.304688 181.367188 84.90625 181.496094 86.414062 C 181.035156 86.414062 180.5625 86.386719 180.085938 86.386719 L 179.566406 86.386719 L 179.566406 80.269531 C 181.160156 80.800781 182.742188 80.761719 184.308594 80.152344 L 184.308594 86.617188 C 183.820312 86.5625 183.324219 86.519531 182.820312 86.488281 C 182.960938 84.957031 182.777344 83.324219 182.742188 81.859375 Z M 180.09375 89.367188 C 189.425781 89.367188 195.929688 92.652344 195.929688 95.605469 C 195.929688 95.851562 195.882812 96.09375 195.796875 96.324219 L 164.386719 96.324219 C 164.300781 96.09375 164.253906 95.851562 164.253906 95.605469 C 164.253906 92.652344 170.757812 89.367188 180.085938 89.367188 Z M 107.671875 137.980469 L 97.070312 237.699219 L 85.738281 237.699219 C 93.050781 204.460938 100.363281 171.21875 107.671875 137.980469 Z M 110.171875 142.457031 L 110.171875 237.699219 L 100.0625 237.699219 C 103.425781 205.941406 106.796875 174.195312 110.171875 142.457031 Z M 109.769531 260.125 C 98.144531 260.125 88.269531 254.25 84.820312 246.128906 L 134.710938 246.128906 C 131.277344 254.25 121.386719 260.125 109.769531 260.125 Z M 135.660156 243.148438 L 83.875 243.148438 C 83.699219 242.332031 83.589844 241.511719 83.546875 240.679688 L 136 240.679688 C 135.949219 241.511719 135.835938 242.332031 135.660156 243.148438 Z M 133.265625 237.699219 L 122.125 237.699219 C 119.453125 205.277344 117.734375 172.785156 115.5 140.332031 C 121.410156 172.785156 127.335938 205.242188 133.265625 237.699219 Z M 119.164062 237.699219 L 113.148438 237.699219 L 113.148438 149.710938 C 115.097656 179.042969 116.734375 208.398438 119.148438 237.699219 Z M 216.566406 294.539062 C 218.5 293.269531 218.796875 291.886719 218.273438 290.5625 L 222.347656 291.222656 C 224.078125 291.511719 229.457031 292.175781 226.929688 295.023438 C 223.832031 298.507812 217.78125 300.554688 213.546875 302.035156 C 208.449219 303.828125 203.21875 305.03125 197.855469 305.648438 C 192.792969 306.222656 187.914062 305.910156 182.851562 305.742188 C 177.789062 305.578125 172.835938 306.308594 167.761719 305.878906 C 162.433594 305.433594 157.21875 304.40625 152.121094 302.796875 C 147.34375 301.28125 142.46875 299.34375 138.34375 296.441406 C 137.109375 295.574219 134.402344 293.949219 137.460938 291.980469 C 138.230469 291.484375 139.78125 291.519531 140.65625 291.375 L 145.128906 290.628906 C 145.109375 290.691406 145.082031 290.753906 145.066406 290.816406 C 143.882812 295.347656 153.324219 297.316406 156.167969 298.152344 C 162.671875 300.058594 169.75 300.980469 176.519531 300.222656 C 183.371094 299.453125 190.140625 300.847656 197.007812 300.109375 C 200.351562 299.757812 203.640625 299.132812 206.875 298.230469 C 209.984375 297.359375 213.789062 296.339844 216.535156 294.539062 Z M 187.199219 253.664062 C 190.179688 265.542969 198.363281 275.265625 207.019531 283.542969 C 208.066406 284.542969 209.125 285.53125 210.195312 286.507812 C 211.078125 287.316406 212.542969 288.296875 213.589844 289.296875 C 213.695312 289.503906 213.847656 289.664062 214.050781 289.773438 C 214.210938 289.953125 214.355469 290.140625 214.484375 290.339844 C 214.894531 290.976562 215.660156 290.789062 215.035156 291.96875 C 214.871094 292.269531 213.527344 292.707031 213.15625 292.871094 C 211.203125 293.71875 209.207031 294.445312 207.167969 295.042969 C 200.222656 297.132812 193.144531 297.824219 185.929688 297.117188 C 179.425781 296.492188 173.039062 297.871094 166.523438 297.1875 C 163.101562 296.816406 159.75 296.128906 156.457031 295.125 C 154.925781 294.660156 153.417969 294.132812 151.925781 293.546875 C 150.167969 292.847656 147.507812 292.394531 149.050781 290.367188 C 149.234375 290.136719 149.433594 289.914062 149.644531 289.707031 C 149.710938 289.652344 149.769531 289.59375 149.820312 289.53125 C 150.78125 288.605469 152.007812 287.761719 152.917969 286.933594 C 154.128906 285.828125 155.328125 284.710938 156.515625 283.582031 C 158.957031 281.261719 161.320312 278.84375 163.542969 276.308594 C 167.464844 271.839844 170.996094 266.957031 173.507812 261.550781 C 179.160156 249.378906 177.949219 235.3125 178.230469 222.222656 C 178.921875 189.644531 179.316406 157.058594 179.417969 124.46875 C 179.789062 124.46875 180.164062 124.484375 180.539062 124.484375 C 181.773438 124.484375 182.972656 124.433594 184.132812 124.328125 C 184.21875 153.210938 184.539062 182.089844 185.09375 210.964844 C 185.230469 218.261719 185.386719 225.546875 185.554688 232.824219 C 185.707031 239.753906 185.5 246.886719 187.199219 253.664062 Z M 180.53125 121.5 C 171.199219 121.5 164.695312 118.214844 164.695312 115.261719 C 164.695312 115.035156 164.734375 114.816406 164.808594 114.601562 C 170.441406 114.691406 176.242188 114.742188 182.125 114.742188 C 186.90625 114.742188 191.621094 114.710938 196.261719 114.644531 C 196.328125 114.84375 196.359375 115.046875 196.363281 115.253906 C 196.363281 118.214844 189.859375 121.5 180.53125 121.5 Z M 242.964844 109.699219 C 230.324219 110.71875 214.738281 111.390625 197.984375 111.652344 L 197.921875 111.5625 L 164.558594 111.5625 C 164.429688 111.5625 164.304688 111.5625 164.179688 111.546875 L 163.1875 111.480469 L 163.105469 111.597656 C 147.535156 111.304688 133.113281 110.65625 121.269531 109.699219 C 101.890625 108.132812 96.308594 106.335938 94.738281 105.539062 C 96.308594 104.742188 101.890625 102.941406 121.269531 101.378906 C 137.835938 100.050781 159.433594 99.300781 182.113281 99.300781 C 204.792969 99.300781 226.398438 100.039062 242.953125 101.378906 C 262.335938 102.941406 267.914062 104.742188 269.488281 105.539062 C 267.921875 106.332031 262.34375 108.132812 242.964844 109.699219 Z M 248.964844 149.710938 L 248.964844 237.699219 L 242.964844 237.699219 C 245.375 208.398438 247.011719 179.042969 248.964844 149.710938 Z M 246.625 140.328125 C 244.375 172.78125 242.648438 205.273438 240 237.695312 L 228.859375 237.695312 C 234.785156 205.242188 240.707031 172.789062 246.625 140.328125 Z M 252.347656 260.125 C 240.722656 260.125 230.847656 254.246094 227.398438 246.125 L 277.289062 246.125 C 273.839844 254.25 263.964844 260.128906 252.347656 260.128906 Z M 278.238281 243.144531 L 226.453125 243.144531 C 226.277344 242.332031 226.167969 241.507812 226.125 240.675781 L 278.578125 240.675781 C 278.527344 241.507812 278.414062 242.332031 278.238281 243.148438 Z M 278.238281 243.144531 " fill-opacity="1" fill-rule="nonzero"/></g><path fill="rgb(0%, 0%, 0%)" d="M 89.289062 247.714844 C 93.8125 248.136719 98.359375 248.144531 102.898438 248.1875 C 107.042969 248.222656 111.359375 248.554688 115.457031 247.855469 C 115.710938 247.777344 115.839844 247.605469 115.839844 247.339844 C 115.839844 247.070312 115.710938 246.898438 115.457031 246.820312 C 111.359375 246.136719 107.039062 246.464844 102.898438 246.488281 C 98.359375 246.53125 93.8125 246.539062 89.289062 246.957031 C 89.183594 246.957031 89.097656 246.992188 89.023438 247.066406 C 88.949219 247.140625 88.910156 247.230469 88.910156 247.335938 C 88.910156 247.441406 88.949219 247.53125 89.023438 247.605469 C 89.097656 247.679688 89.183594 247.714844 89.289062 247.714844 Z M 89.289062 247.714844 " fill-opacity="1" fill-rule="nonzero"/><path fill="rgb(0%, 0%, 0%)" d="M 101.765625 248.878906 C 98.097656 248.125 93.871094 248.636719 90.152344 248.789062 C 90 248.796875 89.875 248.859375 89.773438 248.96875 C 89.671875 249.082031 89.617188 249.210938 89.617188 249.363281 C 89.617188 249.511719 89.671875 249.644531 89.773438 249.753906 C 89.875 249.867188 90 249.925781 90.152344 249.9375 C 93.875 250.085938 98.101562 250.601562 101.765625 249.84375 C 102.003906 249.773438 102.125 249.613281 102.125 249.363281 C 102.125 249.113281 102.003906 248.953125 101.765625 248.878906 Z M 101.765625 248.878906 " fill-opacity="1" fill-rule="nonzero"/><path fill="rgb(0%, 0%, 0%)" d="M 105.84375 258.71875 C 111.277344 259.09375 116.5 258.21875 121.511719 256.097656 C 125.289062 254.535156 130.3125 252.160156 131.6875 247.953125 C 131.964844 247.101562 130.820312 246.792969 130.363281 247.394531 C 124.6875 254.765625 114.789062 257.277344 105.84375 257.824219 C 105.722656 257.824219 105.617188 257.867188 105.527344 257.953125 C 105.441406 258.039062 105.398438 258.144531 105.398438 258.269531 C 105.398438 258.394531 105.441406 258.5 105.527344 258.585938 C 105.617188 258.675781 105.722656 258.71875 105.84375 258.71875 Z M 105.84375 258.71875 " fill-opacity="1" fill-rule="nonzero"/><path fill="rgb(0%, 0%, 0%)" d="M 232.816406 247.929688 C 237.332031 248.351562 241.882812 248.355469 246.417969 248.398438 C 250.566406 248.4375 254.878906 248.765625 258.980469 248.066406 C 259.238281 247.992188 259.367188 247.816406 259.367188 247.550781 C 259.367188 247.285156 259.238281 247.109375 258.980469 247.035156 C 254.878906 246.347656 250.558594 246.679688 246.417969 246.703125 C 241.882812 246.742188 237.335938 246.75 232.816406 247.167969 C 232.710938 247.167969 232.621094 247.207031 232.546875 247.28125 C 232.472656 247.355469 232.4375 247.445312 232.4375 247.550781 C 232.4375 247.652344 232.472656 247.742188 232.546875 247.816406 C 232.621094 247.890625 232.710938 247.929688 232.816406 247.929688 Z M 232.816406 247.929688 " fill-opacity="1" fill-rule="nonzero"/><path fill="rgb(0%, 0%, 0%)" d="M 245.289062 249.082031 C 241.621094 248.328125 237.394531 248.839844 233.675781 248.988281 C 233.523438 249 233.398438 249.0625 233.296875 249.171875 C 233.191406 249.285156 233.140625 249.414062 233.140625 249.566406 C 233.140625 249.714844 233.191406 249.847656 233.296875 249.957031 C 233.398438 250.066406 233.523438 250.128906 233.675781 250.140625 C 237.398438 250.289062 241.625 250.804688 245.289062 250.046875 C 245.527344 249.976562 245.648438 249.8125 245.648438 249.566406 C 245.648438 249.316406 245.527344 249.15625 245.289062 249.082031 Z M 245.289062 249.082031 " fill-opacity="1" fill-rule="nonzero"/><path fill="rgb(0%, 0%, 0%)" d="M 249.367188 258.933594 C 254.796875 259.304688 260.019531 258.429688 265.035156 256.308594 C 268.8125 254.746094 273.835938 252.375 275.210938 248.167969 C 275.488281 247.316406 274.339844 247.007812 273.882812 247.605469 C 268.207031 254.976562 258.3125 257.496094 249.367188 258.035156 C 249.25 258.042969 249.152344 258.09375 249.074219 258.179688 C 248.996094 258.265625 248.957031 258.367188 248.957031 258.484375 C 248.957031 258.601562 248.996094 258.703125 249.074219 258.789062 C 249.152344 258.875 249.25 258.921875 249.367188 258.933594 Z M 249.367188 258.933594 " fill-opacity="1" fill-rule="nonzero"/><path fill="rgb(0%, 0%, 0%)" d="M 185.398438 256.839844 C 186.933594 263.90625 189.875 270.320312 194.226562 276.089844 C 196.332031 278.871094 198.761719 281.351562 201.183594 283.851562 C 204 286.753906 206.714844 289.992188 209.929688 292.453125 C 210.449219 292.851562 211.21875 292.066406 210.835938 291.546875 C 206.605469 285.789062 200.566406 281.464844 196.09375 275.894531 C 191.496094 270.136719 188.222656 263.707031 186.273438 256.597656 C 186.238281 256.480469 186.167969 256.394531 186.058594 256.332031 C 185.953125 256.273438 185.839844 256.261719 185.71875 256.292969 C 185.601562 256.328125 185.511719 256.394531 185.449219 256.503906 C 185.386719 256.609375 185.371094 256.722656 185.398438 256.839844 Z M 185.398438 256.839844 " fill-opacity="1" fill-rule="nonzero"/><path fill="rgb(0%, 0%, 0%)" d="M 198.402344 284.261719 C 195.363281 281.175781 192.570312 277.597656 190.582031 273.742188 C 190.320312 273.234375 189.609375 273.679688 189.828125 274.183594 C 191.535156 278.035156 193.769531 281.550781 196.527344 284.734375 C 199.101562 287.789062 202.160156 291.542969 205.6875 293.476562 C 206.289062 293.808594 207.109375 293.109375 206.683594 292.480469 C 204.550781 289.335938 201.0625 286.960938 198.402344 284.261719 Z M 198.402344 284.261719 " fill-opacity="1" fill-rule="nonzero"/><path fill="rgb(0%, 0%, 0%)" d="M 197.207031 288.871094 C 195.539062 287.328125 193.964844 285.691406 192.488281 283.960938 C 192.132812 283.535156 191.425781 284.085938 191.726562 284.550781 C 192.964844 286.539062 194.382812 288.386719 195.988281 290.09375 C 197.3125 291.472656 199.207031 293.742188 201.167969 294.109375 C 201.429688 294.152344 201.640625 294.070312 201.800781 293.859375 C 201.964844 293.648438 201.988281 293.421875 201.878906 293.179688 C 200.96875 291.460938 198.628906 290.214844 197.207031 288.871094 Z M 197.207031 288.871094 " fill-opacity="1" fill-rule="nonzero"/><path fill="rgb(0%, 0%, 0%)" d="M 195.179688 292.589844 C 194.347656 291.742188 193.574219 290.84375 192.859375 289.890625 C 192.492188 289.386719 191.671875 289.832031 192.007812 290.390625 C 192.625 291.453125 193.304688 292.476562 194.042969 293.457031 C 194.648438 294.246094 195.390625 295.265625 196.394531 295.519531 C 196.480469 295.542969 196.5625 295.542969 196.648438 295.519531 C 196.734375 295.496094 196.808594 295.453125 196.871094 295.390625 C 196.933594 295.328125 196.976562 295.253906 197 295.167969 C 197.023438 295.082031 197.023438 294.996094 197.003906 294.910156 C 196.734375 293.976562 195.835938 293.28125 195.179688 292.589844 Z M 195.179688 292.589844 " fill-opacity="1" fill-rule="nonzero"/><path fill="rgb(0%, 0%, 0%)" d="M 187.503906 290.402344 C 186.589844 288.742188 185.527344 287.175781 184.328125 285.710938 C 183.886719 285.183594 182.953125 285.890625 183.371094 286.449219 C 184.597656 288.109375 185.46875 289.929688 186.425781 291.753906 C 187.167969 293.171875 187.921875 295.238281 189.40625 295.980469 C 189.613281 296.097656 189.808594 296.082031 189.996094 295.9375 C 190.183594 295.792969 190.246094 295.609375 190.191406 295.378906 C 189.917969 293.683594 188.355469 291.898438 187.503906 290.402344 Z M 187.503906 290.402344 " fill-opacity="1" fill-rule="nonzero"/><path fill="rgb(0%, 0%, 0%)" d="M 184.441406 290.992188 C 184.023438 290.285156 183.058594 290.902344 183.371094 291.621094 C 183.679688 292.339844 184 293.082031 184.34375 293.800781 C 184.675781 294.464844 184.898438 295.125 185.5 295.582031 C 185.890625 295.871094 186.4375 295.476562 186.433594 295.042969 C 186.433594 294.3125 185.96875 293.675781 185.628906 293.054688 C 185.246094 292.351562 184.847656 291.671875 184.441406 290.992188 Z M 184.441406 290.992188 " fill-opacity="1" fill-rule="nonzero"/><path fill="rgb(0%, 0%, 0%)" d="M 184.363281 272.835938 C 184.226562 268.855469 182.253906 264.511719 181.167969 260.6875 C 181.113281 260.527344 181.015625 260.410156 180.867188 260.332031 C 180.722656 260.253906 180.570312 260.238281 180.410156 260.28125 C 180.25 260.324219 180.125 260.417969 180.039062 260.5625 C 179.953125 260.703125 179.929688 260.855469 179.96875 261.019531 C 180.816406 264.847656 181.378906 269.691406 183.441406 273.085938 C 183.570312 273.296875 183.757812 273.371094 183.996094 273.304688 C 184.234375 273.242188 184.359375 273.085938 184.363281 272.835938 Z M 184.363281 272.835938 " fill-opacity="1" fill-rule="nonzero"/><path fill="rgb(0%, 0%, 0%)" d="M 180 266.820312 C 179.726562 266.089844 178.570312 266.378906 178.8125 267.152344 C 179.183594 268.34375 179.550781 269.535156 179.925781 270.726562 C 180.253906 271.792969 180.53125 272.976562 181.210938 273.875 C 181.507812 274.265625 182.203125 274.179688 182.203125 273.609375 C 182.203125 272.46875 181.710938 271.398438 181.320312 270.34375 Z M 180 266.820312 " fill-opacity="1" fill-rule="nonzero"/><path fill="rgb(0%, 0%, 0%)" d="M 198.074219 302.554688 C 203.238281 302.171875 208.191406 301.425781 213.105469 299.753906 C 216.207031 298.699219 220.925781 297.359375 222.089844 293.917969 C 222.15625 293.671875 222.089844 293.46875 221.886719 293.308594 C 221.683594 293.148438 221.46875 293.132812 221.242188 293.257812 C 219.761719 294.226562 218.546875 295.472656 216.9375 296.277344 C 214.914062 297.296875 212.707031 297.972656 210.550781 298.648438 C 206.433594 299.984375 202.238281 300.996094 197.964844 301.683594 C 197.480469 301.769531 197.589844 302.589844 198.074219 302.554688 Z M 198.074219 302.554688 " fill-opacity="1" fill-rule="nonzero"/><path fill="rgb(0%, 0%, 0%)" d="M 165.132812 302.109375 C 160.878906 300.785156 156.207031 300.828125 151.863281 299.59375 C 147.78125 298.433594 142.21875 296.972656 140.128906 292.875 C 139.839844 292.308594 139.0625 292.808594 139.292969 293.363281 C 141.046875 297.515625 145.347656 299.214844 149.304688 300.71875 C 153.878906 302.449219 160.214844 304.398438 165.132812 303.277344 C 165.734375 303.128906 165.675781 302.277344 165.132812 302.109375 Z M 165.132812 302.109375 " fill-opacity="1" fill-rule="nonzero"/><path fill="rgb(0%, 0%, 0%)" d="M 182.398438 227.242188 C 182.5 231.03125 182.628906 234.820312 182.871094 238.597656 C 183.089844 241.972656 183.023438 245.65625 183.945312 248.921875 C 183.980469 249.03125 184.046875 249.117188 184.144531 249.179688 C 184.242188 249.242188 184.347656 249.261719 184.460938 249.246094 C 184.574219 249.230469 184.671875 249.183594 184.746094 249.097656 C 184.824219 249.011719 184.867188 248.910156 184.871094 248.796875 C 185.148438 245.289062 184.421875 241.542969 184.164062 238.03125 C 183.898438 234.4375 183.660156 230.84375 183.480469 227.242188 C 183.449219 226.550781 182.382812 226.535156 182.398438 227.242188 Z M 182.398438 227.242188 " fill-opacity="1" fill-rule="nonzero"/><path fill="rgb(0%, 0%, 0%)" d="M 182.085938 221.019531 C 182.09375 221.121094 182.136719 221.207031 182.210938 221.277344 C 182.289062 221.347656 182.378906 221.378906 182.480469 221.378906 C 182.582031 221.378906 182.671875 221.347656 182.746094 221.277344 C 182.824219 221.207031 182.867188 221.121094 182.875 221.019531 C 183.429688 212.8125 183.183594 204.441406 183.207031 196.21875 C 183.230469 187.996094 183.261719 179.6875 183.054688 171.421875 C 183.054688 171.261719 183 171.128906 182.886719 171.015625 C 182.777344 170.90625 182.640625 170.851562 182.484375 170.851562 C 182.328125 170.851562 182.191406 170.90625 182.082031 171.015625 C 181.96875 171.128906 181.914062 171.261719 181.914062 171.421875 C 181.703125 179.6875 181.742188 187.953125 181.761719 196.21875 C 181.78125 204.484375 181.53125 212.8125 182.085938 221.019531 Z M 182.085938 221.019531 " fill-opacity="1" fill-rule="nonzero"/><path fill="rgb(0%, 0%, 0%)" d="M 183.136719 141.734375 C 183.503906 137.738281 183.242188 133.679688 183.160156 129.671875 C 183.152344 129.5625 183.105469 129.46875 183.023438 129.394531 C 182.941406 129.320312 182.847656 129.28125 182.734375 129.28125 C 182.625 129.28125 182.527344 129.320312 182.445312 129.394531 C 182.363281 129.46875 182.320312 129.5625 182.308594 129.671875 C 182.230469 133.679688 181.976562 137.738281 182.335938 141.734375 C 182.335938 141.847656 182.375 141.941406 182.453125 142.019531 C 182.53125 142.097656 182.625 142.136719 182.738281 142.136719 C 182.847656 142.136719 182.941406 142.097656 183.019531 142.019531 C 183.097656 141.941406 183.136719 141.847656 183.136719 141.734375 Z M 183.136719 141.734375 " fill-opacity="1" fill-rule="nonzero"/><path fill="rgb(0%, 0%, 0%)" d="M 193.839844 115.847656 C 190.855469 115.148438 187.46875 115.5625 184.398438 115.570312 C 180.910156 115.570312 177.421875 115.609375 173.933594 115.699219 C 173.757812 115.699219 173.609375 115.757812 173.488281 115.882812 C 173.363281 116.007812 173.300781 116.15625 173.300781 116.332031 C 173.300781 116.503906 173.363281 116.65625 173.488281 116.777344 C 173.609375 116.902344 173.757812 116.964844 173.933594 116.964844 C 177.421875 117.046875 180.910156 117.078125 184.398438 117.085938 C 187.480469 117.085938 190.832031 117.519531 193.839844 116.8125 C 194.078125 116.738281 194.195312 116.578125 194.195312 116.328125 C 194.195312 116.078125 194.078125 115.917969 193.839844 115.847656 Z M 193.839844 115.847656 " fill-opacity="1" fill-rule="nonzero"/><path fill="rgb(0%, 0%, 0%)" d="M 189.230469 118.078125 C 187.761719 117.628906 186.164062 117.800781 184.636719 117.816406 C 182.898438 117.835938 181.160156 117.890625 179.417969 117.949219 C 179.273438 117.960938 179.152344 118.019531 179.054688 118.125 C 178.957031 118.230469 178.90625 118.355469 178.90625 118.5 C 178.90625 118.644531 178.957031 118.769531 179.054688 118.875 C 179.152344 118.984375 179.273438 119.042969 179.417969 119.054688 C 181.160156 119.109375 182.898438 119.164062 184.636719 119.183594 C 186.167969 119.183594 187.753906 119.378906 189.230469 118.921875 C 189.4375 118.855469 189.539062 118.714844 189.539062 118.5 C 189.539062 118.28125 189.4375 118.140625 189.230469 118.078125 Z M 189.230469 118.078125 " fill-opacity="1" fill-rule="nonzero"/><path fill="rgb(0%, 0%, 0%)" d="M 205.792969 104.578125 C 201.070312 103.898438 196.160156 104.25 191.398438 104.25 L 176.566406 104.292969 C 166.558594 104.320312 156.285156 103.726562 146.3125 104.640625 C 146.179688 104.652344 146.066406 104.707031 145.972656 104.804688 C 145.882812 104.90625 145.835938 105.023438 145.835938 105.160156 C 145.835938 105.292969 145.882812 105.410156 145.972656 105.511719 C 146.066406 105.613281 146.179688 105.667969 146.3125 105.675781 C 156.285156 106.589844 166.558594 106.007812 176.566406 106.007812 L 191.398438 106.050781 C 196.15625 106.050781 201.074219 106.398438 205.792969 105.71875 C 206.363281 105.652344 206.363281 104.664062 205.792969 104.578125 Z M 205.792969 104.578125 " fill-opacity="1" fill-rule="nonzero"/><path fill="rgb(0%, 0%, 0%)" d="M 257.679688 104.390625 C 250.84375 103.519531 243.617188 104.117188 236.730469 104.117188 C 229.742188 104.117188 222.757812 104.164062 215.773438 104.398438 C 215.617188 104.398438 215.480469 104.453125 215.371094 104.566406 C 215.257812 104.675781 215.203125 104.808594 215.203125 104.96875 C 215.203125 105.125 215.257812 105.261719 215.371094 105.371094 C 215.480469 105.484375 215.617188 105.539062 215.773438 105.539062 C 222.757812 105.769531 229.742188 105.816406 236.730469 105.816406 C 243.617188 105.816406 250.84375 106.417969 257.679688 105.542969 C 257.839844 105.542969 257.976562 105.488281 258.085938 105.375 C 258.199219 105.261719 258.257812 105.128906 258.257812 104.96875 C 258.257812 104.808594 258.199219 104.671875 258.085938 104.558594 C 257.976562 104.449219 257.839844 104.390625 257.679688 104.390625 Z M 257.679688 104.390625 " fill-opacity="1" fill-rule="nonzero"/><path fill="rgb(0%, 0%, 0%)" d="M 244.957031 107.3125 C 240.984375 106.792969 236.859375 107.042969 232.851562 107.046875 C 228.847656 107.050781 224.761719 106.96875 220.75 107.359375 C 220.625 107.367188 220.519531 107.421875 220.433594 107.511719 C 220.347656 107.605469 220.304688 107.714844 220.304688 107.839844 C 220.304688 107.96875 220.347656 108.074219 220.433594 108.167969 C 220.519531 108.261719 220.625 108.3125 220.75 108.324219 C 224.761719 108.707031 228.828125 108.628906 232.851562 108.632812 C 236.878906 108.636719 240.980469 108.886719 244.957031 108.371094 C 245.097656 108.359375 245.210938 108.300781 245.304688 108.199219 C 245.398438 108.097656 245.445312 107.980469 245.445312 107.839844 C 245.445312 107.703125 245.398438 107.582031 245.304688 107.480469 C 245.210938 107.378906 245.097656 107.324219 244.957031 107.3125 Z M 244.957031 107.3125 " fill-opacity="1" fill-rule="nonzero"/><path fill="rgb(0%, 0%, 0%)" d="M 223.140625 102.449219 C 227.585938 102.683594 232.636719 103.1875 237.019531 102.363281 C 237.199219 102.308594 237.289062 102.1875 237.289062 102 C 237.289062 101.8125 237.199219 101.691406 237.019531 101.636719 C 232.632812 100.808594 227.582031 101.304688 223.140625 101.550781 C 223.027344 101.558594 222.925781 101.609375 222.847656 101.695312 C 222.769531 101.78125 222.730469 101.882812 222.730469 102 C 222.730469 102.117188 222.769531 102.21875 222.847656 102.304688 C 222.925781 102.390625 223.027344 102.4375 223.140625 102.449219 Z M 223.140625 102.449219 " fill-opacity="1" fill-rule="nonzero"/><path fill="rgb(0%, 0%, 0%)" d="M 140.191406 105.199219 C 140.328125 105.199219 140.445312 105.152344 140.542969 105.054688 C 140.640625 104.957031 140.6875 104.839844 140.6875 104.703125 C 140.6875 104.566406 140.640625 104.449219 140.542969 104.351562 C 140.445312 104.253906 140.328125 104.207031 140.191406 104.207031 C 134.433594 103.511719 128.5 103.875 122.707031 103.875 C 117.285156 103.875 111.625 103.425781 106.257812 104.234375 C 106.027344 104.304688 105.914062 104.460938 105.914062 104.699219 C 105.914062 104.941406 106.027344 105.097656 106.257812 105.167969 C 111.621094 105.980469 117.292969 105.527344 122.707031 105.53125 C 128.503906 105.542969 134.429688 105.894531 140.191406 105.199219 Z M 140.191406 105.199219 " fill-opacity="1" fill-rule="nonzero"/><path fill="rgb(0%, 0%, 0%)" d="M 141.441406 107.539062 C 137.335938 106.796875 132.929688 107.238281 128.769531 107.25 C 124.203125 107.25 119.628906 107.269531 115.0625 107.429688 C 114.9375 107.4375 114.835938 107.488281 114.75 107.582031 C 114.667969 107.671875 114.625 107.78125 114.625 107.902344 C 114.625 108.027344 114.667969 108.136719 114.75 108.226562 C 114.835938 108.320312 114.9375 108.371094 115.0625 108.378906 C 119.628906 108.535156 124.203125 108.546875 128.769531 108.558594 C 132.921875 108.558594 137.34375 109.007812 141.441406 108.265625 C 141.621094 108.210938 141.710938 108.089844 141.710938 107.902344 C 141.710938 107.714844 141.621094 107.59375 141.441406 107.539062 Z M 141.441406 107.539062 " fill-opacity="1" fill-rule="nonzero"/><path fill="rgb(0%, 0%, 0%)" d="M 141.976562 101.390625 C 137.546875 100.929688 132.890625 101.101562 128.457031 101.433594 C 128.328125 101.433594 128.214844 101.480469 128.125 101.570312 C 128.03125 101.664062 127.984375 101.773438 127.984375 101.902344 C 127.984375 102.035156 128.03125 102.144531 128.125 102.238281 C 128.214844 102.328125 128.328125 102.375 128.457031 102.375 C 132.890625 102.707031 137.546875 102.878906 141.976562 102.414062 C 142.109375 102.402344 142.222656 102.347656 142.3125 102.25 C 142.402344 102.152344 142.449219 102.035156 142.449219 101.902344 C 142.449219 101.769531 142.402344 101.652344 142.3125 101.554688 C 142.222656 101.457031 142.109375 101.402344 141.976562 101.390625 Z M 141.976562 101.390625 " fill-opacity="1" fill-rule="nonzero"/><path fill="rgb(0%, 0%, 0%)" d="M 176.546875 92.300781 C 180.339844 92.628906 184.375 92.863281 188.144531 92.398438 C 188.269531 92.398438 188.375 92.355469 188.464844 92.265625 C 188.554688 92.175781 188.597656 92.070312 188.597656 91.945312 C 188.597656 91.820312 188.554688 91.710938 188.464844 91.621094 C 188.375 91.535156 188.269531 91.488281 188.144531 91.488281 C 184.359375 91.027344 180.324219 91.257812 176.546875 91.589844 C 176.449219 91.589844 176.367188 91.625 176.296875 91.691406 C 176.226562 91.761719 176.195312 91.847656 176.195312 91.945312 C 176.195312 92.042969 176.226562 92.125 176.296875 92.195312 C 176.367188 92.265625 176.449219 92.300781 176.546875 92.300781 Z M 176.546875 92.300781 " fill-opacity="1" fill-rule="nonzero"/><path fill="rgb(0%, 0%, 0%)" d="M 180.757812 93.578125 C 180.648438 93.578125 180.554688 93.617188 180.476562 93.695312 C 180.398438 93.773438 180.359375 93.867188 180.359375 93.980469 C 180.359375 94.089844 180.398438 94.183594 180.476562 94.261719 C 180.554688 94.34375 180.648438 94.382812 180.757812 94.382812 C 184.464844 94.75 188.953125 95.226562 192.609375 94.402344 C 192.816406 94.335938 192.917969 94.195312 192.917969 93.980469 C 192.917969 93.761719 192.816406 93.625 192.609375 93.558594 C 188.953125 92.742188 184.460938 93.21875 180.757812 93.578125 Z M 180.757812 93.578125 " fill-opacity="1" fill-rule="nonzero"/><path fill="rgb(0%, 0%, 0%)" d="M 183.605469 73.070312 C 183.808594 74.03125 183.148438 74.5 182.835938 75.292969 C 182.695312 75.625 183.085938 75.875 183.371094 75.828125 C 184.425781 75.671875 184.871094 74.292969 184.800781 73.363281 C 184.707031 72.136719 183.871094 71.097656 182.980469 70.324219 C 182.621094 69.992188 181.949219 70.429688 182.269531 70.875 C 182.761719 71.550781 183.429688 72.234375 183.605469 73.070312 Z M 183.605469 73.070312 " fill-opacity="1" fill-rule="nonzero"/><path fill="rgb(0%, 0%, 0%)" d="M 146.886719 220.125 C 147.777344 220.152344 148.679688 220.238281 149.582031 220.289062 C 149.722656 220.734375 149.964844 221.113281 150.3125 221.425781 C 150.65625 221.738281 151.058594 221.941406 151.515625 222.039062 C 151.558594 223.003906 151.65625 223.976562 151.691406 224.929688 C 151.761719 226.878906 151.738281 228.816406 152.0625 230.742188 C 152.105469 230.886719 152.203125 230.960938 152.351562 230.960938 C 152.503906 230.960938 152.601562 230.886719 152.644531 230.742188 C 152.976562 228.816406 152.949219 226.878906 153.019531 224.929688 C 153.050781 223.9375 153.15625 222.941406 153.199219 221.945312 C 153.582031 221.8125 153.914062 221.597656 154.195312 221.304688 C 154.480469 221.015625 154.683594 220.675781 154.808594 220.289062 C 155.800781 220.246094 156.824219 220.140625 157.824219 220.105469 C 159.769531 220.039062 161.707031 220.0625 163.628906 219.730469 C 163.773438 219.6875 163.847656 219.589844 163.847656 219.441406 C 163.847656 219.289062 163.773438 219.191406 163.628906 219.148438 C 161.707031 218.816406 159.769531 218.847656 157.824219 218.777344 C 156.867188 218.746094 155.902344 218.644531 154.941406 218.601562 C 154.867188 218.105469 154.671875 217.667969 154.355469 217.28125 C 154.039062 216.894531 153.644531 216.617188 153.171875 216.453125 C 153.121094 215.625 153.046875 214.796875 153.019531 213.96875 C 152.949219 212.019531 152.972656 210.082031 152.644531 208.15625 C 152.601562 208.011719 152.503906 207.941406 152.351562 207.941406 C 152.203125 207.941406 152.105469 208.011719 152.0625 208.15625 C 151.730469 210.082031 151.761719 212.019531 151.691406 213.96875 C 151.664062 214.761719 151.589844 215.566406 151.542969 216.367188 C 150.992188 216.484375 150.523438 216.75 150.140625 217.164062 C 149.761719 217.574219 149.53125 218.058594 149.453125 218.617188 C 148.597656 218.667969 147.734375 218.746094 146.886719 218.777344 C 144.9375 218.847656 143.003906 218.824219 141.074219 219.148438 C 140.933594 219.191406 140.859375 219.289062 140.859375 219.441406 C 140.859375 219.589844 140.933594 219.6875 141.074219 219.730469 C 143.003906 220.078125 144.9375 220.054688 146.886719 220.125 Z M 146.886719 220.125 " fill-opacity="1" fill-rule="nonzero"/><g clip-path="url(#id2)"><path fill="rgb(0%, 0%, 0%)" d="M 305.316406 225.566406 C 303.394531 225.234375 301.453125 225.257812 299.511719 225.191406 C 298.554688 225.15625 297.589844 225.0625 296.625 225.015625 C 296.550781 224.519531 296.355469 224.078125 296.039062 223.695312 C 295.722656 223.308594 295.328125 223.03125 294.859375 222.867188 C 294.808594 222.035156 294.734375 221.207031 294.703125 220.382812 C 294.636719 218.433594 294.65625 216.496094 294.332031 214.570312 C 294.289062 214.425781 294.191406 214.355469 294.039062 214.355469 C 293.890625 214.355469 293.792969 214.425781 293.75 214.570312 C 293.417969 216.496094 293.445312 218.433594 293.378906 220.382812 C 293.347656 221.179688 293.277344 221.976562 293.226562 222.78125 C 292.675781 222.898438 292.210938 223.164062 291.828125 223.574219 C 291.445312 223.988281 291.214844 224.476562 291.140625 225.035156 C 290.28125 225.082031 289.421875 225.160156 288.574219 225.191406 C 286.625 225.257812 284.6875 225.238281 282.761719 225.566406 C 282.617188 225.609375 282.546875 225.707031 282.546875 225.855469 C 282.546875 226.007812 282.617188 226.105469 282.761719 226.148438 C 284.6875 226.480469 286.625 226.449219 288.574219 226.519531 C 289.460938 226.550781 290.367188 226.640625 291.265625 226.683594 C 291.40625 227.128906 291.652344 227.507812 291.996094 227.820312 C 292.34375 228.132812 292.742188 228.339844 293.199219 228.4375 C 293.246094 229.402344 293.34375 230.371094 293.378906 231.328125 C 293.445312 233.277344 293.425781 235.214844 293.75 237.144531 C 293.792969 237.285156 293.890625 237.359375 294.039062 237.359375 C 294.191406 237.359375 294.289062 237.285156 294.332031 237.144531 C 294.664062 235.214844 294.636719 233.277344 294.703125 231.328125 C 294.738281 230.332031 294.84375 229.335938 294.886719 228.34375 C 295.265625 228.207031 295.601562 227.992188 295.882812 227.703125 C 296.164062 227.410156 296.371094 227.070312 296.496094 226.683594 C 297.488281 226.644531 298.511719 226.539062 299.511719 226.503906 C 301.453125 226.433594 303.394531 226.457031 305.316406 226.132812 C 305.445312 226.082031 305.511719 225.984375 305.511719 225.847656 C 305.511719 225.710938 305.445312 225.617188 305.316406 225.566406 Z M 305.316406 225.566406 " fill-opacity="1" fill-rule="nonzero"/></g><path fill="rgb(0%, 0%, 0%)" d="M 225.324219 175.011719 C 223.402344 174.679688 221.464844 174.710938 219.515625 174.640625 C 218.5625 174.601562 217.597656 174.507812 216.636719 174.460938 C 216.5625 173.964844 216.367188 173.527344 216.050781 173.140625 C 215.730469 172.753906 215.335938 172.480469 214.867188 172.316406 C 214.816406 171.484375 214.738281 170.65625 214.714844 169.828125 C 214.644531 167.882812 214.667969 165.941406 214.339844 164.015625 C 214.296875 163.871094 214.199219 163.800781 214.046875 163.800781 C 213.898438 163.800781 213.800781 163.871094 213.757812 164.015625 C 213.425781 165.941406 213.453125 167.882812 213.386719 169.828125 C 213.359375 170.625 213.285156 171.425781 213.234375 172.226562 C 212.6875 172.34375 212.21875 172.609375 211.835938 173.023438 C 211.453125 173.4375 211.226562 173.921875 211.148438 174.480469 C 210.289062 174.53125 209.429688 174.609375 208.582031 174.640625 C 206.632812 174.710938 204.699219 174.6875 202.769531 175.011719 C 202.625 175.054688 202.554688 175.152344 202.554688 175.300781 C 202.554688 175.453125 202.625 175.550781 202.769531 175.59375 C 204.699219 175.925781 206.632812 175.894531 208.582031 175.964844 C 209.472656 176 210.375 176.085938 211.273438 176.132812 C 211.417969 176.578125 211.660156 176.957031 212.007812 177.269531 C 212.351562 177.582031 212.753906 177.789062 213.210938 177.886719 C 213.253906 178.851562 213.351562 179.820312 213.386719 180.777344 C 213.453125 182.722656 213.429688 184.664062 213.757812 186.589844 C 213.800781 186.734375 213.898438 186.804688 214.046875 186.804688 C 214.199219 186.804688 214.296875 186.734375 214.339844 186.589844 C 214.671875 184.664062 214.644531 182.722656 214.714844 180.777344 C 214.746094 179.78125 214.851562 178.789062 214.894531 177.792969 C 215.273438 177.65625 215.609375 177.445312 215.890625 177.152344 C 216.175781 176.859375 216.378906 176.523438 216.503906 176.136719 C 217.496094 176.09375 218.519531 175.988281 219.515625 175.953125 C 221.464844 175.882812 223.398438 175.90625 225.324219 175.582031 C 225.457031 175.53125 225.523438 175.4375 225.523438 175.296875 C 225.523438 175.15625 225.457031 175.0625 225.324219 175.011719 Z M 225.324219 175.011719 " fill-opacity="1" fill-rule="nonzero"/><path fill="rgb(0%, 0%, 0%)" d="M 217.160156 79.605469 C 217.503906 79.605469 217.84375 79.574219 218.175781 79.507812 C 218.511719 79.441406 218.835938 79.34375 219.152344 79.210938 C 219.46875 79.082031 219.769531 78.921875 220.050781 78.730469 C 220.335938 78.542969 220.601562 78.324219 220.839844 78.082031 C 221.082031 77.84375 221.296875 77.578125 221.488281 77.296875 C 221.679688 77.011719 221.839844 76.710938 221.96875 76.394531 C 222.101562 76.078125 222.199219 75.753906 222.265625 75.417969 C 222.332031 75.082031 222.367188 74.746094 222.367188 74.402344 C 222.367188 74.0625 222.332031 73.722656 222.265625 73.386719 C 222.199219 73.050781 222.101562 72.726562 221.972656 72.410156 C 221.839844 72.09375 221.679688 71.792969 221.492188 71.511719 C 221.300781 71.226562 221.085938 70.960938 220.84375 70.722656 C 220.601562 70.480469 220.339844 70.261719 220.054688 70.074219 C 219.769531 69.882812 219.472656 69.722656 219.15625 69.59375 C 218.839844 69.460938 218.515625 69.363281 218.179688 69.296875 C 217.84375 69.230469 217.507812 69.195312 217.164062 69.195312 C 216.824219 69.195312 216.484375 69.230469 216.152344 69.296875 C 215.816406 69.363281 215.492188 69.460938 215.175781 69.589844 C 214.859375 69.722656 214.558594 69.882812 214.277344 70.074219 C 213.992188 70.261719 213.730469 70.476562 213.488281 70.71875 C 213.246094 70.960938 213.03125 71.222656 212.839844 71.507812 C 212.652344 71.792969 212.492188 72.09375 212.359375 72.410156 C 212.230469 72.722656 212.128906 73.050781 212.0625 73.386719 C 211.996094 73.71875 211.964844 74.058594 211.964844 74.402344 C 211.964844 74.742188 211.996094 75.082031 212.0625 75.414062 C 212.132812 75.75 212.230469 76.078125 212.359375 76.390625 C 212.492188 76.707031 212.652344 77.007812 212.839844 77.292969 C 213.03125 77.574219 213.246094 77.839844 213.488281 78.078125 C 213.726562 78.320312 213.992188 78.539062 214.273438 78.726562 C 214.558594 78.917969 214.859375 79.078125 215.171875 79.207031 C 215.488281 79.339844 215.8125 79.4375 216.148438 79.503906 C 216.484375 79.574219 216.820312 79.605469 217.160156 79.605469 Z M 217.160156 70.984375 C 217.613281 70.984375 218.050781 71.070312 218.46875 71.246094 C 218.890625 71.417969 219.257812 71.664062 219.578125 71.984375 C 219.898438 72.304688 220.148438 72.675781 220.320312 73.09375 C 220.492188 73.511719 220.582031 73.949219 220.582031 74.402344 C 220.582031 74.855469 220.496094 75.292969 220.320312 75.710938 C 220.148438 76.132812 219.902344 76.5 219.582031 76.820312 C 219.261719 77.140625 218.890625 77.390625 218.472656 77.5625 C 218.054688 77.734375 217.617188 77.824219 217.164062 77.824219 C 216.710938 77.824219 216.273438 77.734375 215.855469 77.5625 C 215.4375 77.386719 215.070312 77.140625 214.75 76.820312 C 214.429688 76.5 214.179688 76.128906 214.007812 75.710938 C 213.835938 75.289062 213.75 74.855469 213.75 74.402344 C 213.75 73.949219 213.835938 73.511719 214.011719 73.09375 C 214.183594 72.675781 214.429688 72.308594 214.75 71.988281 C 215.070312 71.667969 215.4375 71.421875 215.855469 71.246094 C 216.273438 71.074219 216.710938 70.988281 217.160156 70.984375 Z M 217.160156 70.984375 " fill-opacity="1" fill-rule="nonzero"/><path fill="rgb(0%, 0%, 0%)" d="M 291.265625 177.832031 C 291.265625 177.492188 291.230469 177.152344 291.164062 176.816406 C 291.097656 176.484375 291 176.15625 290.867188 175.839844 C 290.738281 175.527344 290.578125 175.226562 290.386719 174.941406 C 290.199219 174.660156 289.984375 174.394531 289.742188 174.152344 C 289.5 173.914062 289.238281 173.695312 288.953125 173.507812 C 288.667969 173.316406 288.371094 173.15625 288.054688 173.027344 C 287.738281 172.894531 287.414062 172.796875 287.078125 172.730469 C 286.746094 172.664062 286.40625 172.628906 286.066406 172.628906 C 285.722656 172.628906 285.386719 172.664062 285.050781 172.730469 C 284.71875 172.796875 284.390625 172.894531 284.078125 173.027344 C 283.761719 173.15625 283.460938 173.316406 283.179688 173.507812 C 282.894531 173.695312 282.632812 173.914062 282.390625 174.152344 C 282.148438 174.394531 281.933594 174.660156 281.742188 174.941406 C 281.554688 175.226562 281.394531 175.527344 281.261719 175.839844 C 281.132812 176.15625 281.035156 176.484375 280.96875 176.816406 C 280.902344 177.152344 280.867188 177.492188 280.867188 177.832031 C 280.867188 178.175781 280.902344 178.511719 280.96875 178.847656 C 281.035156 179.183594 281.132812 179.507812 281.261719 179.824219 C 281.394531 180.140625 281.554688 180.4375 281.742188 180.722656 C 281.933594 181.007812 282.148438 181.269531 282.390625 181.511719 C 282.632812 181.753906 282.894531 181.96875 283.179688 182.15625 C 283.460938 182.347656 283.761719 182.507812 284.078125 182.640625 C 284.390625 182.769531 284.71875 182.867188 285.050781 182.933594 C 285.386719 183 285.722656 183.035156 286.066406 183.035156 C 286.40625 183.035156 286.746094 183 287.078125 182.933594 C 287.414062 182.867188 287.738281 182.769531 288.054688 182.636719 C 288.371094 182.507812 288.667969 182.347656 288.953125 182.15625 C 289.238281 181.96875 289.5 181.75 289.742188 181.511719 C 289.980469 181.269531 290.195312 181.007812 290.386719 180.722656 C 290.578125 180.4375 290.738281 180.136719 290.867188 179.824219 C 290.996094 179.507812 291.097656 179.183594 291.164062 178.847656 C 291.230469 178.511719 291.265625 178.175781 291.265625 177.832031 Z M 282.648438 177.832031 C 282.648438 177.378906 282.738281 176.945312 282.910156 176.527344 C 283.082031 176.105469 283.328125 175.738281 283.648438 175.417969 C 283.96875 175.097656 284.339844 174.851562 284.757812 174.675781 C 285.175781 174.503906 285.609375 174.417969 286.0625 174.417969 C 286.515625 174.417969 286.949219 174.503906 287.367188 174.675781 C 287.785156 174.851562 288.15625 175.097656 288.476562 175.417969 C 288.796875 175.738281 289.042969 176.105469 289.214844 176.527344 C 289.386719 176.945312 289.476562 177.378906 289.476562 177.832031 C 289.476562 178.285156 289.386719 178.722656 289.214844 179.140625 C 289.042969 179.558594 288.796875 179.925781 288.476562 180.246094 C 288.15625 180.566406 287.785156 180.8125 287.367188 180.988281 C 286.949219 181.160156 286.515625 181.246094 286.0625 181.246094 C 285.609375 181.246094 285.175781 181.160156 284.757812 180.984375 C 284.339844 180.8125 283.972656 180.566406 283.652344 180.246094 C 283.332031 179.925781 283.085938 179.554688 282.914062 179.136719 C 282.742188 178.71875 282.652344 178.285156 282.652344 177.832031 Z M 282.648438 177.832031 " fill-opacity="1" fill-rule="nonzero"/><path fill="rgb(0%, 0%, 0%)" d="M 102.125 285.476562 C 101.785156 285.476562 101.445312 285.511719 101.109375 285.578125 C 100.777344 285.644531 100.449219 285.742188 100.136719 285.875 C 99.820312 286.003906 99.519531 286.164062 99.238281 286.355469 C 98.953125 286.542969 98.691406 286.761719 98.449219 287 C 98.207031 287.242188 97.992188 287.507812 97.800781 287.789062 C 97.613281 288.074219 97.453125 288.375 97.324219 288.691406 C 97.191406 289.003906 97.09375 289.332031 97.027344 289.664062 C 96.960938 290 96.925781 290.339844 96.925781 290.679688 C 96.925781 291.023438 96.960938 291.359375 97.027344 291.695312 C 97.09375 292.03125 97.191406 292.355469 97.324219 292.671875 C 97.453125 292.988281 97.613281 293.285156 97.800781 293.570312 C 97.992188 293.855469 98.207031 294.117188 98.449219 294.359375 C 98.691406 294.601562 98.953125 294.816406 99.238281 295.007812 C 99.519531 295.195312 99.820312 295.355469 100.136719 295.488281 C 100.449219 295.617188 100.777344 295.714844 101.109375 295.78125 C 101.445312 295.847656 101.785156 295.882812 102.125 295.882812 C 102.464844 295.882812 102.804688 295.847656 103.140625 295.78125 C 103.472656 295.714844 103.796875 295.617188 104.113281 295.488281 C 104.429688 295.355469 104.730469 295.195312 105.011719 295.007812 C 105.296875 294.816406 105.558594 294.601562 105.800781 294.359375 C 106.042969 294.117188 106.257812 293.855469 106.445312 293.570312 C 106.636719 293.285156 106.796875 292.988281 106.925781 292.671875 C 107.058594 292.355469 107.15625 292.03125 107.222656 291.695312 C 107.289062 291.359375 107.324219 291.023438 107.324219 290.679688 C 107.324219 290.339844 107.289062 290 107.222656 289.667969 C 107.15625 289.332031 107.054688 289.007812 106.925781 288.691406 C 106.792969 288.375 106.632812 288.074219 106.445312 287.792969 C 106.253906 287.507812 106.039062 287.246094 105.796875 287.003906 C 105.558594 286.761719 105.292969 286.546875 105.011719 286.355469 C 104.726562 286.167969 104.429688 286.007812 104.113281 285.875 C 103.796875 285.746094 103.472656 285.644531 103.136719 285.578125 C 102.804688 285.511719 102.464844 285.480469 102.125 285.476562 Z M 102.125 294.097656 C 101.671875 294.097656 101.238281 294.011719 100.820312 293.839844 C 100.402344 293.664062 100.03125 293.417969 99.710938 293.097656 C 99.390625 292.777344 99.144531 292.410156 98.972656 291.992188 C 98.800781 291.570312 98.710938 291.136719 98.710938 290.683594 C 98.710938 290.230469 98.800781 289.796875 98.972656 289.375 C 99.144531 288.957031 99.390625 288.589844 99.710938 288.269531 C 100.03125 287.949219 100.402344 287.703125 100.820312 287.527344 C 101.238281 287.355469 101.671875 287.269531 102.125 287.269531 C 102.578125 287.269531 103.011719 287.355469 103.429688 287.527344 C 103.847656 287.703125 104.21875 287.949219 104.539062 288.269531 C 104.859375 288.589844 105.105469 288.957031 105.277344 289.375 C 105.449219 289.796875 105.539062 290.230469 105.539062 290.683594 C 105.535156 291.136719 105.449219 291.570312 105.277344 291.988281 C 105.101562 292.40625 104.855469 292.777344 104.535156 293.09375 C 104.214844 293.414062 103.847656 293.660156 103.429688 293.835938 C 103.011719 294.007812 102.578125 294.09375 102.125 294.09375 Z M 102.125 294.097656 " fill-opacity="1" fill-rule="nonzero"/><path fill="rgb(0%, 0%, 0%)" d="M 253.035156 281.851562 C 252.695312 281.851562 252.355469 281.882812 252.019531 281.949219 C 251.6875 282.015625 251.359375 282.117188 251.046875 282.246094 C 250.730469 282.378906 250.429688 282.539062 250.148438 282.726562 C 249.863281 282.917969 249.601562 283.132812 249.359375 283.375 C 249.117188 283.617188 248.902344 283.878906 248.714844 284.164062 C 248.523438 284.445312 248.363281 284.746094 248.234375 285.0625 C 248.101562 285.378906 248.003906 285.703125 247.9375 286.039062 C 247.871094 286.375 247.835938 286.710938 247.835938 287.054688 C 247.835938 287.394531 247.871094 287.734375 247.9375 288.066406 C 248.003906 288.402344 248.101562 288.726562 248.234375 289.042969 C 248.363281 289.359375 248.523438 289.660156 248.714844 289.941406 C 248.902344 290.226562 249.117188 290.488281 249.359375 290.730469 C 249.601562 290.972656 249.863281 291.1875 250.148438 291.378906 C 250.429688 291.570312 250.730469 291.730469 251.046875 291.859375 C 251.359375 291.988281 251.6875 292.089844 252.019531 292.15625 C 252.355469 292.222656 252.695312 292.253906 253.035156 292.253906 C 253.375 292.253906 253.714844 292.222656 254.050781 292.15625 C 254.382812 292.089844 254.710938 291.988281 255.023438 291.859375 C 255.339844 291.730469 255.640625 291.570312 255.921875 291.378906 C 256.207031 291.1875 256.46875 290.972656 256.710938 290.730469 C 256.953125 290.488281 257.167969 290.226562 257.355469 289.941406 C 257.546875 289.660156 257.707031 289.359375 257.835938 289.042969 C 257.96875 288.726562 258.066406 288.402344 258.132812 288.066406 C 258.199219 287.734375 258.234375 287.394531 258.234375 287.054688 C 258.234375 286.710938 258.199219 286.375 258.132812 286.039062 C 258.066406 285.703125 257.964844 285.378906 257.835938 285.0625 C 257.707031 284.746094 257.542969 284.449219 257.355469 284.164062 C 257.164062 283.878906 256.949219 283.617188 256.707031 283.375 C 256.46875 283.136719 256.207031 282.917969 255.921875 282.730469 C 255.636719 282.539062 255.339844 282.378906 255.023438 282.25 C 254.707031 282.117188 254.382812 282.019531 254.050781 281.953125 C 253.714844 281.886719 253.375 281.851562 253.035156 281.851562 Z M 253.035156 290.472656 C 252.582031 290.472656 252.148438 290.386719 251.730469 290.210938 C 251.3125 290.039062 250.941406 289.792969 250.621094 289.472656 C 250.300781 289.152344 250.054688 288.78125 249.882812 288.363281 C 249.710938 287.945312 249.621094 287.507812 249.621094 287.054688 C 249.621094 286.605469 249.710938 286.167969 249.882812 285.75 C 250.054688 285.332031 250.300781 284.960938 250.621094 284.640625 C 250.941406 284.320312 251.3125 284.074219 251.730469 283.902344 C 252.148438 283.726562 252.582031 283.640625 253.035156 283.640625 C 253.488281 283.640625 253.921875 283.726562 254.339844 283.902344 C 254.757812 284.074219 255.128906 284.320312 255.449219 284.640625 C 255.769531 284.960938 256.015625 285.332031 256.1875 285.75 C 256.359375 286.167969 256.449219 286.605469 256.449219 287.054688 C 256.445312 287.507812 256.359375 287.945312 256.183594 288.359375 C 256.011719 288.777344 255.765625 289.148438 255.445312 289.46875 C 255.125 289.785156 254.757812 290.035156 254.339844 290.207031 C 253.921875 290.378906 253.488281 290.46875 253.035156 290.46875 Z M 253.035156 290.472656 " fill-opacity="1" fill-rule="nonzero"/><g clip-path="url(#id3)"><path fill="rgb(0%, 0%, 0%)" d="M 74.867188 166.597656 C 74.523438 166.59375 74.183594 166.628906 73.851562 166.695312 C 73.515625 166.761719 73.191406 166.859375 72.875 166.992188 C 72.558594 167.121094 72.257812 167.28125 71.976562 167.472656 C 71.691406 167.660156 71.429688 167.875 71.1875 168.117188 C 70.945312 168.359375 70.730469 168.621094 70.539062 168.90625 C 70.347656 169.191406 70.1875 169.492188 70.058594 169.808594 C 69.925781 170.121094 69.828125 170.449219 69.761719 170.785156 C 69.695312 171.117188 69.660156 171.457031 69.660156 171.800781 C 69.660156 172.140625 69.695312 172.480469 69.761719 172.816406 C 69.828125 173.152344 69.925781 173.476562 70.054688 173.792969 C 70.1875 174.109375 70.347656 174.40625 70.535156 174.691406 C 70.726562 174.976562 70.941406 175.238281 71.183594 175.480469 C 71.425781 175.722656 71.6875 175.9375 71.972656 176.128906 C 72.257812 176.320312 72.554688 176.480469 72.871094 176.609375 C 73.1875 176.742188 73.511719 176.839844 73.847656 176.90625 C 74.183594 176.972656 74.519531 177.007812 74.863281 177.007812 C 75.203125 177.007812 75.542969 176.972656 75.875 176.90625 C 76.210938 176.839844 76.535156 176.742188 76.851562 176.609375 C 77.167969 176.480469 77.46875 176.320312 77.75 176.128906 C 78.035156 175.941406 78.296875 175.722656 78.539062 175.484375 C 78.78125 175.242188 78.996094 174.976562 79.1875 174.695312 C 79.375 174.410156 79.535156 174.109375 79.667969 173.792969 C 79.796875 173.476562 79.898438 173.152344 79.964844 172.816406 C 80.03125 172.480469 80.0625 172.144531 80.0625 171.800781 C 80.0625 171.460938 80.03125 171.121094 79.964844 170.785156 C 79.894531 170.453125 79.796875 170.125 79.667969 169.8125 C 79.535156 169.496094 79.375 169.195312 79.1875 168.910156 C 78.996094 168.628906 78.78125 168.363281 78.539062 168.121094 C 78.300781 167.882812 78.035156 167.664062 77.753906 167.476562 C 77.46875 167.285156 77.167969 167.125 76.855469 166.992188 C 76.539062 166.863281 76.214844 166.765625 75.878906 166.695312 C 75.542969 166.628906 75.207031 166.597656 74.867188 166.597656 Z M 74.867188 175.214844 C 74.414062 175.21875 73.976562 175.128906 73.558594 174.957031 C 73.140625 174.785156 72.769531 174.539062 72.449219 174.21875 C 72.128906 173.894531 71.878906 173.527344 71.707031 173.109375 C 71.535156 172.6875 71.445312 172.253906 71.445312 171.800781 C 71.445312 171.34375 71.53125 170.910156 71.707031 170.492188 C 71.878906 170.070312 72.125 169.703125 72.445312 169.382812 C 72.765625 169.058594 73.136719 168.8125 73.554688 168.640625 C 73.972656 168.464844 74.410156 168.378906 74.863281 168.378906 C 75.316406 168.378906 75.753906 168.464844 76.171875 168.640625 C 76.589844 168.8125 76.957031 169.0625 77.277344 169.382812 C 77.597656 169.703125 77.847656 170.074219 78.019531 170.492188 C 78.191406 170.910156 78.277344 171.347656 78.277344 171.800781 C 78.277344 172.253906 78.191406 172.691406 78.015625 173.109375 C 77.84375 173.527344 77.597656 173.894531 77.277344 174.214844 C 76.957031 174.535156 76.589844 174.78125 76.171875 174.957031 C 75.753906 175.128906 75.316406 175.214844 74.867188 175.214844 Z M 74.867188 175.214844 " fill-opacity="1" fill-rule="nonzero"/></g></svg>