<svg xmlns="http://www.w3.org/2000/svg" xmlns:xlink="http://www.w3.org/1999/xlink" width="500" zoomAndPan="magnify" viewBox="0 0 375 374.999991" height="500" preserveAspectRatio="xMidYMid meet" version="1.0"><defs><clipPath id="id1"><path d="M 228 53.367188 L 255 53.367188 L 255 80 L 228 80 Z M 228 53.367188 " clip-rule="nonzero"/></clipPath><clipPath id="id2"><path d="M 276 109 L 288.777344 109 L 288.777344 122 L 276 122 Z M 276 109 " clip-rule="nonzero"/></clipPath></defs><path fill="rgb(70.199585%, 85.488892%, 86.268616%)" d="M 250.773438 103.808594 C 246.832031 107.683594 242.847656 111.519531 238.859375 115.355469 C 215.433594 137.890625 191.90625 160.316406 168.277344 182.636719 C 157.703125 192.6875 147.128906 202.746094 136.5625 212.804688 C 132.382812 216.792969 127.808594 220.625 123.835938 224.890625 C 124.375 225.496094 124.90625 226.105469 125.433594 226.726562 C 130.253906 221.558594 135.835938 216.898438 140.914062 212.058594 C 164.390625 189.683594 187.886719 167.332031 211.394531 145.003906 C 221.847656 135.046875 232.277344 125.070312 242.6875 115.070312 C 246.023438 111.84375 249.359375 108.605469 252.695312 105.351562 C 253.679688 104.378906 254.667969 103.414062 255.628906 102.417969 C 255.902344 102.132812 257.015625 100.804688 256.628906 101.382812 C 256.765625 101.171875 256.941406 101 257.152344 100.863281 C 257.199219 100.34375 257.238281 99.820312 257.273438 99.300781 C 256.617188 99.300781 255.960938 99.300781 255.296875 99.300781 C 254 100.945312 252.238281 102.367188 250.773438 103.808594 Z M 250.773438 103.808594 " fill-opacity="1" fill-rule="nonzero"/><path fill="rgb(70.199585%, 85.488892%, 86.268616%)" d="M 126.867188 230.167969 C 126.8125 230.253906 126.753906 230.335938 126.6875 230.40625 C 126.6875 230.425781 126.6875 230.441406 126.6875 230.457031 C 126.121094 234.8125 125.554688 239.167969 124.992188 243.519531 C 124.710938 245.699219 124.429688 247.875 124.144531 250.050781 L 123.808594 252.660156 C 123.71875 253.3125 123.632812 253.96875 123.550781 254.621094 C 123.550781 254.621094 123.550781 254.644531 123.550781 254.65625 L 123.578125 254.65625 L 124.542969 254.007812 C 125.339844 253.460938 126.128906 252.90625 126.914062 252.339844 C 128.519531 251.175781 130.09375 249.96875 131.632812 248.71875 C 134.484375 246.390625 137.210938 243.929688 139.8125 241.332031 C 145.039062 236.113281 152.144531 229.445312 153.492188 221.902344 C 154.195312 217.96875 154.355469 213.90625 154.957031 209.945312 C 155.351562 207.332031 155.800781 204.726562 156.265625 202.125 C 150.933594 207.195312 145.605469 212.261719 140.28125 217.332031 C 135.859375 221.546875 130.984375 225.609375 126.867188 230.167969 Z M 127.011719 247.492188 C 126.828125 248.855469 126.832031 250.355469 126.230469 251.601562 C 126.128906 251.769531 125.980469 251.84375 125.785156 251.816406 C 125.589844 251.792969 125.464844 251.683594 125.410156 251.496094 C 125.203125 250.242188 125.550781 249.019531 125.722656 247.789062 C 125.953125 246.238281 126.261719 244.703125 126.648438 243.1875 C 126.714844 242.992188 126.84375 242.910156 127.046875 242.9375 C 127.246094 242.964844 127.351562 243.082031 127.363281 243.28125 C 127.320312 244.691406 127.203125 246.09375 127.011719 247.492188 Z M 127.671875 241.03125 C 127.621094 237.332031 127.695312 233.640625 127.699219 229.945312 C 127.699219 229.292969 128.636719 229.320312 128.6875 229.945312 C 129.109375 233.6875 129.03125 237.417969 128.449219 241.136719 C 128.375 241.589844 127.679688 241.460938 127.671875 241.03125 Z M 129.292969 248.191406 C 129.046875 248.765625 128.082031 248.46875 128.125 247.878906 C 128.574219 241.429688 130.09375 235.328125 129.925781 228.796875 C 129.902344 227.960938 131.148438 227.984375 131.203125 228.796875 C 131.652344 235.007812 131.796875 242.339844 129.292969 248.191406 Z M 138.640625 222.367188 C 139.375 224.921875 140.230469 228.054688 139.695312 230.71875 C 139.632812 230.9375 139.484375 231.050781 139.253906 231.050781 C 139.019531 231.050781 138.875 230.9375 138.808594 230.71875 C 138.25 228.054688 138.390625 225.289062 137.785156 222.601562 C 137.765625 222.488281 137.785156 222.382812 137.84375 222.285156 C 137.90625 222.1875 137.992188 222.121094 138.105469 222.089844 C 138.214844 222.058594 138.324219 222.070312 138.425781 222.125 C 138.527344 222.179688 138.601562 222.257812 138.640625 222.367188 Z M 133.976562 245.890625 C 133.8125 246.597656 132.882812 246.34375 132.808594 245.734375 C 132.433594 242.570312 132.890625 239.25 132.890625 236.058594 C 132.890625 232.871094 132.835938 229.617188 132.855469 226.390625 C 132.855469 225.894531 133.679688 225.765625 133.75 226.273438 C 134.585938 232.414062 135.40625 239.808594 133.976562 245.890625 Z M 137.667969 241.824219 C 137.589844 242.375 136.667969 242.355469 136.574219 241.824219 C 135.519531 236.132812 135.882812 229.933594 135.40625 224.140625 C 135.359375 223.578125 136.304688 223.453125 136.390625 224.007812 C 137.28125 229.714844 138.492188 236.082031 137.667969 241.828125 Z M 139.671875 239.238281 C 139.617188 239.421875 139.496094 239.515625 139.300781 239.515625 C 139.109375 239.515625 138.988281 239.421875 138.933594 239.238281 C 138.65625 238.300781 138.769531 237.300781 138.769531 236.324219 C 138.769531 235.226562 138.84375 234.136719 138.910156 233.050781 C 138.910156 232.953125 138.941406 232.871094 139.011719 232.804688 C 139.078125 232.734375 139.160156 232.699219 139.257812 232.699219 C 139.355469 232.699219 139.4375 232.734375 139.507812 232.804688 C 139.574219 232.871094 139.609375 232.953125 139.609375 233.050781 C 139.851562 234.945312 140.300781 237.394531 139.671875 239.246094 Z M 153.632812 207.398438 C 153.921875 208.199219 154.398438 209.09375 154.179688 209.960938 C 154.160156 210.023438 154.125 210.082031 154.078125 210.125 C 154.03125 210.171875 153.976562 210.203125 153.914062 210.222656 C 153.847656 210.238281 153.785156 210.238281 153.71875 210.222656 C 153.65625 210.203125 153.601562 210.171875 153.554688 210.128906 C 152.875 209.558594 152.738281 208.515625 152.503906 207.710938 C 152.292969 206.988281 153.382812 206.703125 153.632812 207.402344 Z M 152.308594 208.84375 C 152.894531 210.0625 153.636719 211.597656 153.460938 212.984375 C 153.410156 213.363281 152.832031 213.667969 152.621094 213.207031 C 152.058594 211.957031 151.949219 210.492188 151.464844 209.199219 C 151.28125 208.710938 152.082031 208.382812 152.308594 208.847656 Z M 151.042969 211.207031 C 151.902344 213.867188 153.046875 217.71875 152.191406 220.496094 C 152.128906 220.695312 151.992188 220.796875 151.777344 220.796875 C 151.566406 220.796875 151.429688 220.695312 151.363281 220.496094 C 150.980469 219.195312 151.105469 217.804688 150.980469 216.460938 C 150.804688 214.777344 150.53125 213.109375 150.152344 211.457031 C 150.117188 211.335938 150.128906 211.21875 150.195312 211.105469 C 150.257812 210.996094 150.347656 210.921875 150.472656 210.886719 C 150.59375 210.851562 150.710938 210.867188 150.824219 210.929688 C 150.933594 210.992188 151.007812 211.085938 151.042969 211.207031 Z M 148.980469 213.277344 C 150.542969 218.097656 151.707031 223.992188 149.871094 228.898438 C 149.84375 228.992188 149.789062 229.070312 149.707031 229.125 C 149.621094 229.179688 149.53125 229.199219 149.429688 229.183594 C 149.332031 229.171875 149.25 229.128906 149.183594 229.054688 C 149.117188 228.976562 149.082031 228.890625 149.082031 228.789062 C 148.753906 223.585938 149.199219 218.742188 147.796875 213.601562 C 147.601562 212.835938 148.738281 212.53125 148.980469 213.277344 Z M 146.59375 215.632812 C 148.128906 220.460938 147.726562 226.414062 146.949219 231.355469 C 146.875 231.832031 146.128906 231.699219 146.132812 231.246094 C 146.179688 226.058594 145.363281 220.949219 145.320312 215.804688 C 145.316406 215.054688 146.375 214.953125 146.59375 215.632812 Z M 143.921875 218.050781 C 146.058594 222.429688 145.574219 228.582031 144.835938 233.261719 C 144.742188 233.851562 143.738281 233.707031 143.800781 233.121094 C 144.074219 230.648438 144.132812 228.167969 143.972656 225.679688 C 143.800781 223.179688 142.996094 220.804688 142.875 218.332031 C 142.847656 217.792969 143.675781 217.550781 143.921875 218.050781 Z M 141.402344 219.664062 C 143.507812 224.925781 142.867188 231.589844 141.878906 237.039062 C 141.824219 237.351562 141.320312 237.273438 141.335938 236.96875 C 141.613281 231.140625 140.457031 225.558594 140.414062 219.796875 C 140.410156 219.191406 141.203125 219.171875 141.402344 219.664062 Z M 141.402344 219.664062 " fill-opacity="1" fill-rule="nonzero"/><path fill="rgb(70.199585%, 85.488892%, 86.268616%)" d="M 135.285156 209.328125 C 128.527344 208.730469 122.148438 208.074219 115.34375 208.894531 C 114.660156 208.976562 114.511719 207.816406 115.179688 207.699219 C 121.894531 206.535156 129.3125 206.074219 135.949219 207.917969 C 136.15625 207.972656 136.300781 208.101562 136.382812 208.292969 C 136.652344 208.042969 136.925781 207.792969 137.1875 207.539062 C 141.566406 203.371094 145.945312 199.210938 150.324219 195.058594 C 147.820312 195.410156 145.320312 195.746094 142.816406 196.03125 C 138.691406 196.507812 134.488281 196.53125 130.382812 197.113281 C 122.878906 198.175781 116 204.988281 110.652344 209.9375 C 107.953125 212.4375 105.390625 215.070312 102.957031 217.828125 C 101.679688 219.277344 100.441406 220.761719 99.238281 222.28125 C 98.488281 223.21875 97.757812 224.195312 97.046875 225.171875 C 96.964844 225.285156 96.882812 225.402344 96.796875 225.519531 C 98.328125 225.167969 100.507812 225.378906 101.875 225.253906 L 108.441406 224.65625 L 120.507812 223.5625 C 124.976562 218.5 130.285156 213.957031 135.285156 209.328125 Z M 136.980469 206.695312 C 135.445312 206.933594 133.980469 206.472656 132.453125 206.25 C 130.285156 205.9375 128.09375 205.804688 125.914062 205.625 C 125.519531 205.59375 125.367188 204.957031 125.816406 204.886719 C 127.808594 204.566406 129.8125 204.476562 131.828125 204.613281 C 133.59375 204.71875 135.597656 204.742188 137.105469 205.71875 C 137.460938 205.9375 137.472656 206.621094 136.96875 206.695312 Z M 126.347656 199.324219 C 131.695312 198.226562 138.484375 196.660156 143.859375 197.960938 C 144.367188 198.082031 144.402344 198.929688 143.859375 199.027344 C 141.375 199.484375 138.8125 199.203125 136.289062 199.308594 C 133.046875 199.460938 129.820312 199.804688 126.617188 200.34375 C 125.980469 200.453125 125.6875 199.464844 126.359375 199.324219 Z M 123.023438 202.234375 C 128.253906 201.398438 135.484375 199.605469 140.585938 201.371094 C 140.808594 201.441406 140.917969 201.589844 140.917969 201.824219 C 140.917969 202.058594 140.808594 202.207031 140.585938 202.277344 C 138 203.015625 135.136719 202.617188 132.453125 202.667969 C 129.328125 202.730469 126.246094 202.84375 123.148438 203.128906 C 122.648438 203.175781 122.535156 202.316406 123.039062 202.234375 Z M 117.371094 205.363281 C 118.054688 204.886719 118.898438 204.867188 119.707031 204.769531 C 120.75 204.640625 121.800781 204.503906 122.859375 204.355469 C 123.511719 204.265625 123.820312 205.222656 123.140625 205.371094 C 122.121094 205.601562 121.105469 205.832031 120.09375 206.082031 C 119.234375 206.292969 118.375 206.59375 117.503906 206.363281 C 117.265625 206.296875 117.136719 206.140625 117.105469 205.898438 C 117.078125 205.652344 117.171875 205.472656 117.382812 205.351562 Z M 110.96875 211.339844 C 116.429688 210.320312 122.660156 209.554688 128.121094 210.871094 C 128.894531 211.058594 128.699219 212.210938 127.941406 212.21875 C 122.269531 212.3125 116.816406 211.796875 111.128906 212.535156 C 110.453125 212.621094 110.308594 211.449219 110.980469 211.324219 Z M 108.824219 214.660156 C 114.070312 214.035156 120.585938 213.25 125.667969 215.074219 C 125.828125 215.125 125.957031 215.21875 126.046875 215.363281 C 126.136719 215.503906 126.171875 215.660156 126.148438 215.828125 C 126.125 215.996094 126.050781 216.136719 125.925781 216.246094 C 125.800781 216.359375 125.652344 216.417969 125.484375 216.425781 C 122.742188 216.546875 119.921875 215.957031 117.171875 215.800781 C 114.386719 215.664062 111.605469 215.707031 108.824219 215.929688 C 107.988281 216.003906 108.023438 214.757812 108.824219 214.660156 Z M 112.578125 223.464844 C 109.011719 224.421875 104.585938 224.140625 100.917969 223.972656 C 100.546875 223.972656 100.433594 223.378906 100.828125 223.296875 C 104.460938 222.566406 108.90625 221.769531 112.578125 222.433594 C 113.125 222.53125 113.070312 223.339844 112.578125 223.464844 Z M 119.660156 220.71875 C 117.253906 221.34375 114.679688 221.015625 112.203125 221.03125 C 109.355469 221.058594 106.507812 221.113281 103.667969 221.308594 C 102.9375 221.359375 102.960938 220.261719 103.667969 220.183594 C 108.539062 219.667969 114.894531 218.308594 119.660156 219.800781 C 119.890625 219.863281 120.007812 220.015625 120.011719 220.257812 C 120.011719 220.496094 119.898438 220.652344 119.667969 220.71875 Z M 123.234375 219.628906 C 117.140625 218.402344 111.167969 218.203125 104.976562 218.605469 C 104.257812 218.652344 104.273438 217.558594 104.976562 217.496094 C 111.191406 216.945312 117.597656 216.167969 123.683594 218 C 124.746094 218.3125 124.304688 219.839844 123.246094 219.628906 Z M 123.234375 219.628906 " fill-opacity="1" fill-rule="nonzero"/><path fill="rgb(70.199585%, 85.488892%, 86.268616%)" d="M 243.550781 90.84375 C 240.6875 92.0625 237.976562 94.0625 235.085938 95.109375 C 234.148438 95.453125 232.535156 95.765625 234.972656 95.484375 C 236.6875 95.285156 238.601562 95.550781 240.332031 95.582031 L 259.09375 95.933594 C 259.375 95.9375 259.640625 96.003906 259.886719 96.140625 C 260.183594 96.261719 260.417969 96.457031 260.582031 96.734375 C 260.75 97.007812 260.816406 97.304688 260.785156 97.625 C 260.488281 103.664062 259.371094 109.574219 258.667969 115.570312 C 258.527344 116.78125 258.402344 117.992188 258.3125 119.210938 C 258.277344 119.703125 258.253906 120.191406 258.226562 120.679688 C 258.320312 120.613281 258.421875 120.542969 258.539062 120.46875 C 259.65625 117.964844 261.585938 115.628906 262.847656 113.164062 C 268.03125 103.046875 272.308594 92.09375 275.0625 81.023438 C 264.289062 83.082031 253.613281 86.554688 243.550781 90.84375 Z M 253.871094 91.738281 C 252.757812 92.476562 251.339844 92.648438 250.0625 92.992188 C 248.609375 93.367188 247.167969 93.730469 245.683594 93.996094 C 245.328125 94.058594 245.058594 93.574219 245.421875 93.371094 C 246.78125 92.636719 248.199219 92.050781 249.675781 91.609375 C 251 91.207031 252.371094 90.714844 253.742188 90.917969 C 254.191406 90.980469 254.167969 91.5625 253.886719 91.738281 Z M 261.535156 112.230469 C 261.488281 112.375 261.398438 112.488281 261.273438 112.566406 C 261.144531 112.648438 261.003906 112.679688 260.855469 112.65625 C 260.707031 112.636719 260.578125 112.570312 260.476562 112.460938 C 260.375 112.347656 260.320312 112.21875 260.316406 112.066406 C 260.164062 109.5625 260.707031 106.949219 260.96875 104.441406 C 261.199219 102.214844 261.402344 99.964844 261.789062 97.753906 C 261.882812 97.179688 262.726562 97.371094 262.746094 97.882812 C 263.054688 102.320312 262.996094 107.976562 261.550781 112.230469 Z M 264.246094 106.765625 C 264.125 106.960938 263.949219 107.046875 263.722656 107.015625 C 263.492188 106.988281 263.347656 106.863281 263.28125 106.640625 C 263.179688 106.136719 263.179688 105.632812 263.28125 105.128906 C 263.332031 104.621094 263.40625 104.125 263.484375 103.621094 C 263.554688 103.171875 264.335938 103.167969 264.398438 103.621094 C 264.558594 104.589844 264.738281 105.875 264.246094 106.765625 Z M 271.613281 85.078125 C 267.296875 86.585938 262.582031 87.011719 258.167969 88.171875 C 253.75 89.332031 249.375 90.871094 244.988281 92.238281 C 244.628906 92.351562 244.363281 91.777344 244.730469 91.613281 C 249.003906 89.78125 253.417969 88.40625 257.863281 87.027344 C 262.308594 85.648438 266.808594 83.898438 271.429688 83.585938 C 272.3125 83.523438 272.375 84.8125 271.609375 85.078125 Z M 271.613281 85.078125 " fill-opacity="1" fill-rule="nonzero"/><path fill="rgb(42.349243%, 35.688782%, 47.059631%)" d="M 282.828125 112.007812 C 282.3125 112.007812 281.820312 112.109375 281.34375 112.304688 C 280.871094 112.5 280.449219 112.78125 280.085938 113.144531 C 279.722656 113.507812 279.445312 113.925781 279.246094 114.402344 C 279.050781 114.878906 278.953125 115.371094 278.953125 115.886719 C 278.953125 116.398438 279.050781 116.894531 279.246094 117.367188 C 279.445312 117.84375 279.722656 118.261719 280.085938 118.625 C 280.449219 118.988281 280.871094 119.269531 281.34375 119.464844 C 281.820312 119.664062 282.3125 119.761719 282.828125 119.761719 C 283.339844 119.761719 283.835938 119.664062 284.308594 119.464844 C 284.785156 119.269531 285.203125 118.988281 285.566406 118.625 C 285.929688 118.261719 286.210938 117.84375 286.40625 117.367188 C 286.605469 116.894531 286.703125 116.398438 286.703125 115.886719 C 286.699219 115.371094 286.601562 114.878906 286.40625 114.402344 C 286.207031 113.929688 285.929688 113.511719 285.566406 113.148438 C 285.203125 112.785156 284.785156 112.503906 284.308594 112.304688 C 283.835938 112.109375 283.339844 112.011719 282.828125 112.007812 Z M 282.828125 112.007812 " fill-opacity="1" fill-rule="nonzero"/><path fill="rgb(42.349243%, 35.688782%, 47.059631%)" d="M 172.980469 237.546875 C 172.46875 237.546875 171.972656 237.644531 171.5 237.839844 C 171.023438 238.039062 170.605469 238.316406 170.242188 238.679688 C 169.878906 239.042969 169.597656 239.464844 169.402344 239.9375 C 169.207031 240.414062 169.109375 240.90625 169.109375 241.421875 C 169.109375 241.9375 169.207031 242.429688 169.402344 242.90625 C 169.597656 243.378906 169.878906 243.800781 170.242188 244.164062 C 170.605469 244.527344 171.023438 244.804688 171.5 245.003906 C 171.972656 245.199219 172.46875 245.296875 172.980469 245.296875 C 173.496094 245.296875 173.988281 245.199219 174.464844 245.003906 C 174.941406 244.804688 175.359375 244.527344 175.722656 244.164062 C 176.085938 243.800781 176.363281 243.378906 176.5625 242.90625 C 176.757812 242.429688 176.855469 241.9375 176.855469 241.421875 C 176.855469 240.90625 176.757812 240.414062 176.5625 239.9375 C 176.363281 239.464844 176.085938 239.046875 175.722656 238.683594 C 175.359375 238.320312 174.9375 238.039062 174.464844 237.84375 C 173.988281 237.644531 173.496094 237.546875 172.980469 237.546875 Z M 172.980469 237.546875 " fill-opacity="1" fill-rule="nonzero"/><path fill="rgb(42.349243%, 35.688782%, 47.059631%)" d="M 160.421875 146.21875 C 159.910156 146.21875 159.414062 146.316406 158.941406 146.515625 C 158.464844 146.710938 158.046875 146.992188 157.683594 147.355469 C 157.320312 147.71875 157.039062 148.136719 156.84375 148.613281 C 156.648438 149.085938 156.546875 149.582031 156.546875 150.09375 C 156.546875 150.609375 156.648438 151.101562 156.84375 151.578125 C 157.039062 152.054688 157.320312 152.472656 157.683594 152.835938 C 158.046875 153.199219 158.464844 153.480469 158.941406 153.675781 C 159.414062 153.871094 159.910156 153.972656 160.421875 153.972656 C 160.9375 153.972656 161.429688 153.871094 161.90625 153.675781 C 162.378906 153.480469 162.800781 153.199219 163.164062 152.835938 C 163.527344 152.472656 163.804688 152.054688 164.003906 151.578125 C 164.199219 151.101562 164.296875 150.609375 164.296875 150.09375 C 164.296875 149.582031 164.199219 149.085938 164 148.613281 C 163.804688 148.136719 163.523438 147.71875 163.160156 147.355469 C 162.796875 146.992188 162.378906 146.710938 161.90625 146.515625 C 161.429688 146.320312 160.9375 146.21875 160.421875 146.21875 Z M 160.421875 146.21875 " fill-opacity="1" fill-rule="nonzero"/><path fill="rgb(42.349243%, 35.688782%, 47.059631%)" d="M 119.898438 81.914062 C 120.410156 81.914062 120.90625 81.8125 121.378906 81.617188 C 121.855469 81.417969 122.273438 81.136719 122.636719 80.773438 C 123 80.410156 123.277344 79.992188 123.472656 79.515625 C 123.667969 79.042969 123.765625 78.546875 123.765625 78.035156 C 123.765625 77.519531 123.667969 77.027344 123.46875 76.550781 C 123.273438 76.078125 122.992188 75.65625 122.628906 75.292969 C 122.265625 74.933594 121.847656 74.652344 121.371094 74.457031 C 120.898438 74.257812 120.402344 74.160156 119.890625 74.160156 C 119.375 74.164062 118.882812 74.261719 118.40625 74.457031 C 117.933594 74.652344 117.515625 74.933594 117.152344 75.296875 C 116.789062 75.660156 116.507812 76.082031 116.3125 76.554688 C 116.117188 77.03125 116.015625 77.523438 116.015625 78.039062 C 116.019531 78.550781 116.117188 79.046875 116.316406 79.519531 C 116.511719 79.996094 116.792969 80.414062 117.15625 80.777344 C 117.519531 81.140625 117.941406 81.421875 118.414062 81.617188 C 118.890625 81.816406 119.382812 81.914062 119.898438 81.914062 Z M 119.898438 81.914062 " fill-opacity="1" fill-rule="nonzero"/><path fill="rgb(42.349243%, 35.688782%, 47.059631%)" d="M 217.257812 129.488281 C 209.125 119.421875 199.042969 110.53125 186.78125 106 C 180.25 103.765625 173.457031 102.710938 166.617188 101.957031 C 152.78125 100.417969 138.921875 100.207031 125.046875 101.328125 C 114.070312 102.222656 101.429688 105.238281 91.375 99.117188 C 89.300781 97.839844 87.496094 96.257812 85.953125 94.375 C 84.410156 92.492188 83.222656 90.40625 82.382812 88.121094 C 81.425781 85.496094 81.292969 82.6875 80.460938 80.039062 C 80.074219 78.804688 78.785156 75.660156 77.097656 75.429688 C 74.925781 75.140625 73.515625 79.808594 73.03125 81.292969 C 71.996094 84.285156 71.335938 87.359375 71.050781 90.511719 C 70.300781 100.011719 77.054688 109.96875 84.515625 115.226562 C 95.398438 122.84375 108.824219 121.136719 121.265625 119.714844 C 134.378906 118.199219 146.796875 118.886719 159.617188 122.109375 C 171.5 125.101562 184.296875 128.5625 194.476562 135.628906 C 197.964844 138.070312 201.265625 140.742188 204.378906 143.648438 L 207.683594 140.5 C 211.164062 137.183594 214.644531 133.867188 218.121094 130.546875 C 217.828125 130.1875 217.542969 129.84375 217.257812 129.488281 Z M 77.242188 78.964844 C 79.683594 82.089844 80.203125 86.183594 81.617188 89.804688 C 83.761719 95.285156 87.023438 98.347656 91.691406 101.660156 C 91.808594 101.742188 91.886719 101.855469 91.925781 101.996094 C 91.964844 102.136719 91.957031 102.273438 91.902344 102.410156 C 91.84375 102.542969 91.75 102.644531 91.625 102.714844 C 91.496094 102.785156 91.359375 102.808594 91.214844 102.78125 C 87.070312 101.957031 83.84375 98.019531 81.875 94.496094 C 80.777344 92.476562 79.898438 90.367188 79.234375 88.167969 C 78.335938 85.285156 78.082031 82.167969 76.472656 79.554688 C 76.175781 79.089844 76.886719 78.523438 77.242188 78.964844 Z M 76.460938 84.28125 C 77.523438 88.324219 79.847656 91.855469 81.117188 95.785156 C 81.195312 96.015625 81.132812 96.191406 80.929688 96.316406 C 80.722656 96.445312 80.535156 96.421875 80.367188 96.253906 C 77.472656 93.125 76.636719 88.5 75.988281 84.445312 C 75.917969 84.117188 76.367188 83.976562 76.453125 84.292969 Z M 75.414062 87.605469 C 75.769531 89.226562 76.226562 90.835938 76.644531 92.441406 C 76.6875 92.605469 76.628906 92.71875 76.472656 92.785156 C 76.316406 92.851562 76.199219 92.808594 76.113281 92.664062 C 75.226562 91.132812 74.695312 89.484375 74.519531 87.726562 C 74.445312 87.226562 75.296875 87.128906 75.40625 87.621094 Z M 95.269531 116.898438 C 90.265625 116.804688 85.011719 112.984375 81.527344 109.636719 C 77.402344 105.667969 74.929688 100.9375 73.511719 95.453125 C 73.488281 95.367188 73.5 95.285156 73.542969 95.207031 C 73.589844 95.128906 73.652344 95.078125 73.738281 95.054688 C 73.824219 95.03125 73.90625 95.039062 73.984375 95.085938 C 74.0625 95.128906 74.113281 95.195312 74.136719 95.28125 C 75.882812 100.175781 79.101562 104.761719 82.871094 108.296875 C 86.757812 111.941406 91.113281 113.28125 95.542969 115.902344 C 95.769531 116.042969 95.847656 116.246094 95.773438 116.5 C 95.703125 116.757812 95.535156 116.890625 95.269531 116.898438 Z M 174.238281 123.863281 C 168.746094 121.542969 163.433594 119.457031 157.542969 118.367188 C 151.902344 117.375 146.214844 116.925781 140.488281 117.027344 C 128.363281 117.128906 116.285156 118.78125 104.164062 119.25 C 103.640625 119.269531 103.660156 118.492188 104.164062 118.445312 C 117.085938 117.210938 129.855469 115.023438 142.882812 115.179688 C 153.589844 115.308594 165.761719 116.699219 175.019531 122.523438 C 175.882812 123.070312 175.121094 124.234375 174.238281 123.859375 Z M 189.5625 129.371094 C 186.746094 127.617188 184.410156 125.25 181.710938 123.34375 C 178.917969 121.410156 175.925781 119.867188 172.730469 118.71875 C 166.113281 116.273438 159.074219 114.082031 151.980469 113.921875 C 151.894531 113.921875 151.820312 113.890625 151.757812 113.828125 C 151.699219 113.769531 151.667969 113.695312 151.667969 113.609375 C 151.667969 113.523438 151.699219 113.449219 151.757812 113.386719 C 151.820312 113.324219 151.894531 113.296875 151.980469 113.296875 C 156 112.925781 159.796875 113.730469 163.714844 114.597656 C 167.089844 115.347656 170.457031 116.019531 173.71875 117.203125 C 179.878906 119.4375 186.113281 123.304688 190.214844 128.496094 C 190.59375 128.957031 190.132812 129.722656 189.554688 129.367188 Z M 196.941406 131.136719 C 193.597656 128.902344 191 125.578125 187.839844 123.058594 C 184.15625 120.113281 180.207031 117.5625 175.714844 116.042969 C 175.625 116.019531 175.558594 115.96875 175.511719 115.886719 C 175.464844 115.804688 175.457031 115.722656 175.480469 115.632812 C 175.503906 115.542969 175.558594 115.476562 175.636719 115.429688 C 175.71875 115.382812 175.804688 115.371094 175.894531 115.398438 C 180.300781 116.398438 184.3125 118.261719 187.921875 120.984375 C 191.386719 123.585938 195.3125 126.722656 197.679688 130.394531 C 197.816406 130.632812 197.785156 130.851562 197.589844 131.046875 C 197.394531 131.238281 197.175781 131.269531 196.9375 131.132812 Z M 200.136719 129.644531 C 198.394531 128.707031 197.082031 126.6875 195.683594 125.292969 C 194.09375 123.707031 192.417969 122.214844 190.652344 120.824219 C 190.203125 120.46875 190.792969 119.738281 191.277344 120.035156 C 193.238281 121.265625 195.082031 122.648438 196.808594 124.183594 C 198.273438 125.5 200.285156 127.148438 200.875 129.089844 C 200.933594 129.304688 200.871094 129.480469 200.695312 129.617188 C 200.515625 129.75 200.332031 129.761719 200.136719 129.644531 Z M 202.75 127.617188 C 201.628906 126.929688 200.761719 125.890625 199.808594 124.996094 C 198.71875 123.964844 197.5625 123.015625 196.339844 122.144531 C 195.714844 121.699219 196.277344 120.664062 196.964844 121.085938 C 199.304688 122.527344 202.34375 124.460938 203.425781 127.101562 C 203.578125 127.480469 203.054688 127.808594 202.742188 127.617188 Z M 205.949219 125.71875 C 205.871094 125.855469 205.753906 125.921875 205.59375 125.921875 C 204.621094 125.980469 204.09375 124.621094 203.445312 124.042969 C 202.933594 123.644531 202.398438 123.28125 201.84375 122.953125 C 201.304688 122.585938 200.839844 122.140625 200.316406 121.753906 C 200.027344 121.542969 200.1875 120.984375 200.578125 121.128906 C 201.902344 121.613281 203.285156 121.929688 204.410156 122.835938 C 205.140625 123.441406 206.457031 124.691406 205.9375 125.71875 Z M 208.40625 124.335938 C 208.285156 124.542969 208.109375 124.617188 207.878906 124.554688 C 207.203125 124.304688 206.984375 123.46875 206.503906 122.96875 C 205.863281 122.363281 205.160156 121.847656 204.386719 121.429688 C 203.867188 121.117188 204.320312 120.410156 204.84375 120.640625 C 205.800781 121.003906 206.679688 121.503906 207.476562 122.144531 C 208.027344 122.644531 208.863281 123.550781 208.398438 124.335938 Z M 208.40625 124.335938 " fill-opacity="1" fill-rule="nonzero"/><path fill="rgb(42.349243%, 35.688782%, 47.059631%)" d="M 269.28125 283.628906 C 267.574219 282.289062 263.75 282.925781 261.703125 282.65625 C 259.519531 282.394531 257.40625 281.855469 255.363281 281.035156 C 250.910156 279.199219 247.464844 275.855469 246.015625 271.199219 C 244.433594 266.117188 245.417969 260.609375 247.050781 255.679688 C 249.132812 249.394531 251.664062 243.460938 252.847656 236.910156 C 254.027344 230.359375 254.386719 223.695312 254.789062 217.0625 C 255.203125 210.222656 255.414062 203.394531 254.664062 196.566406 C 253.964844 190.121094 252.511719 183.847656 250.300781 177.753906 C 248.089844 171.65625 245.183594 165.914062 241.585938 160.519531 C 237.78125 154.792969 233.875 148.945312 229.539062 143.597656 C 227.835938 141.5 226.039062 139.492188 224.222656 137.488281 C 219.769531 141.75 215.308594 146.003906 210.839844 150.25 C 213.679688 153.386719 216.308594 156.6875 218.730469 160.15625 C 222.296875 165.304688 224.914062 171.226562 227.550781 176.886719 C 230.1875 182.550781 232.609375 188.355469 234.464844 194.332031 C 238.191406 206.320312 239.105469 218.585938 236.835938 230.933594 C 235.199219 239.839844 231.605469 248.449219 229.453125 257.296875 C 229.441406 257.492188 229.398438 257.679688 229.320312 257.855469 C 228.429688 261.460938 227.910156 265.121094 227.757812 268.832031 C 227.367188 281.546875 234.429688 292.960938 247.621094 294.957031 C 253.480469 295.84375 260.632812 294.792969 265.601562 291.375 C 267.308594 290.199219 271.96875 285.730469 269.28125 283.628906 Z M 250.070312 280.910156 C 251.203125 281.597656 252.402344 282.132812 253.671875 282.515625 C 254.714844 282.859375 255.949219 282.890625 256.875 283.496094 C 257.078125 283.621094 257.164062 283.804688 257.132812 284.039062 C 257.101562 284.277344 256.972656 284.429688 256.742188 284.5 C 255.519531 284.933594 253.976562 284.324219 252.824219 283.855469 C 251.574219 283.347656 250.507812 282.519531 249.46875 281.6875 C 249.027344 281.316406 249.605469 280.597656 250.070312 280.894531 Z M 247.125 280.1875 C 247.695312 280.613281 247.179688 281.570312 246.550781 281.167969 C 234.117188 273.253906 236.609375 257.1875 240.386719 245.171875 C 242.980469 236.925781 245.449219 228.886719 245.953125 220.183594 C 246.453125 211.527344 245.191406 203.0625 243 194.707031 C 242.894531 194.308594 243.453125 194.183594 243.601562 194.539062 C 249.085938 207.992188 249.203125 223.210938 245.203125 237.054688 C 241.339844 250.429688 233.019531 269.699219 247.125 280.1875 Z M 250.964844 231.847656 C 248.480469 245.992188 239.988281 260.582031 245.238281 275.058594 C 245.386719 275.460938 244.742188 275.722656 244.550781 275.351562 C 238.195312 262.925781 244.796875 249.597656 247.835938 237.242188 C 249.679688 229.859375 250.535156 222.359375 250.398438 214.75 C 250.234375 207.082031 248.582031 199.921875 246.472656 192.59375 C 246.246094 191.8125 247.476562 191.261719 247.808594 192.03125 C 253.113281 204.269531 253.234375 218.921875 250.964844 231.855469 Z M 249.546875 184.8125 C 252.382812 189.949219 252.757812 196.84375 253.382812 202.59375 C 253.433594 203.109375 252.585938 203.21875 252.484375 202.714844 C 251.339844 196.980469 248.886719 190.910156 248.609375 185.066406 C 248.625 184.820312 248.75 184.667969 248.988281 184.601562 C 249.222656 184.539062 249.410156 184.605469 249.546875 184.8125 Z M 222.074219 147.421875 C 222.929688 148.175781 223.6875 149.015625 224.347656 149.945312 C 224.949219 150.757812 225.835938 151.851562 225.980469 152.871094 C 226.023438 153.15625 225.730469 153.496094 225.429688 153.296875 C 224.613281 152.730469 224.074219 151.679688 223.5 150.878906 C 222.777344 149.914062 222.101562 148.914062 221.480469 147.878906 C 221.378906 147.691406 221.414062 147.53125 221.582031 147.402344 C 221.753906 147.269531 221.914062 147.277344 222.074219 147.421875 Z M 219.425781 148.160156 C 220.679688 149.082031 221.804688 150.136719 222.800781 151.332031 C 223.664062 152.378906 224.585938 153.476562 224.761719 154.863281 C 224.808594 155.238281 224.296875 155.273438 224.136719 155.035156 C 222.515625 152.8125 221.007812 150.671875 218.921875 148.835938 C 218.546875 148.511719 219.039062 147.867188 219.425781 148.160156 Z M 217.210938 149.542969 C 220.320312 151.148438 223.691406 154.925781 224.40625 158.4375 C 224.449219 158.613281 224.390625 158.75 224.234375 158.839844 C 224.078125 158.933594 223.929688 158.917969 223.796875 158.792969 C 222.503906 157.632812 221.703125 155.976562 220.699219 154.566406 C 219.535156 152.957031 218.1875 151.523438 216.660156 150.253906 C 216.242188 149.90625 216.777344 149.316406 217.210938 149.542969 Z M 227.84375 170.710938 C 222.6875 164.769531 220.339844 156.65625 214.289062 151.355469 C 213.996094 151.097656 214.382812 150.601562 214.703125 150.816406 C 217.644531 152.78125 219.628906 155.277344 221.539062 158.21875 C 224 161.996094 226.972656 165.878906 228.734375 170.023438 C 228.972656 170.566406 228.3125 171.246094 227.851562 170.703125 Z M 237.351562 163.730469 C 233.847656 157.519531 229.847656 151.386719 225.101562 146.0625 C 224.847656 145.777344 225.242188 145.371094 225.519531 145.640625 C 230.570312 150.664062 234.886719 156.253906 238.476562 162.40625 C 241.976562 168.3125 246.152344 174.921875 248.070312 181.558594 C 248.289062 182.308594 247.28125 182.640625 246.878906 182.0625 C 243.007812 176.507812 240.679688 169.644531 237.351562 163.730469 Z M 234.851562 249.71875 C 236.929688 242.035156 241.515625 234.101562 240.191406 225.925781 C 240.074219 225.1875 241.167969 224.851562 241.339844 225.613281 C 242.6875 231.554688 241.054688 236.953125 239.148438 242.609375 C 236.960938 249.117188 234.949219 255.796875 235.042969 262.734375 C 235.128906 268.957031 237.011719 275.449219 241.453125 279.980469 C 246.042969 284.65625 252.054688 285.960938 258.367188 285.761719 C 259.332031 285.730469 259.523438 287.207031 258.59375 287.433594 C 246.710938 290.296875 236.238281 280.765625 233.734375 269.738281 C 232.234375 263.089844 233.085938 256.222656 234.851562 249.71875 Z M 248.691406 293.28125 C 239.273438 291.921875 234.570312 284.898438 230.921875 276.8125 C 230.742188 276.40625 231.296875 276.058594 231.527344 276.457031 C 234.894531 282.292969 238.71875 288.246094 245.421875 290.535156 C 251.339844 292.554688 263.121094 292.316406 265.804688 285.414062 C 265.855469 285.257812 265.949219 285.132812 266.089844 285.046875 C 266.226562 284.957031 266.378906 284.921875 266.542969 284.945312 C 266.703125 284.96875 266.839844 285.039062 266.953125 285.160156 C 267.0625 285.285156 267.121094 285.425781 267.125 285.589844 C 267.925781 293.078125 253.386719 293.953125 248.6875 293.28125 Z M 248.691406 293.28125 " fill-opacity="1" fill-rule="nonzero"/><path fill="rgb(0%, 0%, 0%)" d="M 267.84375 279.699219 C 261.898438 278.847656 255.644531 279.355469 251.386719 274.191406 C 246.675781 268.488281 248.84375 260.464844 251.128906 254.242188 C 253.566406 247.59375 255.699219 241.183594 256.679688 234.136719 C 257.621094 227.40625 257.996094 220.597656 258.355469 213.804688 C 259.078125 200.089844 257.617188 186.210938 252.378906 173.414062 C 250.007812 167.742188 247.0625 162.386719 243.542969 157.347656 C 239.6875 151.730469 235.890625 145.953125 231.546875 140.699219 C 229.984375 138.792969 228.351562 136.925781 226.71875 135.066406 C 232.011719 130.003906 237.300781 124.933594 242.582031 119.859375 C 246.570312 116.023438 250.554688 112.1875 254.5 108.308594 C 255.125 107.683594 255.820312 107.058594 256.503906 106.433594 C 255.898438 110.886719 255.183594 115.332031 254.882812 119.824219 C 254.75 121.761719 254.414062 124.554688 256.722656 125.40625 C 259.179688 126.308594 260.703125 123.273438 261.789062 121.652344 C 265.855469 115.628906 268.6875 108.847656 271.441406 102.152344 C 274.445312 94.84375 277.070312 87.398438 278.847656 79.6875 C 278.886719 79.507812 278.898438 79.328125 278.882812 79.144531 C 278.894531 78.871094 278.84375 78.609375 278.734375 78.359375 C 278.628906 78.109375 278.472656 77.890625 278.265625 77.710938 C 278.0625 77.53125 277.828125 77.398438 277.566406 77.324219 C 277.304688 77.246094 277.039062 77.226562 276.769531 77.269531 C 269.179688 78.554688 261.789062 80.660156 254.511719 83.144531 C 247.671875 85.503906 240.710938 87.941406 234.425781 91.5625 C 232.703125 92.554688 229.503906 93.84375 229.925781 96.308594 C 230.238281 98.238281 231.941406 98.664062 233.632812 98.828125 C 239.179688 99.351562 244.871094 99.320312 250.519531 99.289062 L 248.957031 100.824219 C 245.648438 104.085938 242.3125 107.324219 238.949219 110.539062 C 232.847656 116.421875 226.730469 122.285156 220.601562 128.132812 C 219.761719 127.171875 218.925781 126.207031 218.097656 125.238281 C 214.027344 120.398438 209.5 116.03125 204.515625 112.136719 C 199.378906 108.132812 193.753906 104.996094 187.648438 102.726562 C 174.207031 98.128906 158.984375 97.398438 144.855469 97.261719 C 137.359375 97.1875 129.878906 97.5 122.414062 98.199219 C 116.097656 98.789062 109.699219 99.871094 103.335938 99.3125 C 96.546875 98.714844 90.132812 95.75 86.738281 89.570312 C 84.101562 84.78125 84.890625 78.714844 81.191406 74.457031 C 76.425781 68.96875 72.019531 74.320312 70.164062 79.234375 C 67.632812 85.921875 66.835938 92.785156 69.050781 99.652344 C 72.175781 109.351562 79.628906 117.636719 89.0625 121.550781 C 92.539062 122.964844 96.144531 123.832031 99.882812 124.15625 C 104.09375 128.96875 108.65625 133.507812 113.039062 138.15625 C 123.007812 148.726562 132.984375 159.285156 142.964844 169.839844 C 148.308594 175.492188 153.652344 181.144531 158.996094 186.792969 C 157.484375 188.234375 155.972656 189.671875 154.460938 191.109375 C 154.382812 191.109375 154.308594 191.109375 154.226562 191.109375 C 148.660156 191.910156 143.09375 192.707031 137.488281 193.183594 C 133.183594 193.546875 128.882812 193.402344 124.863281 195.203125 C 117.066406 198.703125 109.964844 205.546875 104.085938 211.605469 C 101.15625 214.628906 98.410156 217.808594 95.839844 221.144531 C 94.535156 222.839844 90.851562 226.230469 93.320312 228.441406 C 94.394531 229.40625 95.953125 229.140625 97.25 229.050781 C 99.871094 228.867188 102.496094 228.574219 105.117188 228.335938 L 120.855469 226.90625 C 120.914062 226.898438 120.972656 226.886719 121.035156 226.871094 L 121.085938 226.871094 C 121.867188 227.738281 122.628906 228.617188 123.378906 229.511719 C 123.371094 229.667969 123.386719 229.828125 123.421875 229.980469 C 123.359375 230.128906 123.320312 230.285156 123.296875 230.441406 C 122.617188 235.667969 121.941406 240.890625 121.265625 246.117188 C 120.925781 248.730469 120.550781 251.339844 120.25 253.957031 C 120.09375 255.261719 119.796875 256.773438 120.746094 257.886719 C 122.789062 260.246094 125.980469 257.101562 127.671875 255.910156 C 131.273438 253.367188 134.710938 250.625 137.992188 247.683594 C 144.265625 242.054688 151.414062 235.21875 155.164062 227.539062 C 157.09375 223.589844 157.105469 219.269531 157.636719 214.988281 C 158.332031 209.40625 159.359375 203.867188 160.375 198.335938 C 160.375 198.285156 160.375 198.238281 160.375 198.183594 C 162.023438 196.617188 163.671875 195.054688 165.320312 193.492188 C 180.292969 209.324219 195.257812 225.160156 210.214844 241.003906 C 215.441406 246.546875 220.878906 251.953125 225.929688 257.675781 C 225.1875 260.8125 224.691406 263.984375 224.445312 267.199219 C 223.660156 278.515625 227.78125 289.804688 238.207031 295.351562 C 247.160156 300.117188 260.613281 299.992188 268.667969 293.25 C 273.335938 289.34375 276.246094 280.902344 267.84375 279.699219 Z M 240.324219 95.582031 C 238.59375 95.550781 236.679688 95.269531 234.960938 95.484375 C 232.527344 95.765625 234.152344 95.453125 235.078125 95.109375 C 237.957031 94.046875 240.679688 92.0625 243.539062 90.84375 C 253.613281 86.554688 264.289062 83.082031 275.058594 81.023438 C 272.304688 92.09375 268.03125 103.046875 262.84375 113.164062 C 261.59375 115.628906 259.65625 117.972656 258.535156 120.46875 C 258.414062 120.542969 258.308594 120.613281 258.222656 120.679688 C 258.25 120.191406 258.273438 119.703125 258.308594 119.210938 C 258.402344 117.992188 258.527344 116.78125 258.667969 115.570312 C 259.367188 109.574219 260.484375 103.664062 260.78125 97.625 C 260.8125 97.304688 260.746094 97.007812 260.582031 96.734375 C 260.414062 96.457031 260.183594 96.261719 259.882812 96.140625 C 259.636719 96.003906 259.371094 95.9375 259.09375 95.933594 Z M 84.507812 115.199219 C 77.046875 109.957031 70.292969 100 71.042969 90.488281 C 71.328125 87.335938 71.988281 84.261719 73.023438 81.269531 C 73.515625 79.796875 74.925781 75.117188 77.085938 75.402344 C 78.777344 75.625 80.0625 78.777344 80.453125 80.015625 C 81.285156 82.664062 81.414062 85.46875 82.371094 88.09375 C 83.210938 90.382812 84.398438 92.472656 85.941406 94.363281 C 87.480469 96.25 89.289062 97.832031 91.367188 99.113281 C 101.417969 105.238281 114.058594 102.21875 125.035156 101.328125 C 138.914062 100.203125 152.769531 100.414062 166.609375 101.953125 C 173.449219 102.710938 180.242188 103.765625 186.773438 105.996094 C 199.035156 110.527344 209.128906 119.421875 217.246094 129.488281 C 217.53125 129.839844 217.820312 130.183594 218.109375 130.53125 C 214.632812 133.851562 211.15625 137.167969 207.675781 140.484375 L 204.371094 143.632812 C 201.257812 140.726562 197.957031 138.054688 194.46875 135.613281 C 184.285156 128.546875 171.492188 125.085938 159.605469 122.09375 C 146.785156 118.871094 134.371094 118.183594 121.253906 119.699219 C 108.824219 121.136719 95.398438 122.84375 84.507812 115.199219 Z M 118.609375 139.125 C 113.972656 134.210938 109.171875 129.394531 104.621094 124.382812 C 112.878906 124.4375 121.292969 122.84375 129.4375 122.273438 C 144.035156 121.25 158.207031 124.800781 171.996094 129.222656 C 178.738281 131.386719 185.367188 133.679688 191.339844 137.566406 C 195.136719 140.042969 198.53125 142.976562 201.773438 146.109375 C 188.339844 158.902344 174.898438 171.6875 161.453125 184.46875 C 147.167969 169.355469 132.886719 154.242188 118.609375 139.125 Z M 120.484375 223.585938 L 108.417969 224.679688 L 101.851562 225.273438 C 100.484375 225.398438 98.308594 225.191406 96.777344 225.539062 C 96.859375 225.425781 96.941406 225.304688 97.027344 225.191406 C 97.742188 224.21875 98.472656 223.25 99.214844 222.300781 C 100.414062 220.785156 101.65625 219.300781 102.9375 217.851562 C 105.367188 215.089844 107.933594 212.460938 110.628906 209.957031 C 115.972656 205.003906 122.863281 198.191406 130.363281 197.132812 C 134.464844 196.550781 138.671875 196.53125 142.796875 196.054688 C 145.296875 195.765625 147.800781 195.429688 150.300781 195.082031 C 145.921875 199.242188 141.542969 203.402344 137.167969 207.5625 C 136.902344 207.816406 136.632812 208.066406 136.363281 208.316406 C 136.277344 208.121094 136.132812 207.996094 135.929688 207.9375 C 129.289062 206.09375 121.871094 206.558594 115.15625 207.722656 C 114.492188 207.839844 114.636719 209 115.320312 208.917969 C 122.125 208.105469 128.507812 208.75 135.261719 209.347656 C 130.285156 213.957031 124.976562 218.5 120.472656 223.570312 Z M 154.976562 209.953125 C 154.375 213.914062 154.210938 217.972656 153.511719 221.910156 C 152.164062 229.464844 145.070312 236.121094 139.832031 241.335938 C 137.230469 243.929688 134.503906 246.386719 131.652344 248.707031 C 130.113281 249.957031 128.539062 251.167969 126.929688 252.328125 C 126.148438 252.894531 125.359375 253.449219 124.5625 253.996094 L 123.597656 254.648438 L 123.570312 254.648438 C 123.570312 254.648438 123.570312 254.625 123.570312 254.613281 C 123.65625 253.960938 123.742188 253.308594 123.824219 252.652344 L 124.164062 250.039062 C 124.445312 247.863281 124.726562 245.6875 125.011719 243.507812 C 125.574219 239.152344 126.140625 234.800781 126.707031 230.445312 C 126.707031 230.429688 126.707031 230.410156 126.707031 230.394531 C 126.773438 230.320312 126.832031 230.242188 126.882812 230.15625 C 131.003906 225.597656 135.878906 221.53125 140.304688 217.308594 C 145.628906 212.230469 150.957031 207.164062 156.292969 202.105469 C 155.808594 204.71875 155.355469 207.320312 154.964844 209.9375 Z M 140.925781 212.074219 C 135.847656 216.914062 130.265625 221.574219 125.445312 226.742188 C 124.921875 226.117188 124.390625 225.511719 123.847656 224.90625 C 127.8125 220.652344 132.394531 216.808594 136.574219 212.820312 C 147.132812 202.75 157.703125 192.695312 168.289062 182.652344 C 191.847656 160.261719 215.375 137.832031 238.871094 115.371094 C 242.859375 111.535156 246.84375 107.699219 250.785156 103.824219 C 252.25 102.382812 254.011719 100.953125 255.3125 99.300781 C 255.976562 99.300781 256.632812 99.300781 257.289062 99.300781 C 257.253906 99.820312 257.214844 100.347656 257.167969 100.863281 C 256.957031 101 256.78125 101.171875 256.644531 101.382812 C 257.03125 100.804688 255.917969 102.132812 255.644531 102.417969 C 254.683594 103.414062 253.695312 104.378906 252.710938 105.351562 C 249.402344 108.617188 246.066406 111.855469 242.703125 115.070312 C 232.308594 125.078125 221.878906 135.058594 211.410156 145.003906 C 187.933594 167.375 164.433594 189.726562 140.914062 212.058594 Z M 215.800781 241.988281 C 205.832031 231.421875 195.859375 220.863281 185.878906 210.308594 C 179.84375 203.925781 173.8125 197.542969 167.785156 191.164062 L 171.992188 187.152344 C 184.066406 175.679688 196.140625 164.207031 208.214844 152.726562 C 212.175781 156.972656 215.9375 161.402344 218.683594 166.554688 C 222.097656 172.886719 225.171875 179.378906 227.90625 186.03125 C 233.285156 199.308594 236.183594 213.246094 233.996094 227.578125 C 232.632812 236.507812 229.304688 245.035156 226.933594 253.742188 C 223.300781 249.746094 219.488281 245.890625 215.789062 241.972656 Z M 265.597656 291.363281 C 260.628906 294.777344 253.476562 295.832031 247.617188 294.945312 C 234.429688 292.949219 227.363281 281.535156 227.753906 268.820312 C 227.90625 265.109375 228.429688 261.449219 229.316406 257.84375 C 229.394531 257.664062 229.4375 257.480469 229.449219 257.285156 C 231.601562 248.445312 235.199219 239.828125 236.832031 230.921875 C 239.101562 218.558594 238.191406 206.292969 234.460938 194.320312 C 232.605469 188.34375 230.191406 182.546875 227.546875 176.875 C 224.90625 171.203125 222.292969 165.300781 218.726562 160.144531 C 216.304688 156.675781 213.675781 153.375 210.835938 150.238281 C 215.296875 145.988281 219.757812 141.734375 224.222656 137.476562 C 226.027344 139.476562 227.828125 141.488281 229.535156 143.585938 C 233.871094 148.925781 237.777344 154.78125 241.582031 160.503906 C 245.179688 165.898438 248.085938 171.644531 250.296875 177.742188 C 252.507812 183.835938 253.964844 190.109375 254.660156 196.554688 C 255.421875 203.382812 255.199219 210.210938 254.785156 217.050781 C 254.382812 223.683594 254.019531 230.351562 252.84375 236.898438 C 251.667969 243.445312 249.128906 249.410156 247.046875 255.667969 C 245.414062 260.597656 244.429688 266.101562 246.011719 271.1875 C 247.460938 275.84375 250.90625 279.1875 255.363281 281.023438 C 257.402344 281.84375 259.515625 282.382812 261.699219 282.644531 C 263.75 282.914062 267.570312 282.277344 269.277344 283.617188 C 271.96875 285.730469 267.308594 290.199219 265.597656 291.363281 Z M 265.597656 291.363281 " fill-opacity="1" fill-rule="nonzero"/><path fill="rgb(0%, 0%, 0%)" d="M 157.542969 118.363281 C 163.433594 119.453125 168.746094 121.539062 174.238281 123.859375 C 175.128906 124.234375 175.882812 123.070312 175.019531 122.523438 C 165.761719 116.699219 153.589844 115.308594 142.882812 115.179688 C 129.855469 115.023438 117.085938 117.222656 104.164062 118.441406 C 103.660156 118.488281 103.640625 119.265625 104.164062 119.246094 C 116.285156 118.777344 128.363281 117.125 140.488281 117.023438 C 146.214844 116.925781 151.902344 117.371094 157.542969 118.363281 Z M 157.542969 118.363281 " fill-opacity="1" fill-rule="nonzero"/><path fill="rgb(0%, 0%, 0%)" d="M 151.980469 113.921875 C 159.066406 114.089844 166.105469 116.265625 172.714844 118.714844 C 175.910156 119.867188 178.902344 121.40625 181.695312 123.339844 C 184.394531 125.246094 186.746094 127.613281 189.546875 129.367188 C 190.121094 129.726562 190.585938 128.957031 190.21875 128.5 C 186.117188 123.308594 179.898438 119.425781 173.722656 117.207031 C 170.457031 116.023438 167.089844 115.351562 163.714844 114.601562 C 159.808594 113.734375 156.003906 112.929688 151.984375 113.296875 C 151.796875 113.316406 151.699219 113.417969 151.699219 113.609375 C 151.699219 113.796875 151.792969 113.902344 151.980469 113.921875 Z M 151.980469 113.921875 " fill-opacity="1" fill-rule="nonzero"/><path fill="rgb(0%, 0%, 0%)" d="M 175.707031 116.042969 C 180.199219 117.558594 184.152344 120.109375 187.832031 123.054688 C 190.984375 125.574219 193.589844 128.898438 196.9375 131.132812 C 197.175781 131.265625 197.390625 131.234375 197.585938 131.039062 C 197.777344 130.847656 197.808594 130.628906 197.675781 130.390625 C 195.308594 126.71875 191.382812 123.582031 187.914062 120.980469 C 184.304688 118.257812 180.296875 116.394531 175.886719 115.394531 C 175.796875 115.371094 175.714844 115.378906 175.632812 115.425781 C 175.550781 115.472656 175.5 115.539062 175.476562 115.628906 C 175.449219 115.71875 175.460938 115.804688 175.507812 115.882812 C 175.550781 115.964844 175.621094 116.015625 175.707031 116.042969 Z M 175.707031 116.042969 " fill-opacity="1" fill-rule="nonzero"/><path fill="rgb(0%, 0%, 0%)" d="M 195.675781 125.292969 C 197.074219 126.6875 198.382812 128.703125 200.128906 129.644531 C 200.320312 129.753906 200.503906 129.742188 200.675781 129.605469 C 200.847656 129.472656 200.910156 129.300781 200.855469 129.089844 C 200.261719 127.148438 198.25 125.5 196.789062 124.183594 C 195.058594 122.644531 193.214844 121.257812 191.253906 120.027344 C 190.78125 119.730469 190.195312 120.457031 190.628906 120.816406 C 192.398438 122.210938 194.082031 123.703125 195.675781 125.292969 Z M 195.675781 125.292969 " fill-opacity="1" fill-rule="nonzero"/><path fill="rgb(0%, 0%, 0%)" d="M 196.328125 122.144531 C 197.550781 123.015625 198.707031 123.964844 199.796875 124.996094 C 200.75 125.890625 201.617188 126.929688 202.742188 127.617188 C 203.054688 127.808594 203.5625 127.480469 203.410156 127.101562 C 202.328125 124.460938 199.289062 122.53125 196.949219 121.085938 C 196.265625 120.652344 195.691406 121.699219 196.328125 122.144531 Z M 196.328125 122.144531 " fill-opacity="1" fill-rule="nonzero"/><path fill="rgb(0%, 0%, 0%)" d="M 95.539062 115.898438 C 91.109375 113.277344 86.753906 111.9375 82.867188 108.292969 C 79.097656 104.757812 75.878906 100.160156 74.136719 95.277344 C 74.109375 95.191406 74.058594 95.125 73.984375 95.082031 C 73.90625 95.039062 73.824219 95.027344 73.738281 95.050781 C 73.652344 95.074219 73.585938 95.125 73.539062 95.203125 C 73.496094 95.28125 73.484375 95.363281 73.507812 95.449219 C 74.925781 100.933594 77.398438 105.664062 81.523438 109.632812 C 85.007812 112.984375 90.253906 116.800781 95.265625 116.894531 C 95.53125 116.886719 95.703125 116.757812 95.773438 116.5 C 95.84375 116.242188 95.765625 116.039062 95.539062 115.898438 Z M 95.539062 115.898438 " fill-opacity="1" fill-rule="nonzero"/><path fill="rgb(0%, 0%, 0%)" d="M 79.226562 88.167969 C 79.890625 90.367188 80.769531 92.476562 81.867188 94.496094 C 83.835938 98.019531 87.0625 101.957031 91.207031 102.78125 C 91.351562 102.808594 91.484375 102.785156 91.613281 102.714844 C 91.742188 102.644531 91.835938 102.542969 91.890625 102.410156 C 91.949219 102.273438 91.957031 102.136719 91.917969 101.996094 C 91.878906 101.855469 91.800781 101.742188 91.683594 101.660156 C 87.015625 98.347656 83.753906 95.285156 81.609375 89.804688 C 80.191406 86.183594 79.671875 82.082031 77.230469 78.964844 C 76.886719 78.523438 76.175781 79.089844 76.464844 79.554688 C 78.070312 82.175781 78.324219 85.285156 79.226562 88.167969 Z M 79.226562 88.167969 " fill-opacity="1" fill-rule="nonzero"/><path fill="rgb(0%, 0%, 0%)" d="M 81.109375 95.800781 C 79.839844 91.867188 77.515625 88.335938 76.453125 84.292969 C 76.367188 83.980469 75.917969 84.117188 75.96875 84.429688 C 76.628906 88.496094 77.460938 93.09375 80.34375 96.238281 C 80.507812 96.40625 80.695312 96.433594 80.898438 96.316406 C 81.101562 96.199219 81.171875 96.027344 81.109375 95.800781 Z M 81.109375 95.800781 " fill-opacity="1" fill-rule="nonzero"/><path fill="rgb(0%, 0%, 0%)" d="M 76.632812 92.457031 C 76.21875 90.847656 75.761719 89.238281 75.40625 87.621094 C 75.296875 87.128906 74.445312 87.226562 74.511719 87.738281 C 74.6875 89.5 75.21875 91.144531 76.101562 92.675781 C 76.1875 92.824219 76.308594 92.863281 76.464844 92.796875 C 76.621094 92.734375 76.675781 92.617188 76.632812 92.457031 Z M 76.632812 92.457031 " fill-opacity="1" fill-rule="nonzero"/><path fill="rgb(0%, 0%, 0%)" d="M 201.832031 122.960938 C 202.390625 123.292969 202.925781 123.65625 203.4375 124.054688 C 204.085938 124.621094 204.613281 125.980469 205.585938 125.929688 C 205.742188 125.933594 205.863281 125.863281 205.9375 125.726562 C 206.457031 124.699219 205.140625 123.449219 204.402344 122.855469 C 203.273438 121.949219 201.898438 121.632812 200.570312 121.148438 C 200.179688 121.003906 200.019531 121.558594 200.308594 121.773438 C 200.828125 122.152344 201.296875 122.59375 201.832031 122.960938 Z M 201.832031 122.960938 " fill-opacity="1" fill-rule="nonzero"/><path fill="rgb(0%, 0%, 0%)" d="M 204.375 121.429688 C 205.148438 121.847656 205.855469 122.363281 206.492188 122.96875 C 206.972656 123.46875 207.195312 124.304688 207.867188 124.554688 C 208.101562 124.617188 208.277344 124.542969 208.398438 124.335938 C 208.863281 123.550781 208.027344 122.644531 207.460938 122.148438 C 206.660156 121.511719 205.785156 121.011719 204.828125 120.652344 C 204.308594 120.410156 203.855469 121.117188 204.375 121.429688 Z M 204.375 121.429688 " fill-opacity="1" fill-rule="nonzero"/><path fill="rgb(0%, 0%, 0%)" d="M 258.617188 287.429688 C 259.554688 287.207031 259.355469 285.726562 258.386719 285.757812 C 252.074219 285.957031 246.0625 284.652344 241.476562 279.976562 C 237.03125 275.445312 235.152344 268.953125 235.066406 262.730469 C 234.972656 255.792969 236.992188 249.113281 239.171875 242.605469 C 241.0625 236.953125 242.695312 231.566406 241.359375 225.609375 C 241.1875 224.851562 240.109375 225.1875 240.214844 225.921875 C 241.535156 234.097656 236.953125 242.03125 234.871094 249.714844 C 233.113281 256.222656 232.261719 263.085938 233.769531 269.734375 C 236.246094 280.761719 246.734375 290.292969 258.617188 287.429688 Z M 258.617188 287.429688 " fill-opacity="1" fill-rule="nonzero"/><path fill="rgb(0%, 0%, 0%)" d="M 245.203125 237.054688 C 249.203125 223.210938 249.085938 207.984375 243.601562 194.539062 C 243.453125 194.183594 242.894531 194.308594 243 194.707031 C 245.1875 203.0625 246.441406 211.527344 245.953125 220.183594 C 245.449219 228.886719 242.980469 236.925781 240.386719 245.183594 C 236.609375 257.199219 234.117188 273.261719 246.550781 281.179688 C 247.175781 281.582031 247.695312 280.625 247.125 280.199219 C 233.019531 269.699219 241.339844 250.429688 245.203125 237.054688 Z M 245.203125 237.054688 " fill-opacity="1" fill-rule="nonzero"/><path fill="rgb(0%, 0%, 0%)" d="M 246.472656 192.601562 C 248.582031 199.925781 250.222656 207.085938 250.398438 214.757812 C 250.535156 222.367188 249.679688 229.863281 247.835938 237.25 C 244.796875 249.601562 238.195312 262.929688 244.550781 275.355469 C 244.742188 275.730469 245.386719 275.46875 245.238281 275.066406 C 239.988281 260.589844 248.480469 246 250.964844 231.851562 C 253.234375 218.917969 253.113281 204.265625 247.808594 192.039062 C 247.472656 191.269531 246.246094 191.820312 246.472656 192.601562 Z M 246.472656 192.601562 " fill-opacity="1" fill-rule="nonzero"/><path fill="rgb(0%, 0%, 0%)" d="M 248.0625 181.558594 C 246.140625 174.9375 241.96875 168.3125 238.46875 162.40625 C 234.878906 156.253906 230.558594 150.664062 225.507812 145.640625 C 225.234375 145.371094 224.835938 145.777344 225.089844 146.0625 C 229.839844 151.378906 233.847656 157.519531 237.34375 163.730469 C 240.679688 169.644531 243.007812 176.507812 246.867188 182.0625 C 247.269531 182.640625 248.296875 182.308594 248.0625 181.558594 Z M 248.0625 181.558594 " fill-opacity="1" fill-rule="nonzero"/><path fill="rgb(0%, 0%, 0%)" d="M 265.808594 285.417969 C 263.121094 292.320312 251.34375 292.558594 245.425781 290.539062 C 238.726562 288.246094 234.898438 282.292969 231.527344 276.460938 C 231.300781 276.0625 230.746094 276.410156 230.925781 276.8125 C 234.570312 284.898438 239.273438 291.925781 248.695312 293.285156 C 253.386719 293.960938 267.933594 293.082031 267.144531 285.597656 C 267.15625 285.421875 267.105469 285.265625 266.992188 285.125 C 266.882812 284.988281 266.738281 284.910156 266.5625 284.886719 C 266.386719 284.859375 266.226562 284.902344 266.082031 285.003906 C 265.9375 285.105469 265.84375 285.242188 265.808594 285.417969 Z M 265.808594 285.417969 " fill-opacity="1" fill-rule="nonzero"/><path fill="rgb(0%, 0%, 0%)" d="M 252.824219 283.839844 C 253.976562 284.308594 255.519531 284.914062 256.742188 284.484375 C 256.972656 284.414062 257.101562 284.261719 257.132812 284.023438 C 257.164062 283.789062 257.078125 283.605469 256.875 283.480469 C 255.9375 282.875 254.714844 282.855469 253.671875 282.5 C 252.402344 282.117188 251.203125 281.582031 250.070312 280.894531 C 249.605469 280.597656 249.027344 281.316406 249.46875 281.671875 C 250.507812 282.503906 251.589844 283.332031 252.824219 283.839844 Z M 252.824219 283.839844 " fill-opacity="1" fill-rule="nonzero"/><path fill="rgb(0%, 0%, 0%)" d="M 253.375 202.59375 C 252.75 196.84375 252.378906 189.949219 249.542969 184.8125 C 249.40625 184.605469 249.21875 184.539062 248.980469 184.601562 C 248.742188 184.667969 248.617188 184.820312 248.601562 185.066406 C 248.894531 190.910156 251.347656 196.953125 252.488281 202.714844 C 252.578125 203.210938 253.429688 203.109375 253.375 202.59375 Z M 253.375 202.59375 " fill-opacity="1" fill-rule="nonzero"/><path fill="rgb(0%, 0%, 0%)" d="M 221.546875 158.21875 C 219.636719 155.277344 217.652344 152.78125 214.710938 150.816406 C 214.398438 150.601562 214 151.097656 214.296875 151.355469 C 220.332031 156.671875 222.695312 164.753906 227.851562 170.710938 C 228.3125 171.246094 228.972656 170.566406 228.742188 170.023438 C 226.980469 165.878906 224.003906 161.996094 221.546875 158.21875 Z M 221.546875 158.21875 " fill-opacity="1" fill-rule="nonzero"/><path fill="rgb(0%, 0%, 0%)" d="M 220.703125 154.566406 C 221.707031 155.964844 222.507812 157.632812 223.800781 158.792969 C 223.933594 158.917969 224.078125 158.933594 224.238281 158.839844 C 224.394531 158.75 224.453125 158.613281 224.410156 158.4375 C 223.691406 154.925781 220.320312 151.148438 217.214844 149.542969 C 216.78125 149.316406 216.246094 149.90625 216.664062 150.253906 C 218.191406 151.523438 219.539062 152.960938 220.703125 154.566406 Z M 220.703125 154.566406 " fill-opacity="1" fill-rule="nonzero"/><path fill="rgb(0%, 0%, 0%)" d="M 224.121094 155.035156 C 224.296875 155.273438 224.808594 155.238281 224.746094 154.863281 C 224.570312 153.476562 223.648438 152.378906 222.785156 151.332031 C 221.789062 150.136719 220.664062 149.082031 219.410156 148.160156 C 219.023438 147.867188 218.53125 148.511719 218.890625 148.835938 C 220.980469 150.683594 222.5 152.8125 224.121094 155.035156 Z M 224.121094 155.035156 " fill-opacity="1" fill-rule="nonzero"/><path fill="rgb(0%, 0%, 0%)" d="M 223.5 150.878906 C 224.074219 151.679688 224.613281 152.730469 225.429688 153.296875 C 225.742188 153.503906 226.023438 153.15625 225.980469 152.871094 C 225.835938 151.851562 224.949219 150.757812 224.347656 149.945312 C 223.6875 149.015625 222.929688 148.175781 222.074219 147.421875 C 221.914062 147.277344 221.753906 147.269531 221.582031 147.402344 C 221.414062 147.53125 221.378906 147.691406 221.480469 147.878906 C 222.101562 148.914062 222.777344 149.914062 223.5 150.878906 Z M 223.5 150.878906 " fill-opacity="1" fill-rule="nonzero"/><path fill="rgb(0%, 0%, 0%)" d="M 271.40625 83.585938 C 266.785156 83.898438 262.234375 85.667969 257.839844 87.027344 C 253.449219 88.390625 248.992188 89.78125 244.707031 91.613281 C 244.355469 91.765625 244.605469 92.34375 244.964844 92.238281 C 249.34375 90.878906 253.699219 89.34375 258.144531 88.171875 C 262.589844 87.003906 267.285156 86.585938 271.589844 85.078125 C 272.375 84.8125 272.3125 83.523438 271.40625 83.585938 Z M 271.40625 83.585938 " fill-opacity="1" fill-rule="nonzero"/><path fill="rgb(0%, 0%, 0%)" d="M 253.777344 90.917969 C 252.394531 90.714844 251.019531 91.203125 249.714844 91.609375 C 248.234375 92.046875 246.816406 92.632812 245.460938 93.367188 C 245.105469 93.5625 245.363281 94.046875 245.71875 93.996094 C 247.199219 93.726562 248.640625 93.367188 250.097656 92.988281 C 251.378906 92.660156 252.796875 92.488281 253.90625 91.734375 C 254.167969 91.5625 254.191406 90.980469 253.777344 90.917969 Z M 253.777344 90.917969 " fill-opacity="1" fill-rule="nonzero"/><path fill="rgb(0%, 0%, 0%)" d="M 261.804688 97.753906 C 261.417969 99.964844 261.214844 102.214844 260.984375 104.441406 C 260.722656 106.945312 260.179688 109.558594 260.332031 112.066406 C 260.335938 112.21875 260.390625 112.347656 260.492188 112.460938 C 260.59375 112.570312 260.722656 112.636719 260.871094 112.65625 C 261.019531 112.679688 261.160156 112.648438 261.289062 112.566406 C 261.414062 112.488281 261.503906 112.375 261.550781 112.230469 C 262.992188 107.976562 263.054688 102.320312 262.761719 97.882812 C 262.730469 97.371094 261.898438 97.191406 261.804688 97.753906 Z M 261.804688 97.753906 " fill-opacity="1" fill-rule="nonzero"/><path fill="rgb(0%, 0%, 0%)" d="M 263.492188 103.621094 C 263.414062 104.125 263.34375 104.621094 263.289062 105.128906 C 263.191406 105.632812 263.191406 106.136719 263.289062 106.640625 C 263.355469 106.863281 263.503906 106.988281 263.730469 107.015625 C 263.960938 107.046875 264.132812 106.960938 264.253906 106.765625 C 264.75 105.875 264.566406 104.578125 264.421875 103.621094 C 264.347656 103.167969 263.5625 103.171875 263.492188 103.621094 Z M 263.492188 103.621094 " fill-opacity="1" fill-rule="nonzero"/><path fill="rgb(0%, 0%, 0%)" d="M 126.648438 200.34375 C 129.851562 199.804688 133.078125 199.460938 136.320312 199.308594 C 138.84375 199.203125 141.40625 199.484375 143.890625 199.027344 C 144.433594 198.929688 144.398438 198.089844 143.890625 197.960938 C 138.503906 196.660156 131.71875 198.226562 126.378906 199.324219 C 125.6875 199.464844 125.980469 200.453125 126.648438 200.34375 Z M 126.648438 200.34375 " fill-opacity="1" fill-rule="nonzero"/><path fill="rgb(0%, 0%, 0%)" d="M 123.160156 203.128906 C 126.257812 202.84375 129.351562 202.730469 132.464844 202.667969 C 135.148438 202.617188 138.015625 203.015625 140.597656 202.277344 C 140.820312 202.207031 140.933594 202.058594 140.933594 201.824219 C 140.933594 201.589844 140.820312 201.441406 140.597656 201.371094 C 135.496094 199.605469 128.265625 201.398438 123.039062 202.234375 C 122.535156 202.316406 122.648438 203.175781 123.160156 203.128906 Z M 123.160156 203.128906 " fill-opacity="1" fill-rule="nonzero"/><path fill="rgb(0%, 0%, 0%)" d="M 137.105469 205.707031 C 135.597656 204.730469 133.59375 204.710938 131.828125 204.601562 C 129.8125 204.46875 127.808594 204.558594 125.816406 204.875 C 125.367188 204.949219 125.519531 205.582031 125.914062 205.613281 C 128.105469 205.804688 130.292969 205.925781 132.453125 206.238281 C 133.980469 206.464844 135.445312 206.925781 136.980469 206.6875 C 137.472656 206.621094 137.460938 205.9375 137.105469 205.707031 Z M 137.105469 205.707031 " fill-opacity="1" fill-rule="nonzero"/><path fill="rgb(0%, 0%, 0%)" d="M 117.515625 206.363281 C 118.386719 206.59375 119.246094 206.292969 120.105469 206.082031 C 121.117188 205.832031 122.132812 205.601562 123.152344 205.371094 C 123.832031 205.222656 123.527344 204.265625 122.871094 204.355469 C 121.828125 204.503906 120.777344 204.640625 119.71875 204.769531 C 118.910156 204.867188 118.066406 204.886719 117.382812 205.363281 C 117.179688 205.488281 117.09375 205.671875 117.125 205.90625 C 117.15625 206.144531 117.285156 206.296875 117.515625 206.363281 Z M 117.515625 206.363281 " fill-opacity="1" fill-rule="nonzero"/><path fill="rgb(0%, 0%, 0%)" d="M 111.140625 212.535156 C 116.832031 211.78125 122.28125 212.296875 127.953125 212.21875 C 128.710938 212.21875 128.90625 211.058594 128.136719 210.871094 C 122.671875 209.554688 116.441406 210.320312 110.980469 211.339844 C 110.308594 211.449219 110.453125 212.621094 111.140625 212.535156 Z M 111.140625 212.535156 " fill-opacity="1" fill-rule="nonzero"/><path fill="rgb(0%, 0%, 0%)" d="M 108.824219 215.941406 C 111.605469 215.722656 114.386719 215.675781 117.171875 215.8125 C 119.921875 215.957031 122.742188 216.546875 125.484375 216.4375 C 125.652344 216.433594 125.800781 216.375 125.925781 216.261719 C 126.050781 216.148438 126.125 216.007812 126.148438 215.839844 C 126.171875 215.671875 126.136719 215.515625 126.046875 215.375 C 125.957031 215.230469 125.828125 215.136719 125.667969 215.085938 C 120.585938 213.261719 114.070312 214.035156 108.824219 214.671875 C 108.023438 214.757812 107.988281 216.003906 108.824219 215.941406 Z M 108.824219 215.941406 " fill-opacity="1" fill-rule="nonzero"/><path fill="rgb(0%, 0%, 0%)" d="M 123.695312 218 C 117.605469 216.167969 111.203125 216.945312 104.984375 217.496094 C 104.28125 217.558594 104.265625 218.652344 104.984375 218.605469 C 111.175781 218.203125 117.148438 218.402344 123.246094 219.628906 C 124.304688 219.839844 124.746094 218.3125 123.695312 218 Z M 123.695312 218 " fill-opacity="1" fill-rule="nonzero"/><path fill="rgb(0%, 0%, 0%)" d="M 119.667969 219.816406 C 114.902344 218.3125 108.546875 219.683594 103.675781 220.199219 C 102.972656 220.277344 102.945312 221.375 103.675781 221.324219 C 106.515625 221.128906 109.367188 221.074219 112.210938 221.046875 C 114.6875 221.027344 117.261719 221.359375 119.667969 220.734375 C 119.902344 220.667969 120.015625 220.515625 120.015625 220.277344 C 120.015625 220.035156 119.902344 219.882812 119.667969 219.816406 Z M 119.667969 219.816406 " fill-opacity="1" fill-rule="nonzero"/><path fill="rgb(0%, 0%, 0%)" d="M 112.578125 222.433594 C 108.90625 221.769531 104.460938 222.566406 100.828125 223.296875 C 100.433594 223.378906 100.546875 223.957031 100.917969 223.972656 C 104.585938 224.140625 109.011719 224.421875 112.578125 223.464844 C 113.070312 223.339844 113.125 222.53125 112.578125 222.433594 Z M 112.578125 222.433594 " fill-opacity="1" fill-rule="nonzero"/><path fill="rgb(0%, 0%, 0%)" d="M 128.449219 241.136719 C 129.03125 237.417969 129.109375 233.6875 128.6875 229.945312 C 128.621094 229.320312 127.699219 229.292969 127.699219 229.945312 C 127.699219 233.640625 127.621094 237.332031 127.671875 241.03125 C 127.679688 241.460938 128.375 241.589844 128.449219 241.136719 Z M 128.449219 241.136719 " fill-opacity="1" fill-rule="nonzero"/><path fill="rgb(0%, 0%, 0%)" d="M 129.925781 228.785156 C 130.09375 235.324219 128.574219 241.429688 128.125 247.867188 C 128.082031 248.460938 129.046875 248.753906 129.292969 248.179688 C 131.792969 242.335938 131.648438 234.992188 131.203125 228.785156 C 131.148438 227.972656 129.902344 227.949219 129.925781 228.785156 Z M 129.925781 228.785156 " fill-opacity="1" fill-rule="nonzero"/><path fill="rgb(0%, 0%, 0%)" d="M 132.855469 226.386719 C 132.835938 229.609375 132.894531 232.832031 132.890625 236.054688 C 132.886719 239.277344 132.433594 242.5625 132.808594 245.726562 C 132.882812 246.351562 133.8125 246.59375 133.976562 245.882812 C 135.398438 239.800781 134.585938 232.410156 133.75 226.265625 C 133.679688 225.757812 132.855469 225.894531 132.855469 226.386719 Z M 132.855469 226.386719 " fill-opacity="1" fill-rule="nonzero"/><path fill="rgb(0%, 0%, 0%)" d="M 126.648438 243.1875 C 126.265625 244.703125 125.960938 246.238281 125.738281 247.789062 C 125.550781 249.019531 125.207031 250.257812 125.425781 251.496094 C 125.476562 251.683594 125.601562 251.792969 125.796875 251.816406 C 125.992188 251.84375 126.140625 251.769531 126.242188 251.601562 C 126.84375 250.351562 126.839844 248.855469 127.023438 247.492188 C 127.210938 246.09375 127.320312 244.6875 127.359375 243.277344 C 127.34375 243.082031 127.238281 242.96875 127.042969 242.945312 C 126.84375 242.917969 126.714844 243 126.648438 243.1875 Z M 126.648438 243.1875 " fill-opacity="1" fill-rule="nonzero"/><path fill="rgb(0%, 0%, 0%)" d="M 135.40625 224.148438 C 135.882812 229.933594 135.519531 236.136719 136.574219 241.828125 C 136.667969 242.359375 137.589844 242.382812 137.667969 241.828125 C 138.492188 236.085938 137.277344 229.714844 136.390625 223.996094 C 136.304688 223.460938 135.359375 223.585938 135.40625 224.148438 Z M 135.40625 224.148438 " fill-opacity="1" fill-rule="nonzero"/><path fill="rgb(0%, 0%, 0%)" d="M 138.808594 230.71875 C 138.875 230.9375 139.019531 231.050781 139.253906 231.050781 C 139.484375 231.050781 139.632812 230.9375 139.695312 230.71875 C 140.230469 228.054688 139.382812 224.921875 138.640625 222.367188 C 138.601562 222.257812 138.527344 222.179688 138.425781 222.125 C 138.324219 222.070312 138.214844 222.058594 138.105469 222.089844 C 137.992188 222.121094 137.90625 222.1875 137.84375 222.285156 C 137.785156 222.382812 137.765625 222.488281 137.785156 222.601562 C 138.390625 225.289062 138.25 228.054688 138.808594 230.71875 Z M 138.808594 230.71875 " fill-opacity="1" fill-rule="nonzero"/><path fill="rgb(0%, 0%, 0%)" d="M 138.910156 233.058594 C 138.84375 234.152344 138.773438 235.230469 138.769531 236.332031 C 138.769531 237.304688 138.65625 238.304688 138.933594 239.246094 C 138.988281 239.429688 139.109375 239.519531 139.300781 239.519531 C 139.496094 239.519531 139.617188 239.429688 139.671875 239.246094 C 140.296875 237.394531 139.851562 234.945312 139.609375 233.058594 C 139.609375 232.960938 139.574219 232.878906 139.503906 232.8125 C 139.4375 232.742188 139.355469 232.707031 139.257812 232.707031 C 139.164062 232.707031 139.078125 232.742188 139.011719 232.8125 C 138.941406 232.878906 138.910156 232.960938 138.910156 233.058594 Z M 138.910156 233.058594 " fill-opacity="1" fill-rule="nonzero"/><path fill="rgb(0%, 0%, 0%)" d="M 141.347656 236.96875 C 141.347656 237.28125 141.835938 237.351562 141.890625 237.039062 C 142.878906 231.589844 143.519531 224.925781 141.417969 219.664062 C 141.214844 219.171875 140.425781 219.191406 140.429688 219.796875 C 140.457031 225.558594 141.613281 231.140625 141.347656 236.96875 Z M 141.347656 236.96875 " fill-opacity="1" fill-rule="nonzero"/><path fill="rgb(0%, 0%, 0%)" d="M 143.800781 233.121094 C 143.738281 233.707031 144.738281 233.851562 144.835938 233.261719 C 145.574219 228.570312 146.058594 222.445312 143.921875 218.050781 C 143.675781 217.550781 142.847656 217.792969 142.875 218.332031 C 142.996094 220.804688 143.800781 223.191406 143.972656 225.679688 C 144.132812 228.167969 144.074219 230.648438 143.800781 233.121094 Z M 143.800781 233.121094 " fill-opacity="1" fill-rule="nonzero"/><path fill="rgb(0%, 0%, 0%)" d="M 146.949219 231.355469 C 147.726562 226.414062 148.128906 220.460938 146.59375 215.632812 C 146.375 214.953125 145.316406 215.054688 145.320312 215.804688 C 145.363281 220.949219 146.179688 226.058594 146.132812 231.246094 C 146.128906 231.703125 146.875 231.832031 146.949219 231.355469 Z M 146.949219 231.355469 " fill-opacity="1" fill-rule="nonzero"/><path fill="rgb(0%, 0%, 0%)" d="M 149.082031 228.789062 C 149.082031 228.890625 149.117188 228.976562 149.183594 229.054688 C 149.25 229.128906 149.332031 229.171875 149.429688 229.183594 C 149.53125 229.199219 149.621094 229.179688 149.707031 229.125 C 149.789062 229.070312 149.84375 228.992188 149.871094 228.898438 C 151.707031 223.992188 150.542969 218.097656 148.980469 213.277344 C 148.738281 212.53125 147.585938 212.835938 147.796875 213.589844 C 149.199219 218.742188 148.753906 223.585938 149.082031 228.789062 Z M 149.082031 228.789062 " fill-opacity="1" fill-rule="nonzero"/><path fill="rgb(0%, 0%, 0%)" d="M 150.980469 216.460938 C 151.105469 217.804688 150.980469 219.195312 151.363281 220.496094 C 151.429688 220.695312 151.566406 220.796875 151.777344 220.796875 C 151.992188 220.796875 152.128906 220.695312 152.191406 220.496094 C 153.046875 217.71875 151.902344 213.867188 151.042969 211.207031 C 151.003906 211.089844 150.929688 211.003906 150.820312 210.945312 C 150.710938 210.890625 150.597656 210.875 150.480469 210.910156 C 150.363281 210.941406 150.273438 211.007812 150.207031 211.113281 C 150.144531 211.21875 150.125 211.332031 150.152344 211.449219 C 150.53125 213.105469 150.804688 214.773438 150.980469 216.460938 Z M 150.980469 216.460938 " fill-opacity="1" fill-rule="nonzero"/><path fill="rgb(0%, 0%, 0%)" d="M 152.621094 213.214844 C 152.828125 213.675781 153.410156 213.367188 153.460938 212.988281 C 153.636719 211.605469 152.894531 210.066406 152.308594 208.847656 C 152.082031 208.382812 151.28125 208.710938 151.464844 209.203125 C 151.949219 210.5 152.058594 211.964844 152.621094 213.214844 Z M 152.621094 213.214844 " fill-opacity="1" fill-rule="nonzero"/><path fill="rgb(0%, 0%, 0%)" d="M 153.542969 210.132812 C 153.589844 210.179688 153.648438 210.210938 153.710938 210.226562 C 153.773438 210.246094 153.839844 210.246094 153.902344 210.226562 C 153.96875 210.210938 154.023438 210.179688 154.070312 210.132812 C 154.117188 210.085938 154.148438 210.03125 154.167969 209.96875 C 154.386719 209.097656 153.914062 208.207031 153.625 207.402344 C 153.371094 206.703125 152.277344 206.976562 152.492188 207.714844 C 152.734375 208.523438 152.871094 209.566406 153.542969 210.132812 Z M 153.542969 210.132812 " fill-opacity="1" fill-rule="nonzero"/><path fill="rgb(0%, 0%, 0%)" d="M 276.6875 143.945312 C 274.5 143.574219 272.3125 143.601562 270.09375 143.523438 C 269.007812 143.484375 267.90625 143.371094 266.820312 143.324219 C 266.738281 142.761719 266.515625 142.261719 266.15625 141.824219 C 265.796875 141.386719 265.347656 141.074219 264.8125 140.886719 C 264.753906 139.945312 264.671875 139.007812 264.636719 138.070312 C 264.558594 135.855469 264.582031 133.660156 264.214844 131.472656 C 264.164062 131.308594 264.054688 131.230469 263.882812 131.230469 C 263.710938 131.230469 263.601562 131.308594 263.550781 131.472656 C 263.183594 133.664062 263.207031 135.851562 263.128906 138.070312 C 263.097656 138.96875 263.015625 139.878906 262.960938 140.789062 C 262.65625 140.855469 262.367188 140.964844 262.097656 141.117188 C 261.824219 141.273438 261.582031 141.464844 261.371094 141.691406 C 261.160156 141.921875 260.988281 142.175781 260.851562 142.457031 C 260.71875 142.738281 260.632812 143.035156 260.589844 143.34375 C 259.613281 143.402344 258.636719 143.492188 257.675781 143.527344 C 255.464844 143.605469 253.265625 143.578125 251.082031 143.949219 C 250.917969 144 250.835938 144.109375 250.835938 144.28125 C 250.835938 144.449219 250.917969 144.5625 251.082031 144.613281 C 253.269531 144.980469 255.457031 144.957031 257.675781 145.035156 C 258.6875 145.066406 259.710938 145.167969 260.734375 145.222656 C 260.894531 145.726562 261.171875 146.152344 261.5625 146.507812 C 261.953125 146.863281 262.40625 147.097656 262.921875 147.207031 C 262.972656 148.304688 263.085938 149.398438 263.121094 150.488281 C 263.203125 152.699219 263.175781 154.898438 263.546875 157.085938 C 263.597656 157.25 263.707031 157.332031 263.875 157.332031 C 264.046875 157.332031 264.15625 157.25 264.207031 157.085938 C 264.578125 154.898438 264.550781 152.707031 264.628906 150.488281 C 264.671875 149.371094 264.789062 148.238281 264.835938 147.109375 C 265.269531 146.953125 265.648438 146.710938 265.96875 146.382812 C 266.289062 146.050781 266.519531 145.667969 266.664062 145.230469 C 267.808594 145.183594 268.957031 145.066406 270.101562 145.023438 C 272.3125 144.945312 274.507812 144.972656 276.699219 144.601562 C 276.855469 144.546875 276.929688 144.433594 276.929688 144.269531 C 276.925781 144.105469 276.847656 143.996094 276.6875 143.945312 Z M 276.6875 143.945312 " fill-opacity="1" fill-rule="nonzero"/><path fill="rgb(0%, 0%, 0%)" d="M 104.335938 178.835938 C 105.347656 178.871094 106.375 178.972656 107.394531 179.023438 C 107.554688 179.527344 107.832031 179.957031 108.222656 180.3125 C 108.613281 180.667969 109.070312 180.902344 109.585938 181.015625 C 109.636719 182.109375 109.746094 183.203125 109.785156 184.292969 C 109.863281 186.503906 109.839844 188.703125 110.207031 190.890625 C 110.257812 191.050781 110.367188 191.132812 110.539062 191.132812 C 110.707031 191.132812 110.820312 191.050781 110.871094 190.890625 C 111.238281 188.699219 111.214844 186.511719 111.292969 184.292969 C 111.332031 183.175781 111.453125 182.039062 111.5 180.910156 C 111.933594 180.757812 112.308594 180.515625 112.632812 180.183594 C 112.953125 179.855469 113.183594 179.472656 113.328125 179.035156 C 114.46875 178.988281 115.617188 178.867188 116.75 178.828125 C 118.960938 178.75 121.15625 178.773438 123.34375 178.40625 C 123.507812 178.355469 123.589844 178.242188 123.589844 178.074219 C 123.589844 177.902344 123.507812 177.792969 123.34375 177.742188 C 121.15625 177.371094 118.964844 177.398438 116.75 177.320312 C 115.664062 177.28125 114.558594 177.167969 113.476562 177.121094 C 113.394531 176.558594 113.171875 176.058594 112.8125 175.621094 C 112.449219 175.183594 112.003906 174.871094 111.46875 174.683594 C 111.410156 173.742188 111.328125 172.804688 111.292969 171.867188 C 111.214844 169.65625 111.238281 167.457031 110.871094 165.269531 C 110.820312 165.105469 110.707031 165.027344 110.539062 165.027344 C 110.367188 165.027344 110.257812 165.105469 110.207031 165.269531 C 109.839844 167.460938 109.863281 169.648438 109.785156 171.867188 C 109.753906 172.765625 109.671875 173.675781 109.617188 174.585938 C 109.3125 174.652344 109.023438 174.761719 108.753906 174.914062 C 108.480469 175.070312 108.238281 175.261719 108.027344 175.488281 C 107.816406 175.71875 107.644531 175.972656 107.507812 176.253906 C 107.375 176.535156 107.289062 176.832031 107.246094 177.140625 C 106.269531 177.199219 105.292969 177.289062 104.332031 177.324219 C 102.121094 177.402344 99.921875 177.375 97.734375 177.746094 C 97.574219 177.796875 97.492188 177.90625 97.492188 178.078125 C 97.492188 178.246094 97.574219 178.359375 97.734375 178.40625 C 99.929688 178.769531 102.125 178.746094 104.335938 178.835938 Z M 104.335938 178.835938 " fill-opacity="1" fill-rule="nonzero"/><g clip-path="url(#id1)"><path fill="rgb(0%, 0%, 0%)" d="M 229.082031 66.773438 C 231.269531 67.144531 233.457031 67.117188 235.675781 67.195312 C 236.6875 67.234375 237.710938 67.328125 238.734375 67.386719 C 238.894531 67.890625 239.171875 68.320312 239.5625 68.671875 C 239.953125 69.027344 240.40625 69.261719 240.921875 69.371094 C 240.972656 70.46875 241.085938 71.5625 241.125 72.652344 C 241.203125 74.867188 241.175781 77.066406 241.546875 79.25 C 241.597656 79.414062 241.707031 79.496094 241.878906 79.496094 C 242.046875 79.496094 242.15625 79.414062 242.207031 79.25 C 242.578125 77.0625 242.550781 74.871094 242.628906 72.652344 C 242.671875 71.535156 242.785156 70.398438 242.835938 69.269531 C 243.269531 69.117188 243.648438 68.875 243.96875 68.542969 C 244.289062 68.214844 244.523438 67.832031 244.664062 67.390625 C 245.808594 67.34375 246.957031 67.222656 248.085938 67.183594 C 250.296875 67.105469 252.492188 67.132812 254.679688 66.761719 C 254.84375 66.710938 254.925781 66.601562 254.925781 66.429688 C 254.925781 66.257812 254.84375 66.148438 254.679688 66.101562 C 252.492188 65.730469 250.300781 65.757812 248.085938 65.679688 C 247.003906 65.636719 245.894531 65.527344 244.8125 65.476562 C 244.730469 64.914062 244.507812 64.414062 244.148438 63.976562 C 243.789062 63.539062 243.339844 63.226562 242.804688 63.039062 C 242.75 62.101562 242.664062 61.160156 242.628906 60.222656 C 242.550781 58.011719 242.578125 55.8125 242.207031 53.625 C 242.15625 53.460938 242.046875 53.382812 241.878906 53.382812 C 241.707031 53.382812 241.597656 53.460938 241.546875 53.625 C 241.175781 55.816406 241.203125 58.003906 241.125 60.222656 C 241.09375 61.125 241.011719 62.035156 240.953125 62.945312 C 240.648438 63.007812 240.363281 63.117188 240.089844 63.273438 C 239.820312 63.425781 239.578125 63.617188 239.363281 63.847656 C 239.152344 64.074219 238.980469 64.332031 238.847656 64.613281 C 238.714844 64.894531 238.625 65.191406 238.585938 65.5 C 237.609375 65.554688 236.632812 65.648438 235.667969 65.679688 C 233.457031 65.757812 231.261719 65.734375 229.074219 66.105469 C 228.898438 66.148438 228.8125 66.257812 228.8125 66.441406 C 228.816406 66.621094 228.902344 66.734375 229.082031 66.773438 Z M 229.082031 66.773438 " fill-opacity="1" fill-rule="nonzero"/></g><path fill="rgb(0%, 0%, 0%)" d="M 220.707031 197.804688 C 218.515625 197.4375 216.328125 197.460938 214.109375 197.382812 C 213.027344 197.34375 211.921875 197.234375 210.835938 197.183594 C 210.753906 196.621094 210.535156 196.121094 210.171875 195.683594 C 209.8125 195.246094 209.363281 194.929688 208.828125 194.742188 C 208.773438 193.804688 208.6875 192.867188 208.652344 191.929688 C 208.574219 189.714844 208.601562 187.515625 208.230469 185.332031 C 208.183594 185.167969 208.074219 185.085938 207.902344 185.085938 C 207.730469 185.085938 207.621094 185.167969 207.570312 185.332031 C 207.199219 187.519531 207.226562 189.710938 207.148438 191.929688 C 207.117188 192.828125 207.035156 193.738281 206.976562 194.648438 C 206.671875 194.714844 206.382812 194.824219 206.113281 194.980469 C 205.84375 195.132812 205.601562 195.324219 205.390625 195.554688 C 205.175781 195.78125 205.003906 196.035156 204.871094 196.320312 C 204.738281 196.601562 204.648438 196.894531 204.605469 197.207031 C 203.632812 197.261719 202.65625 197.351562 201.691406 197.386719 C 199.480469 197.464844 197.285156 197.441406 195.097656 197.808594 C 194.933594 197.859375 194.851562 197.96875 194.851562 198.140625 C 194.851562 198.308594 194.933594 198.421875 195.097656 198.46875 C 197.285156 198.839844 199.476562 198.8125 201.691406 198.894531 C 202.707031 198.929688 203.730469 199.027344 204.75 199.082031 C 204.910156 199.585938 205.1875 200.015625 205.578125 200.371094 C 205.96875 200.722656 206.421875 200.957031 206.941406 201.070312 C 206.992188 202.167969 207.101562 203.257812 207.140625 204.351562 C 207.222656 206.5625 207.195312 208.761719 207.566406 210.949219 C 207.613281 211.113281 207.722656 211.195312 207.894531 211.195312 C 208.066406 211.195312 208.175781 211.113281 208.226562 210.949219 C 208.59375 208.757812 208.570312 206.566406 208.648438 204.351562 C 208.6875 203.230469 208.808594 202.097656 208.855469 200.964844 C 209.289062 200.8125 209.664062 200.570312 209.988281 200.238281 C 210.308594 199.910156 210.539062 199.527344 210.683594 199.089844 C 211.824219 199.042969 212.972656 198.917969 214.105469 198.882812 C 216.316406 198.800781 218.515625 198.828125 220.699219 198.457031 C 220.855469 198.40625 220.933594 198.296875 220.933594 198.132812 C 220.9375 197.96875 220.859375 197.859375 220.707031 197.804688 Z M 220.707031 197.804688 " fill-opacity="1" fill-rule="nonzero"/><path fill="rgb(0%, 0%, 0%)" d="M 119.898438 83.941406 C 120.285156 83.941406 120.671875 83.902344 121.050781 83.828125 C 121.429688 83.75 121.800781 83.640625 122.160156 83.492188 C 122.515625 83.34375 122.855469 83.160156 123.179688 82.945312 C 123.503906 82.730469 123.800781 82.484375 124.074219 82.210938 C 124.347656 81.9375 124.59375 81.640625 124.808594 81.316406 C 125.023438 80.992188 125.207031 80.652344 125.355469 80.296875 C 125.503906 79.9375 125.617188 79.566406 125.691406 79.1875 C 125.769531 78.804688 125.804688 78.421875 125.804688 78.035156 C 125.804688 77.648438 125.769531 77.261719 125.691406 76.882812 C 125.617188 76.503906 125.503906 76.132812 125.355469 75.773438 C 125.207031 75.417969 125.027344 75.074219 124.8125 74.753906 C 124.597656 74.429688 124.351562 74.132812 124.078125 73.859375 C 123.804688 73.585938 123.503906 73.339844 123.183594 73.125 C 122.859375 72.910156 122.519531 72.726562 122.160156 72.578125 C 121.804688 72.429688 121.433594 72.316406 121.054688 72.242188 C 120.671875 72.167969 120.289062 72.128906 119.902344 72.128906 C 119.511719 72.128906 119.128906 72.167969 118.75 72.242188 C 118.367188 72.316406 118 72.429688 117.640625 72.578125 C 117.28125 72.726562 116.941406 72.910156 116.621094 73.125 C 116.296875 73.339844 116 73.585938 115.726562 73.859375 C 115.453125 74.132812 115.207031 74.433594 114.992188 74.753906 C 114.777344 75.078125 114.59375 75.417969 114.445312 75.777344 C 114.296875 76.136719 114.1875 76.503906 114.109375 76.886719 C 114.035156 77.265625 113.996094 77.648438 113.996094 78.039062 C 113.996094 78.425781 114.035156 78.808594 114.113281 79.1875 C 114.1875 79.570312 114.300781 79.9375 114.449219 80.296875 C 114.597656 80.652344 114.777344 80.992188 114.996094 81.316406 C 115.210938 81.636719 115.453125 81.933594 115.726562 82.207031 C 116.003906 82.484375 116.300781 82.726562 116.621094 82.941406 C 116.945312 83.15625 117.285156 83.339844 117.640625 83.488281 C 118 83.636719 118.367188 83.75 118.746094 83.824219 C 119.128906 83.902344 119.511719 83.941406 119.898438 83.941406 Z M 119.898438 74.160156 C 120.410156 74.164062 120.90625 74.261719 121.378906 74.460938 C 121.855469 74.65625 122.273438 74.9375 122.636719 75.300781 C 123 75.664062 123.277344 76.082031 123.472656 76.558594 C 123.667969 77.035156 123.765625 77.527344 123.765625 78.042969 C 123.765625 78.554688 123.667969 79.050781 123.46875 79.523438 C 123.273438 80 122.992188 80.417969 122.628906 80.78125 C 122.265625 81.144531 121.847656 81.421875 121.371094 81.621094 C 120.898438 81.816406 120.402344 81.914062 119.890625 81.914062 C 119.375 81.914062 118.882812 81.816406 118.40625 81.617188 C 117.933594 81.421875 117.515625 81.140625 117.152344 80.777344 C 116.789062 80.414062 116.507812 79.996094 116.3125 79.519531 C 116.117188 79.046875 116.015625 78.550781 116.015625 78.039062 C 116.019531 77.523438 116.117188 77.027344 116.3125 76.554688 C 116.511719 76.078125 116.792969 75.660156 117.15625 75.296875 C 117.519531 74.933594 117.9375 74.652344 118.414062 74.457031 C 118.890625 74.257812 119.382812 74.160156 119.898438 74.160156 Z M 119.898438 74.160156 " fill-opacity="1" fill-rule="nonzero"/><path fill="rgb(0%, 0%, 0%)" d="M 172.980469 235.515625 C 172.59375 235.515625 172.210938 235.550781 171.828125 235.628906 C 171.449219 235.703125 171.078125 235.8125 170.722656 235.960938 C 170.363281 236.109375 170.019531 236.289062 169.699219 236.503906 C 169.375 236.71875 169.078125 236.964844 168.800781 237.238281 C 168.527344 237.511719 168.28125 237.808594 168.066406 238.132812 C 167.851562 238.453125 167.667969 238.796875 167.519531 239.152344 C 167.371094 239.511719 167.257812 239.878906 167.179688 240.261719 C 167.105469 240.640625 167.066406 241.027344 167.066406 241.414062 C 167.066406 241.800781 167.101562 242.1875 167.175781 242.566406 C 167.253906 242.945312 167.363281 243.316406 167.511719 243.675781 C 167.660156 244.035156 167.839844 244.375 168.058594 244.699219 C 168.273438 245.019531 168.515625 245.320312 168.789062 245.59375 C 169.0625 245.867188 169.363281 246.113281 169.683594 246.328125 C 170.007812 246.546875 170.347656 246.726562 170.707031 246.875 C 171.0625 247.023438 171.433594 247.136719 171.8125 247.214844 C 172.195312 247.289062 172.578125 247.328125 172.964844 247.328125 C 173.351562 247.328125 173.738281 247.289062 174.117188 247.214844 C 174.5 247.140625 174.867188 247.027344 175.226562 246.878906 C 175.585938 246.730469 175.925781 246.550781 176.246094 246.335938 C 176.570312 246.117188 176.867188 245.875 177.144531 245.597656 C 177.417969 245.324219 177.664062 245.027344 177.878906 244.703125 C 178.09375 244.382812 178.273438 244.042969 178.425781 243.683594 C 178.574219 243.324219 178.683594 242.957031 178.761719 242.574219 C 178.835938 242.195312 178.875 241.808594 178.875 241.421875 C 178.875 241.035156 178.835938 240.652344 178.757812 240.273438 C 178.683594 239.890625 178.570312 239.523438 178.421875 239.164062 C 178.277344 238.808594 178.09375 238.46875 177.878906 238.144531 C 177.664062 237.824219 177.421875 237.527344 177.148438 237.253906 C 176.875 236.976562 176.578125 236.734375 176.253906 236.515625 C 175.933594 236.300781 175.59375 236.121094 175.238281 235.972656 C 174.878906 235.820312 174.511719 235.710938 174.132812 235.632812 C 173.753906 235.554688 173.367188 235.515625 172.980469 235.515625 Z M 172.980469 245.296875 C 172.46875 245.296875 171.972656 245.199219 171.5 245.003906 C 171.023438 244.804688 170.605469 244.527344 170.242188 244.164062 C 169.878906 243.800781 169.597656 243.378906 169.402344 242.90625 C 169.207031 242.429688 169.109375 241.9375 169.109375 241.421875 C 169.109375 240.90625 169.207031 240.414062 169.402344 239.9375 C 169.597656 239.464844 169.878906 239.042969 170.242188 238.679688 C 170.605469 238.316406 171.023438 238.039062 171.5 237.839844 C 171.972656 237.644531 172.46875 237.546875 172.980469 237.546875 C 173.496094 237.546875 173.988281 237.644531 174.464844 237.839844 C 174.941406 238.039062 175.359375 238.316406 175.722656 238.679688 C 176.085938 239.042969 176.363281 239.464844 176.5625 239.9375 C 176.757812 240.414062 176.855469 240.90625 176.855469 241.421875 C 176.855469 241.9375 176.757812 242.429688 176.558594 242.902344 C 176.363281 243.378906 176.082031 243.796875 175.71875 244.160156 C 175.355469 244.523438 174.9375 244.804688 174.464844 245 C 173.988281 245.199219 173.496094 245.296875 172.980469 245.296875 Z M 172.980469 245.296875 " fill-opacity="1" fill-rule="nonzero"/><path fill="rgb(0%, 0%, 0%)" d="M 166.3125 150.09375 C 166.3125 149.707031 166.273438 149.324219 166.199219 148.941406 C 166.121094 148.5625 166.011719 148.191406 165.863281 147.832031 C 165.714844 147.476562 165.53125 147.132812 165.316406 146.8125 C 165.101562 146.488281 164.855469 146.191406 164.582031 145.917969 C 164.304688 145.644531 164.007812 145.398438 163.683594 145.183594 C 163.363281 144.96875 163.023438 144.785156 162.664062 144.636719 C 162.304688 144.488281 161.933594 144.378906 161.554688 144.300781 C 161.175781 144.226562 160.789062 144.1875 160.402344 144.1875 C 160.015625 144.1875 159.628906 144.226562 159.25 144.304688 C 158.871094 144.378906 158.5 144.492188 158.140625 144.640625 C 157.785156 144.789062 157.445312 144.972656 157.121094 145.1875 C 156.800781 145.40625 156.5 145.648438 156.226562 145.925781 C 155.953125 146.199219 155.707031 146.496094 155.492188 146.820312 C 155.277344 147.144531 155.097656 147.484375 154.949219 147.84375 C 154.800781 148.203125 154.691406 148.570312 154.613281 148.953125 C 154.539062 149.332031 154.503906 149.71875 154.503906 150.105469 C 154.503906 150.492188 154.542969 150.878906 154.621094 151.257812 C 154.695312 151.636719 154.808594 152.007812 154.957031 152.367188 C 155.105469 152.722656 155.289062 153.0625 155.503906 153.386719 C 155.722656 153.707031 155.96875 154.007812 156.242188 154.28125 C 156.515625 154.554688 156.816406 154.796875 157.140625 155.011719 C 157.460938 155.226562 157.804688 155.410156 158.160156 155.558594 C 158.519531 155.703125 158.890625 155.816406 159.269531 155.890625 C 159.652344 155.964844 160.035156 156.003906 160.421875 156 C 160.808594 156 161.195312 155.960938 161.574219 155.882812 C 161.953125 155.808594 162.320312 155.695312 162.675781 155.546875 C 163.035156 155.398438 163.375 155.214844 163.695312 155 C 164.015625 154.785156 164.3125 154.539062 164.585938 154.265625 C 164.859375 153.992188 165.105469 153.691406 165.320312 153.371094 C 165.535156 153.046875 165.714844 152.707031 165.863281 152.351562 C 166.011719 151.992188 166.121094 151.625 166.199219 151.246094 C 166.273438 150.867188 166.3125 150.480469 166.3125 150.09375 Z M 160.421875 153.972656 C 159.910156 153.972656 159.414062 153.871094 158.941406 153.675781 C 158.464844 153.480469 158.046875 153.199219 157.683594 152.835938 C 157.320312 152.472656 157.039062 152.054688 156.84375 151.578125 C 156.648438 151.101562 156.546875 150.609375 156.546875 150.09375 C 156.546875 149.582031 156.648438 149.085938 156.84375 148.613281 C 157.039062 148.136719 157.320312 147.71875 157.683594 147.355469 C 158.046875 146.992188 158.464844 146.710938 158.941406 146.515625 C 159.414062 146.316406 159.910156 146.21875 160.421875 146.21875 C 160.9375 146.21875 161.429688 146.316406 161.90625 146.515625 C 162.378906 146.710938 162.800781 146.992188 163.164062 147.355469 C 163.527344 147.71875 163.804688 148.136719 164.003906 148.613281 C 164.199219 149.085938 164.296875 149.582031 164.296875 150.09375 C 164.296875 150.609375 164.199219 151.101562 164.003906 151.578125 C 163.804688 152.050781 163.523438 152.472656 163.164062 152.835938 C 162.800781 153.199219 162.378906 153.476562 161.90625 153.675781 C 161.429688 153.871094 160.9375 153.96875 160.421875 153.972656 Z M 160.421875 153.972656 " fill-opacity="1" fill-rule="nonzero"/><g clip-path="url(#id2)"><path fill="rgb(0%, 0%, 0%)" d="M 282.828125 109.984375 C 282.441406 109.980469 282.054688 110.019531 281.675781 110.09375 C 281.292969 110.171875 280.925781 110.28125 280.566406 110.429688 C 280.207031 110.578125 279.867188 110.761719 279.546875 110.976562 C 279.222656 111.191406 278.925781 111.4375 278.652344 111.710938 C 278.375 111.984375 278.132812 112.285156 277.914062 112.605469 C 277.699219 112.929688 277.519531 113.269531 277.371094 113.628906 C 277.222656 113.984375 277.109375 114.355469 277.035156 114.734375 C 276.957031 115.117188 276.921875 115.5 276.921875 115.886719 C 276.921875 116.277344 276.957031 116.660156 277.03125 117.039062 C 277.109375 117.421875 277.21875 117.789062 277.367188 118.148438 C 277.515625 118.507812 277.699219 118.847656 277.914062 119.167969 C 278.128906 119.492188 278.375 119.789062 278.648438 120.066406 C 278.921875 120.339844 279.222656 120.582031 279.542969 120.800781 C 279.867188 121.015625 280.207031 121.195312 280.5625 121.34375 C 280.921875 121.492188 281.292969 121.605469 281.671875 121.679688 C 282.050781 121.757812 282.4375 121.792969 282.824219 121.792969 C 283.210938 121.792969 283.597656 121.757812 283.976562 121.679688 C 284.355469 121.605469 284.726562 121.492188 285.085938 121.34375 C 285.441406 121.195312 285.78125 121.015625 286.105469 120.796875 C 286.429688 120.582031 286.726562 120.335938 287 120.0625 C 287.273438 119.789062 287.519531 119.492188 287.734375 119.167969 C 287.949219 118.84375 288.132812 118.503906 288.28125 118.144531 C 288.429688 117.789062 288.539062 117.417969 288.617188 117.039062 C 288.691406 116.65625 288.730469 116.273438 288.726562 115.886719 C 288.726562 115.496094 288.6875 115.113281 288.613281 114.734375 C 288.539062 114.355469 288.425781 113.984375 288.277344 113.628906 C 288.128906 113.269531 287.945312 112.929688 287.730469 112.609375 C 287.515625 112.285156 287.269531 111.988281 286.996094 111.714844 C 286.722656 111.441406 286.425781 111.195312 286.105469 110.980469 C 285.78125 110.765625 285.441406 110.582031 285.085938 110.433594 C 284.726562 110.285156 284.359375 110.171875 283.976562 110.097656 C 283.597656 110.019531 283.214844 109.984375 282.828125 109.984375 Z M 282.828125 119.761719 C 282.3125 119.761719 281.820312 119.664062 281.34375 119.464844 C 280.871094 119.269531 280.449219 118.988281 280.085938 118.625 C 279.722656 118.261719 279.445312 117.84375 279.246094 117.367188 C 279.050781 116.894531 278.953125 116.398438 278.953125 115.886719 C 278.953125 115.371094 279.050781 114.878906 279.246094 114.402344 C 279.445312 113.925781 279.722656 113.507812 280.085938 113.144531 C 280.449219 112.78125 280.871094 112.5 281.34375 112.304688 C 281.820312 112.109375 282.3125 112.007812 282.828125 112.007812 C 283.339844 112.007812 283.835938 112.109375 284.308594 112.304688 C 284.785156 112.5 285.203125 112.78125 285.566406 113.144531 C 285.929688 113.507812 286.210938 113.925781 286.40625 114.402344 C 286.605469 114.878906 286.703125 115.371094 286.703125 115.886719 C 286.703125 116.398438 286.601562 116.894531 286.40625 117.367188 C 286.210938 117.84375 285.929688 118.261719 285.566406 118.625 C 285.203125 118.988281 284.785156 119.269531 284.308594 119.464844 C 283.835938 119.664062 283.339844 119.761719 282.828125 119.761719 Z M 282.828125 119.761719 " fill-opacity="1" fill-rule="nonzero"/></g></svg>